<svg
xmlns:dc="http://purl.org/dc/elements/1.1/" xmlns:cc="http://creativecommons.org/ns#" xmlns:rdf="http://www.w3.org/1999/02/22-rdf-syntax-ns#" xmlns:svg="http://www.w3.org/2000/svg" xmlns="http://www.w3.org/2000/svg"
version="1.1"
viewBox="0 0 1920 1080"
height="1080mm"
width="1920mm">
<g transform="translate(-100.0,-100.0)"
><defs>
<linearGradient id="grad1" x1="0%" y1="0%" x2="100%" y2="0%">
<stop offset="0%" style="stop-color:rgb(255, 102, 42);stop-opacity:1" />
<stop offset="100%" style="stop-color:rgb(34, 255, 227);stop-opacity:1" />
</linearGradient>
</defs>
<path id="rect" d="m 100.0,100.0 1920,0.0 0.0,1080 -1920,0.0 z" fill="url(#grad1)"/>
<path d="m 7.05307550344,-10.8607838549 83.2808407099,30.6791925758 -32.4597679946,57.4000872293 z" style="fill:#ff7a3e"/>
<path d="m 90.3339162133,19.8184087209 78.3314745896,-5.8673418634 -30.9135250685,72.4376815421 z" style="fill:#f3743a"/>
<path d="m 168.665390803,13.9510668575 123.284609197,-0.00805785657049 -52.4502994336,78.9687477952 z" style="fill:#f48850"/>
<path d="m 291.95,13.9430090009 109.149055081,-34.9142292308 -60.872544145,116.069725034 z" style="fill:#e38d57"/>
<path d="m 401.099055081,-20.9712202298 82.5941585,13.7109711509 -25.3232523801,83.52674817 z" style="fill:#cc8a56"/>
<path d="m 483.693213581,-7.2602490789 139.35051598,8.87162362239 -69.1563331048,60.4471105712 z" style="fill:#c09360"/>
<path d="m 623.043729561,1.61137454349 88.7869538212,20.6389047966 -56.6215978084,37.5538389303 z" style="fill:#b39b6a"/>
<path d="m 711.830683382,22.25027934 72.5896902493,-47.182893367 -50.5109016636,114.955301719 z" style="fill:#a9a171"/>
<path d="m 784.420373632,-24.932614027 122.574270871,15.3053117939 -47.9261754959,127.855352408 z" style="fill:#a1ad7f"/>
<path d="m 906.994644502,-9.62730223306 85.2568334216,32.1306443323 -59.9172838933,34.6983598651 z" style="fill:#a2c194"/>
<path d="m 992.251477924,22.5033420993 95.4714592598,-19.6689588145 -16.0361562374,84.5254761722 z" style="fill:#8fc298"/>
<path d="m 1087.72293718,2.83438328473 123.633652368,16.0661556957 -47.4981550611,82.0528304147 z" style="fill:#89d0a8"/>
<path d="m 1211.35658955,18.9005389805 73.6429826859,-9.88737266956 -27.3638207188,91.364634455 z" style="fill:#7fdab3"/>
<path d="m 1284.99957224,9.01316631093 107.481734502,-37.0733115646 -37.806486353,138.712551627 z" style="fill:#73e0ba"/>
<path d="m 1392.48130674,-28.0601452537 127.484649314,46.6787004834 -98.5087344513,64.984018253 z" style="fill:#66e7c3"/>
<path d="m 1519.96595605,18.6185552297 110.460707474,-10.465755309 -96.8038614189,92.6862213868 z" style="fill:#4fe6c4"/>
<path d="m 1630.42666353,8.15279992073 69.2740277015,-25.3001878927 -38.3441016778,84.8493893699 z" style="fill:#4ef9d9"/>
<path d="m 1699.70069123,-17.1473879719 79.5303904281,8.75620027942 -36.835595504,76.1718958233 z" style="fill:#38f2d3"/>
<path d="m 1779.23108166,-8.39118769252 134.679299028,30.6524502166 -39.253904153,81.6059285885 z" style="fill:#29f9dc"/>
<path d="m 1913.91038069,22.2612625241 88.7740161905,8.42153417712 -29.663051344,45.6699802717 z" style="fill:#27ffe8"/>
<path d="m 2002.68439688,30.6827967012 80.0940536124,-10.8716702204 -10.728450489,66.7914138976 z" style="fill:#33fff4"/>
<path d="m 2082.77845049,19.8111264808 104.364639816,-26.9378278985 -21.9773517216,113.854856649 z" style="fill:#23ffe4"/>
<path d="m 2187.14309031,-7.12670141762 89.642439738,13.7833435606 0.995123117636,88.4392962577 z" style="fill:#32fff3"/>
<path d="m 57.8741482187,77.2184959502 79.8777175157,9.17025244935 -52.7515937118,78.5018473701 z" style="fill:#fe773d"/>
<path d="m 137.751865734,86.3887483996 101.747834832,6.5230083965 -44.3024606243,102.888533538 z" style="fill:#f9854c"/>
<path d="m 239.499700566,92.9117567961 100.72681037,2.18674800778 -34.6364772357,53.8934798431 z" style="fill:#e3834c"/>
<path d="m 340.226510936,95.0985048039 118.143450265,-18.8320057128 -73.3833001574,97.9884165957 z" style="fill:#d58954"/>
<path d="m 458.369961201,76.2664990911 95.5174352553,-14.2080139764 -46.0802940113,102.165551638 z" style="fill:#d59f6b"/>
<path d="m 553.887396456,62.0584851147 101.321689118,-2.25436684433 -53.5788205368,144.508272494 z" style="fill:#c3a06e"/>
<path d="m 655.209085574,59.8041182703 78.7003863941,30.2185694221 -5.62472408227,72.8875867504 z" style="fill:#c1b282"/>
<path d="m 733.909471968,90.0226876924 125.158997038,28.2053624824 -67.5071135821,37.6752451908 z" style="fill:#adaf80"/>
<path d="m 859.068469006,118.228050175 73.2657250242,-61.0263482105 -20.6235403631,129.4749448 z" style="fill:#a0b689"/>
<path d="m 932.334194031,57.2017019644 139.352586916,30.1581574925 -52.1618223602,79.1222389105 z" style="fill:#9ac69b"/>
<path d="m 1071.68678095,87.3598594569 92.1716535443,13.5935099383 -51.7945395163,74.3789015381 z" style="fill:#91d1a8"/>
<path d="m 1163.85843449,100.953369395 93.7773170282,-0.575568629311 -89.3645526531,70.0513695845 z" style="fill:#79c9a1"/>
<path d="m 1257.63575152,100.377800766 97.0390688678,10.274605607 -79.0382003855,78.3744383512 z" style="fill:#7ce0b9"/>
<path d="m 1354.67482039,110.652406373 66.7824012162,-27.0498328902 -2.28552862855,85.5274381342 z" style="fill:#60d7b2"/>
<path d="m 1421.4572216,83.6025734827 112.165580506,17.2364478249 -43.0938325451,63.5341806865 z" style="fill:#5ce4c0"/>
<path d="m 1533.62280211,100.839021308 127.733787443,-33.1370199096 -65.6211681514,116.612686434 z" style="fill:#49e7c5"/>
<path d="m 1661.35658955,67.702001398 81.0388966019,0.0787067327758 -49.0754131609,113.974289303 z" style="fill:#4dffdf"/>
<path d="m 1742.39548615,67.7807081307 132.260990379,36.0864829819 -59.9323672355,58.6401980526 z" style="fill:#3affe4"/>
<path d="m 1874.65647653,103.867191113 98.3648689995,-27.5144141397 -77.4540087982,65.3122657945 z" style="fill:#24ffe4"/>
<path d="m 1973.02134553,76.3527769729 99.0286544674,10.2497634055 -85.459648189,93.4350973995 z" style="fill:#22ffe3"/>
<path d="m 2072.05,86.6025403784 93.1157385834,20.1256148532 -55.2819124046,57.5774884607 z" style="fill:#36fff7"/>
<path d="m 2165.16573858,106.728155232 112.614914577,-11.632216831 -89.8114215524,89.3280153793 z" style="fill:#27ffe8"/>
<path d="m 2277.78065316,95.0959384006 56.4326886026,-1.7923591686 -49.0885994881,83.8873148194 z" style="fill:#36fff7"/>
<path d="m 6.79399993394,147.849527817 78.2062720886,17.0410679529 -34.096375058,120.801247785 z" style="fill:#ff773c"/>
<path d="m 85.0002720226,164.89059577 110.19696792,30.9096945642 -53.3262030192,84.1272204456 z" style="fill:#f6793f"/>
<path d="m 195.197239942,195.800290334 110.392793758,-46.8083056869 -34.6883266131,137.568601573 z" style="fill:#f38c54"/>
<path d="m 305.5900337,148.991984647 79.3966273431,25.2629310398 -33.5790701273,74.0887973971 z" style="fill:#db854f"/>
<path d="m 384.986661044,174.254915687 122.820441401,-10.0308789345 -67.5929782557,110.091741903 z" style="fill:#d79560"/>
<path d="m 507.807102445,164.224036752 93.823162592,40.0883540123 -54.608331284,72.384683335 z" style="fill:#c09260"/>
<path d="m 601.630265037,204.312390764 126.654482849,-41.4021163217 -87.9320553393,130.54150605 z" style="fill:#bfa675"/>
<path d="m 728.284747886,162.910274443 63.2766075387,-7.00697907716 -49.9487965635,90.9887990233 z" style="fill:#aea878"/>
<path d="m 791.561355424,155.903295366 120.149298243,30.7733513982 -75.2358894912,85.3091514072 z" style="fill:#b1bd8f"/>
<path d="m 911.710653667,186.676646764 107.814304919,-20.1945483965 -93.3517406929,117.99887792 z" style="fill:#93b387"/>
<path d="m 1019.52495859,166.482098367 92.5389363883,8.85017256596 -62.0638949744,49.825350202 z" style="fill:#93c99f"/>
<path d="m 1112.06389497,175.332270933 56.2073038914,-4.90310058293 -30.697805612,69.4917229301 z" style="fill:#82c79e"/>
<path d="m 1168.27119887,170.42917035 107.365421135,18.5976743737 -40.8887944088,64.6184979496 z" style="fill:#76cca5"/>
<path d="m 1275.63662,189.026844724 143.535072973,-19.8968331072 -85.3958885418,81.6843910629 z" style="fill:#64d1ab"/>
<path d="m 1419.17169297,169.130011617 71.3572765896,-4.75680962278 -35.4040878613,106.945091908 z" style="fill:#65e7c4"/>
<path d="m 1490.52896956,164.373201994 105.206451836,19.9414858381 -29.626586465,68.6551385546 z" style="fill:#4de2c0"/>
<path d="m 1595.7354214,184.314687832 97.5846515923,-2.55969039868 -28.3582169166,53.1519136164 z" style="fill:#48f1d1"/>
<path d="m 1693.32007299,181.754997434 121.404036305,-19.2476082684 -60.8951669801,75.5852210162 z" style="fill:#42fee0"/>
<path d="m 1814.7241093,162.507389165 80.8432274368,-20.8423463977 -50.0698609872,132.86967161 z" style="fill:#31ffe4"/>
<path d="m 1895.56733673,141.665042767 91.0230150765,38.3725950105 -27.2810741961,69.7870053303 z" style="fill:#2effef"/>
<path d="m 1986.59035181,180.037637778 123.293474368,-15.7319940857 -51.178931667,89.6304519566 z" style="fill:#2bffec"/>
<path d="m 2109.88382618,164.305643692 78.0854054295,20.1183100876 -67.0291667877,94.2554099187 z" style="fill:#31fff2"/>
<path d="m 2187.96923161,184.42395378 97.1555106668,-7.23305972845 -54.935868756,99.8382765949 z" style="fill:#23ffe4"/>
<path d="m 50.9038969646,285.691843555 90.9671399583,-5.7643327757 -37.1732286953,77.0341007701 z" style="fill:#ff7c42"/>
<path d="m 141.871036923,279.927510779 129.030670164,6.63307544085 -46.2671396086,77.7476362258 z" style="fill:#e97941"/>
<path d="m 270.901707087,286.56058622 80.505883829,-38.2168731364 -60.362796662,108.3682342 z" style="fill:#e0834c"/>
<path d="m 351.407590916,248.343713084 88.8065332729,25.9720655712 -48.1905439735,95.2595879609 z" style="fill:#e49863"/>
<path d="m 440.214124189,274.315778655 106.807809564,2.38129544445 -54.8964914548,101.296213305 z" style="fill:#c78e5a"/>
<path d="m 547.021933753,276.697074099 93.3307587934,16.7547063937 -30.0480812085,64.402811333 z" style="fill:#c5a06e"/>
<path d="m 640.352692546,293.451780493 101.259866314,-46.5596861042 -58.4900654352,93.7066755677 z" style="fill:#b5a272"/>
<path d="m 741.612558861,246.892094389 94.8622053155,25.0937037821 -47.1704133273,79.6409799895 z" style="fill:#aeae80"/>
<path d="m 836.474764176,271.985798171 89.6984537169,12.4951781159 -50.1024812736,40.3831797021 z" style="fill:#9aad7f"/>
<path d="m 926.173217893,284.480976287 123.826782107,-59.3233551516 -24.8958936081,119.056215661 z" style="fill:#8fb98e"/>
<path d="m 1050.0,225.157621135 87.5733932537,14.7632721451 -41.0449724556,120.413011905 z" style="fill:#92cfa5"/>
<path d="m 1137.57339325,239.92089328 97.1744323386,13.7244493932 -44.5311105905,100.137052874 z" style="fill:#86d4ac"/>
<path d="m 1234.74782559,253.645342674 99.0279788402,-2.83093999388 -12.2056791011,85.5374442046 z" style="fill:#6dd1aa"/>
<path d="m 1333.77580443,250.81440268 121.34907727,20.5038912219 -66.6722151594,92.2114934854 z" style="fill:#60d6b2"/>
<path d="m 1455.1248817,271.318293902 110.983953233,-18.3484675149 -49.231328361,99.2517266841 z" style="fill:#60eecb"/>
<path d="m 1566.10883494,252.969826387 98.8530211407,-18.0629153368 -46.1109249686,101.480032598 z" style="fill:#58fad9"/>
<path d="m 1664.96185608,234.90691105 88.8670862414,3.18569913148 -39.9651893552,106.369127919 z" style="fill:#43f7d7"/>
<path d="m 1753.82894232,238.092610181 91.6685334297,36.4421041957 -50.5112253259,57.3144610724 z" style="fill:#42ffe9"/>
<path d="m 1845.49747575,274.534714377 113.811801868,-24.7100712689 -64.1494436675,85.7143274596 z" style="fill:#32ffef"/>
<path d="m 1959.30927761,249.824643108 99.395616897,4.11145254066 -61.6967435346,79.5149440032 z" style="fill:#27ffe8"/>
<path d="m 2058.70489451,253.936095649 62.2351703089,24.7432680497 8.86700404843,63.5416874763 z" style="fill:#24ffe5"/>
<path d="m 2120.94006482,278.679363699 109.248808698,-1.65019305227 -16.3801823953,41.068978409 z" style="fill:#31fff2"/>
<path d="m 2230.18887352,277.029170646 125.676771939,-33.3372779575 -54.1461522373,119.078154004 z" style="fill:#2affeb"/>
<path d="m -24.3389803597,361.618844397 129.036788587,-4.65723284772 -74.8314829822,60.3209396481 z" style="fill:#ff7439"/>
<path d="m 104.697808228,356.96161155 119.936759251,7.34661089653 -88.2898287012,96.7019139884 z" style="fill:#f57a40"/>
<path d="m 224.634567479,364.308222446 66.4102267756,-7.59627516226 -7.44991169702,75.7143537521 z" style="fill:#ee8951"/>
<path d="m 291.044794254,356.711947284 100.978785962,12.8634193321 -72.4692783501,73.9206298498 z" style="fill:#d8804a"/>
<path d="m 392.023580216,369.575366616 100.101862082,8.4179207881 -20.8248348758,67.8181106497 z" style="fill:#cb8b56"/>
<path d="m 492.125442298,377.993287404 118.17916904,-20.1386955779 -62.3991665074,60.2545756315 z" style="fill:#cd9f6d"/>
<path d="m 610.304611338,357.854591826 72.8178820876,-17.2558218694 -62.8317220845,93.9709266337 z" style="fill:#c9ac7b"/>
<path d="m 683.122493426,340.598769957 106.181857423,11.0280082039 -23.8860012683,62.345847676 z" style="fill:#a9a171"/>
<path d="m 789.304350849,351.626778161 86.7663857706,-26.7626221715 -9.86772532793,83.1980965068 z" style="fill:#b1bd8f"/>
<path d="m 876.07073662,324.864155989 149.033369772,19.3496808075 -87.8888869479,85.1328882633 z" style="fill:#93b286"/>
<path d="m 1025.10410639,344.213836797 71.4243144062,16.1200683893 -49.0686007019,82.8669018323 z" style="fill:#8cc196"/>
<path d="m 1096.5284208,360.333905186 93.6882942038,-6.55150963845 -42.7900619518,62.982833142 z" style="fill:#89cfa6"/>
<path d="m 1190.216715,353.782395547 131.35341033,-17.430548663 -59.6974519853,104.079724707 z" style="fill:#82deb7"/>
<path d="m 1321.57012533,336.351846884 66.8825412119,27.1779405027 -50.6263372704,56.4282509313 z" style="fill:#65d3ae"/>
<path d="m 1388.45266654,363.529787387 128.424840031,-11.3082343162 -73.4613943335,98.8802317715 z" style="fill:#69eac6"/>
<path d="m 1516.87750657,352.221553071 101.973424533,-15.8346094225 -45.6881895366,118.993757773 z" style="fill:#4fe8c6"/>
<path d="m 1618.85093111,336.386943648 95.0128218548,8.07479445204 -88.4644544925,103.332556542 z" style="fill:#49f2d2"/>
<path d="m 1713.86375296,344.4617381 81.122497459,-12.6125626508 -59.6325207723,96.4046647293 z" style="fill:#37f3d4"/>
<path d="m 1794.98625042,331.84917545 100.173583526,3.68979511828 -61.834609295,95.4263263552 z" style="fill:#2ffcdf"/>
<path d="m 1895.15983395,335.538970568 101.84831703,-2.0879309157 -30.7765900077,116.967880339 z" style="fill:#2cffed"/>
<path d="m 1997.00815098,333.451039652 132.798917892,8.77001152275 -92.9514413673,107.615680307 z" style="fill:#2ffff0"/>
<path d="m 2129.80706887,342.221051175 84.0016222547,-24.1229021195 -33.4328657934,117.038637462 z" style="fill:#36fff7"/>
<path d="m 2213.80869112,318.098149055 87.9108020969,44.6718976372 -28.7683134226,44.7527876858 z" style="fill:#27ffe8"/>
<path d="m 29.8663252453,417.282551198 106.478413532,43.7275852368 -25.7092025306,40.9046010767 z" style="fill:#f66f34"/>
<path d="m 136.344738778,461.010136434 147.25014378,-28.5838353985 -91.3883871071,97.5312710898 z" style="fill:#f6854c"/>
<path d="m 283.594882557,432.426301036 35.9594193084,11.0696954298 -28.4004699127,88.2949515703 z" style="fill:#e88952"/>
<path d="m 319.554301866,443.495996466 151.746305557,2.31540158799 -66.3049202783,53.7672374693 z" style="fill:#d38752"/>
<path d="m 471.300607422,445.811398054 76.6048374081,-27.7022305961 -47.1177886891,86.4767003149 z" style="fill:#ce9864"/>
<path d="m 547.905444831,418.109167458 72.3853265105,16.4605291328 -2.02258752268,88.2667193759 z" style="fill:#cda876"/>
<path d="m 620.290771341,434.56969659 145.12757824,-20.5970707539 -92.6482839515,110.443988547 z" style="fill:#c4b080"/>
<path d="m 765.418349581,413.972625837 100.784661711,-5.91037334068 -49.2641562505,114.23584085 z" style="fill:#b0b687"/>
<path d="m 866.203011292,408.062252496 71.0122081523,21.284472564 -31.3806406744,123.358057712 z" style="fill:#9fb589"/>
<path d="m 937.215219444,429.34672506 110.244600652,13.8540819583 -60.5158722487,65.8418526829 z" style="fill:#94bc91"/>
<path d="m 1047.4598201,443.200807018 99.9668329539,-26.4355783287 -62.1347349181,96.3015536277 z" style="fill:#8ac69c"/>
<path d="m 1147.42665305,416.765228689 114.446020296,23.6663429021 -90.5988252352,59.8076365739 z" style="fill:#7bcba3"/>
<path d="m 1261.87267335,440.431571591 75.9536559267,-20.4735332732 -18.0438074033,113.50907489 z" style="fill:#6bd1aa"/>
<path d="m 1337.82632927,419.958038318 105.589782968,31.143746524 -37.5898799335,93.7496421063 z" style="fill:#6ee5c0"/>
<path d="m 1443.41611224,451.101784842 129.74662933,4.27891657865 -100.259251511,60.9075077747 z" style="fill:#53debb"/>
<path d="m 1573.16274157,455.380701421 52.2365568989,-7.58640677886 -15.5756091912,103.952787429 z" style="fill:#48e7c6"/>
<path d="m 1625.39929847,447.794294642 109.954431179,-19.5404544633 -47.4386382947,79.6911414681 z" style="fill:#41f0d0"/>
<path d="m 1735.35372965,428.253840179 97.9714950034,2.71145674417 -25.2214863914,60.3888514871 z" style="fill:#31f5d7"/>
<path d="m 1833.32522465,430.965296923 132.906336317,19.4536230677 -49.5671503565,75.5931901793 z" style="fill:#30ffee"/>
<path d="m 1966.23156097,450.418919991 70.6240665323,-0.582188509033 -44.3813544422,50.1733218325 z" style="fill:#33fff4"/>
<path d="m 2036.8556275,449.836731482 143.520197829,-14.699944964 -78.7895908124,102.609199258 z" style="fill:#24ffe5"/>
<path d="m 2180.37582533,435.136786518 92.5753544677,-27.6139521394 -50.4978153886,123.532968486 z" style="fill:#26ffe7"/>
<path d="m 2272.9511798,407.522834378 61.74963254,45.071934741 -36.5325708067,101.972506868 z" style="fill:#2affeb"/>
<path d="m -8.80038831215,490.830469116 119.435924559,11.084268395 -42.853460886,105.858775146 z" style="fill:#ff763b"/>
<path d="m 110.635536247,501.914737511 81.5709592033,28.0428346146 -38.5044909646,102.601341152 z" style="fill:#ff854b"/>
<path d="m 192.20649545,529.957572126 98.9473365028,1.83337591023 -42.2409512753,43.2958103515 z" style="fill:#f18850"/>
<path d="m 291.153831953,531.790948036 113.841855191,-32.2123125129 -34.5177834988,87.5431930443 z" style="fill:#dd8953"/>
<path d="m 404.995687144,499.578635523 95.7919689973,5.00723224954 -39.8943145765,131.561124849 z" style="fill:#da9a65"/>
<path d="m 500.787656141,504.585867773 117.480527677,18.2505481938 -54.6999922585,78.7094636663 z" style="fill:#c69a68"/>
<path d="m 618.268183818,522.836415966 54.5018818108,1.58019841677 -19.8695752562,105.423766675 z" style="fill:#b59a69"/>
<path d="m 672.770065629,524.416614383 144.168789412,-2.11852103705 -54.5276856719,74.2230210666 z" style="fill:#bab384"/>
<path d="m 816.938855041,522.298093346 88.8957237284,30.4066894258 -76.6939575715,47.531669256 z" style="fill:#9fab7d"/>
<path d="m 905.83457877,552.704782772 81.1093690779,-43.6621230708 -38.078081674,86.3845603833 z" style="fill:#98b88c"/>
<path d="m 986.943947848,509.042659701 98.3479702844,4.02412261612 -24.9488053465,106.389580993 z" style="fill:#91c499"/>
<path d="m 1085.29191813,513.066782317 85.981929979,-12.8275741517 -11.3009045215,85.5310099304 z" style="fill:#83c89f"/>
<path d="m 1171.27384811,500.239208165 148.508673759,33.2279050431 -53.6464802737,98.5737339685 z" style="fill:#82ddb6"/>
<path d="m 1319.78252187,533.467113209 86.0437104379,11.3843137401 -53.3018699196,85.3840594737 z" style="fill:#6fdfb9"/>
<path d="m 1405.82623231,544.851426949 67.0772577527,-28.5632177529 -33.2979597436,100.324043137 z" style="fill:#5cdbb7"/>
<path d="m 1472.90349006,516.288209196 136.920199218,35.4588728753 -64.6966228647,85.2371923876 z" style="fill:#50e3c1"/>
<path d="m 1609.82368928,551.747082071 78.0914020756,-43.8021004241 -30.6671881655,82.7296224545 z" style="fill:#4ef7d7"/>
<path d="m 1687.91509135,507.944981647 120.188646907,-16.5908332369 -61.9989648898,100.326450553 z" style="fill:#37f3d4"/>
<path d="m 1808.10373826,491.35414841 108.560672352,34.65796176 -92.1171851492,82.4325017063 z" style="fill:#2ffee1"/>
<path d="m 1916.66441061,526.01211017 75.8098624466,-26.0020568558 -58.486075575,107.890637593 z" style="fill:#26ffe7"/>
<path d="m 1992.47427306,500.010053314 109.111961458,37.7359324617 -20.4409788139,69.0154393337 z" style="fill:#31fff2"/>
<path d="m 2101.58623452,537.745985776 120.867129892,-6.69018291183 -71.9646970293,47.1662443206 z" style="fill:#2affeb"/>
<path d="m 2222.45336441,531.055802864 75.714877122,23.511473123 -39.8830268572,34.663299187 z" style="fill:#22ffe3"/>
<path d="m 67.7820753609,607.773512657 85.9199291246,24.7854006205 -80.0630823253,54.6581896824 z" style="fill:#ff7c42"/>
<path d="m 153.702004486,632.558913278 95.2108761922,-57.4721548902 -64.9237849921,123.879574975 z" style="fill:#f17e45"/>
<path d="m 248.912880678,575.086758387 121.565022968,12.0350701799 -98.507276433,117.596257323 z" style="fill:#f0915a"/>
<path d="m 370.477903645,587.121828567 90.4154379196,49.0251640538 -72.1723812438,63.7212566207 z" style="fill:#d88e59"/>
<path d="m 460.893341565,636.146992621 102.674849995,-34.6011129885 -50.5851695861,112.051621751 z" style="fill:#ca9461"/>
<path d="m 563.56819156,601.545879633 89.3322988132,28.2945014255 -40.2990592837,73.5537981487 z" style="fill:#ba9866"/>
<path d="m 652.900490373,629.840381058 109.510678996,-33.3192666454 -81.0052415254,101.281475233 z" style="fill:#b7a676"/>
<path d="m 762.411169369,596.521114413 66.7294518288,3.71533761515 -18.2750724496,75.8523931692 z" style="fill:#a3a678"/>
<path d="m 829.140621198,600.236452028 119.725244975,-4.80923194352 -30.2665927017,75.9970863439 z" style="fill:#9ab083"/>
<path d="m 948.865866174,595.427220084 111.477246612,24.0291432253 -52.4112708771,54.6777111928 z" style="fill:#8eb98d"/>
<path d="m 1060.34311279,619.45636331 99.629830804,-33.6861452139 -73.9792421531,89.1228602872 z" style="fill:#8bc89f"/>
<path d="m 1159.97294359,585.770218096 106.163098006,46.2706290813 -59.7916424996,28.1403720008 z" style="fill:#81d4ac"/>
<path d="m 1266.1360416,632.040847177 86.388320792,-1.80536075482 -24.0554909205,46.8042834663 z" style="fill:#6fd6b0"/>
<path d="m 1352.52436239,630.235486422 87.0811679286,-13.6232340897 -65.087255929,67.4340089324 z" style="fill:#71e6c1"/>
<path d="m 1439.60553032,616.612252333 105.521536097,20.3720221261 -42.8376689032,39.5461388381 z" style="fill:#5ae5c2"/>
<path d="m 1545.12706641,636.984274459 112.120836775,-46.3096703572 -68.7054756379,89.8589767389 z" style="fill:#49e7c5"/>
<path d="m 1657.24790319,590.674604101 88.8568701824,1.00599486203 -35.0845650613,95.031122849 z" style="fill:#41f4d5"/>
<path d="m 1746.10477337,591.680598963 78.4424520925,16.7640129129 -24.5472254638,73.8757111512 z" style="fill:#31f5d7"/>
<path d="m 1824.54722546,608.444611876 109.440972021,-0.543920968593 -40.6058488009,72.9810731174 z" style="fill:#39fff2"/>
<path d="m 1933.98819748,607.900690908 147.15705822,-1.13926579809 -106.776228818,77.7308899195 z" style="fill:#35fff6"/>
<path d="m 2081.1452557,606.76142511 69.3434116761,-28.5393779249 -37.3003194672,105.363695218 z" style="fill:#2cffed"/>
<path d="m 2150.48866738,578.222047185 107.796547294,11.0085279893 -50.9429254434,121.762551403 z" style="fill:#32fff3"/>
<path d="m 2258.28521467,589.230575174 77.1537992615,22.0009570537 -33.6869479273,70.5266813851 z" style="fill:#35fff6"/>
<path d="m 12.9432693008,704.071735375 60.6956528594,-16.8546324147 0.540810886054,101.487490339 z" style="fill:#ff793e"/>
<path d="m 73.6389221602,687.21710296 110.350173525,11.7492304022 -24.6212671965,90.8605576004 z" style="fill:#fe8046"/>
<path d="m 183.989095686,698.966333362 87.9815315268,5.7517525278 -41.9622245985,78.2298355226 z" style="fill:#eb7f47"/>
<path d="m 271.970627212,704.71808589 116.750333109,-4.8498366482 -20.0057045188,70.8275470592 z" style="fill:#e08a54"/>
<path d="m 388.720960321,699.868249242 124.262061653,13.7292521415 -72.0353861549,84.3854590787 z" style="fill:#d69460"/>
<path d="m 512.983021974,713.597501383 99.6184091156,-10.2033221765 -53.1918636106,47.0690132779 z" style="fill:#c09462"/>
<path d="m 612.601431089,703.394179207 68.8044967546,-5.59158956112 -18.2374341277,60.5462785707 z" style="fill:#bca271"/>
<path d="m 681.405927844,697.802589646 129.459620905,-21.7137444487 -68.8282029642,94.4905947858 z" style="fill:#b7af7f"/>
<path d="m 810.865548749,676.088845197 107.733724723,-4.6645387688 -77.4987105365,98.1147307989 z" style="fill:#a3b183"/>
<path d="m 918.599273472,671.424306428 89.3325684365,2.70976807423 -48.8745258099,117.30825333 z" style="fill:#9bbd91"/>
<path d="m 1007.93184191,674.134074502 78.061859528,0.759003880532 -31.1673596191,85.1723852838 z" style="fill:#8dc096"/>
<path d="m 1085.99370144,674.893078383 120.35069766,-14.7118592051 -46.6420883268,95.2275823948 z" style="fill:#7dc49b"/>
<path d="m 1206.3443991,660.181219178 122.124472371,16.8585507106 -76.9301943538,73.0233851957 z" style="fill:#7ddab3"/>
<path d="m 1328.46887147,677.039769889 46.0494029202,7.0064913764 -40.2788889201,103.756669537 z" style="fill:#6ad7b1"/>
<path d="m 1374.51827439,684.046261265 127.771123123,-7.51584796818 -43.7060747765,110.620908613 z" style="fill:#6cedc9"/>
<path d="m 1502.28939751,676.530413297 86.2530300402,4.0031675436 -70.2374830305,86.7226906786 z" style="fill:#5ff1cf"/>
<path d="m 1588.54242755,680.53358084 122.477780759,6.1781409721 -49.4816738217,86.8319646219 z" style="fill:#48f1d1"/>
<path d="m 1711.02020831,686.711721812 88.97979169,-4.3913987849 -26.4980563134,80.0273787993 z" style="fill:#41ffe0"/>
<path d="m 1800.0,682.320323028 93.3823486836,-1.43855900245 -30.4649926135,117.691867307 z" style="fill:#2fffe2"/>
<path d="m 1893.38234868,680.881764025 80.9866782022,3.61055100405 -3.37917564938,75.3571954431 z" style="fill:#34fff5"/>
<path d="m 1974.36902689,684.492315029 138.819321027,-0.906572626847 -66.8416418133,121.831657808 z" style="fill:#22ffe3"/>
<path d="m 2113.18834791,683.585742402 94.1539413179,27.4073841748 -61.5871045105,83.2331669464 z" style="fill:#27ffe8"/>
<path d="m 2207.34228923,710.993126577 94.4097767775,-29.2349129642 -58.374053361,66.5106487097 z" style="fill:#27ffe8"/>
<path d="m 74.1797330463,788.704593299 85.1880954427,1.12229766346 -57.3545308316,99.2106103477 z" style="fill:#f9753b"/>
<path d="m 159.367828489,789.826890963 70.6405741248,-6.87896955004 -56.4502291162,91.1615600074 z" style="fill:#f9844c"/>
<path d="m 230.008402614,782.947921413 138.706853188,-12.2521251116 -46.7189684941,93.7914772373 z" style="fill:#e2854e"/>
<path d="m 368.715255802,770.695796301 72.2323800165,27.287164161 -19.9604284514,67.3095538916 z" style="fill:#db925d"/>
<path d="m 440.947635819,797.982960462 118.46193166,-47.5197679773 -79.3699269958,128.524620333 z" style="fill:#d29965"/>
<path d="m 559.409567479,750.463192485 103.758926237,7.8856757317 -58.5409881093,74.7501222823 z" style="fill:#c4a270"/>
<path d="m 663.168493716,758.348868217 78.8688520681,12.2305717663 -31.0431213297,97.5830245498 z" style="fill:#b6a776"/>
<path d="m 742.037345784,770.579439983 99.0632171511,-1.04040275567 -51.2778737786,81.3978827368 z" style="fill:#adaf80"/>
<path d="m 841.100562935,769.539037227 117.956753163,21.9032906051 -72.2576925293,66.6514895986 z" style="fill:#a7bd90"/>
<path d="m 959.057316098,791.442327832 95.7690257188,-31.3768641654 -27.0770589102,85.798905964 z" style="fill:#94c095"/>
<path d="m 1054.82634182,760.065463667 104.875968952,-4.65666209407 -83.8655631726,100.359910089 z" style="fill:#83c096"/>
<path d="m 1159.70231077,755.408801573 91.8363663441,-5.3456464885 -42.2636771135,132.02701994 z" style="fill:#7fd1a9"/>
<path d="m 1251.53867711,750.063155084 82.7007083539,37.7397757175 -26.2677588783,107.972988432 z" style="fill:#76dab4"/>
<path d="m 1334.23938547,787.802930802 124.343937267,-0.651608892283 -27.2942545315,69.9020859432 z" style="fill:#70eac5"/>
<path d="m 1458.58332273,787.151321909 59.7216217862,-19.8950503905 -26.4040684025,108.421292249 z" style="fill:#60e9c6"/>
<path d="m 1518.30494452,767.256271519 143.233589968,6.28741491544 -79.3868236886,85.2705404268 z" style="fill:#49e5c3"/>
<path d="m 1661.53853449,773.543686434 111.963409198,-11.1959846075 -90.4496029341,121.851841443 z" style="fill:#4dffe1"/>
<path d="m 1773.50194369,762.347701827 89.4154123836,36.2259295051 -77.8599102548,63.7261752602 z" style="fill:#33fbdd"/>
<path d="m 1862.91735607,798.573631332 108.072495166,-38.7241208598 -79.3178592349,80.5449201981 z" style="fill:#36fff4"/>
<path d="m 1970.98985124,759.849510472 75.3568548633,45.5678897383 -21.1169392748,37.8910194881 z" style="fill:#29ffea"/>
<path d="m 2046.3467061,805.41740021 99.4084786206,-11.191106687 -20.8776885824,53.0525722898 z" style="fill:#36fff7"/>
<path d="m 2145.75518472,794.226293523 97.622827927,-45.9574312008 -31.2511313501,105.629660164 z" style="fill:#32fff3"/>
<path d="m 2243.37801265,748.268862323 99.6464539238,46.8213056819 -73.4125094537,82.6001125376 z" style="fill:#36fff7"/>
<path d="m -8.95520574572,855.723618014 110.968503403,33.313883296 -28.3125241141,51.5142955595 z" style="fill:#ff7439"/>
<path d="m 102.013297657,889.03750131 71.5448758402,-14.9280198903 9.24307963191,68.4901132709 z" style="fill:#f1763c"/>
<path d="m 173.558173498,874.10948142 148.438113811,-9.62220788164 -65.1401708325,110.566017152 z" style="fill:#e57c45"/>
<path d="m 321.996287308,864.487273538 98.9909200592,0.805240815305 -52.0355247095,80.0605604334 z" style="fill:#dd8c56"/>
<path d="m 420.987207367,865.292514354 59.0524331155,13.6952984641 -19.2655646647,59.849943157 z" style="fill:#dd9d68"/>
<path d="m 480.039640483,878.987812818 124.587865124,-45.888822319 -39.4849543894,111.477516362 z" style="fill:#c29461"/>
<path d="m 604.627505607,833.098990499 106.366718848,35.0634740339 -50.308818443,77.7884969009 z" style="fill:#baa170"/>
<path d="m 710.994224455,868.162464533 78.8284647022,-17.2255445687 -59.2273417761,94.6283082393 z" style="fill:#aea676"/>
<path d="m 789.822689157,850.936919964 96.9769344124,7.15689746689 -24.2128420304,63.3807492186 z" style="fill:#a3af81"/>
<path d="m 886.799623569,858.093817431 140.949659338,-12.2294478 -97.7890639289,81.1138245022 z" style="fill:#9dbd91"/>
<path d="m 1027.74928291,845.864369631 48.0874646898,9.90434203079 -2.38821773815,82.2069648452 z" style="fill:#8ec399"/>
<path d="m 1075.8367476,855.768711662 133.438252403,26.321463363 -67.4948520504,45.2396658048 z" style="fill:#8bd1a8"/>
<path d="m 1209.275,882.090175025 98.6966265892,13.6857442095 -90.5216265892,56.8520249287 z" style="fill:#72cca4"/>
<path d="m 1307.97162659,895.775919234 123.317441614,-38.7225113815 -60.5222181389,117.844256525 z" style="fill:#74e6c1"/>
<path d="m 1431.2890682,857.053407853 60.6118079152,18.6241559151 -71.5825594834,58.403206147 z" style="fill:#64e5c1"/>
<path d="m 1491.90087612,875.677563768 90.2508346816,-16.8633369066 -25.8845238263,112.014949882 z" style="fill:#51e4c2"/>
<path d="m 1582.1517108,858.814226861 100.900629953,25.3853164085 -31.3694324938,84.4402034086 z" style="fill:#42e8c7"/>
<path d="m 1683.05234075,884.19954327 102.005105063,-21.8997366775 -49.3288350139,88.8281541228 z" style="fill:#39f2d3"/>
<path d="m 1785.05744582,862.299806592 106.614546186,-21.9053759219 -47.5990784438,136.005758786 z" style="fill:#38ffe8"/>
<path d="m 1891.671992,840.39443067 133.557774823,2.91398902827 -58.7822722396,109.60661655 z" style="fill:#36fff7"/>
<path d="m 2025.22976682,843.308419699 99.647729313,3.9704461147 -61.927496138,82.9190203916 z" style="fill:#35fff6"/>
<path d="m 2124.87749614,847.278865813 87.2493851594,6.61965667384 -48.3042963367,111.619190681 z" style="fill:#27ffe8"/>
<path d="m 2212.1268813,853.898522487 57.4850758202,23.791758055 -37.5298811952,79.7387569074 z" style="fill:#28ffe9"/>
<path d="m 73.7007735434,940.55179687 109.100479586,2.04779782108 -105.676445517,93.4159912183 z" style="fill:#f9753b"/>
<path d="m 182.80125313,942.599594691 74.0548633462,32.4536959993 -42.8106792742,51.5306253909 z" style="fill:#f2844b"/>
<path d="m 256.856116476,975.05329069 112.095566182,-29.7002159031 -44.5449125546,96.0127254515 z" style="fill:#e68b54"/>
<path d="m 368.951682658,945.353074787 91.8223931603,-6.51531881235 -79.782501042,92.3241307633 z" style="fill:#d88e58"/>
<path d="m 460.774075818,938.837755975 104.368475399,5.73875088634 -88.693462768,87.9008624627 z" style="fill:#cf9764"/>
<path d="m 565.142551218,944.576506861 95.542854794,1.37445457244 -74.1872373327,120.962379734 z" style="fill:#cca977"/>
<path d="m 660.685406012,945.950961434 69.9099413692,-0.385733230337 -14.1638426833,124.568422088 z" style="fill:#c0af7f"/>
<path d="m 730.595347381,945.565228203 131.991434158,-24.0906615538 -80.2031448462,109.163843415 z" style="fill:#a7a97a"/>
<path d="m 862.586781539,921.474566649 67.3734374394,5.50362748355 -13.9636006799,99.7543624592 z" style="fill:#9fb588"/>
<path d="m 929.960218978,926.978194133 143.488310881,10.9974823739 -88.4085896168,113.369225562 z" style="fill:#a0c99d"/>
<path d="m 1073.44852986,937.975676507 68.3316180909,-10.6458356774 -47.1136278535,99.3357524623 z" style="fill:#8fcca3"/>
<path d="m 1141.78014795,927.329840829 75.6698520504,25.2981033335 -17.45,57.5525403784 z" style="fill:#88d6ae"/>
<path d="m 1217.45,952.627944163 153.316850064,22.2697202143 -39.9738369219,73.7471890562 z" style="fill:#79dfb8"/>
<path d="m 1370.76685006,974.897664377 49.5514665706,-40.8168944625 -35.1933166345,79.385458864 z" style="fill:#6ee4c0"/>
<path d="m 1420.31831663,934.080769915 135.948870339,36.7484068284 -30.4159834567,72.9595724619 z" style="fill:#54dfbc"/>
<path d="m 1556.26718697,970.829176743 95.4157212853,-2.18943006486 -47.8086472206,81.8424089126 z" style="fill:#50efce"/>
<path d="m 1651.68290826,968.639746678 84.0457025429,-17.5117859633 -50.5279752148,103.972899151 z" style="fill:#3dedcd"/>
<path d="m 1735.7286108,951.127960715 108.344302756,25.2722287417 -30.431228769,62.3539169547 z" style="fill:#3cffe3"/>
<path d="m 1844.07291356,976.400189457 122.374581028,-23.4851532079 -44.9092430947,88.9600130444 z" style="fill:#37fff6"/>
<path d="m 1966.44749459,952.915036249 96.5025054147,-22.7171500439 -93.0647666328,119.401944056 z" style="fill:#2cffed"/>
<path d="m 2062.95,930.197886205 100.872584961,35.3198269632 -77.3270935794,93.7340287505 z" style="fill:#26ffe7"/>
<path d="m 2163.82258496,965.517713168 68.2594909617,-8.08867571853 -21.1578469878,91.6376670053 z" style="fill:#2dffee"/>
<path d="m 2232.08207592,957.42903745 103.517185396,-24.6220096488 -19.5527239313,84.3372927942 z" style="fill:#35fff6"/>
<path d="m -17.0221665006,1037.1404253 94.1469741127,-1.12483939278 -7.07405582623,68.315640183 z" style="fill:#ff7b40"/>
<path d="m 77.1248076121,1036.01558591 136.920629589,-9.431669828 -71.3718087579,108.626436807 z" style="fill:#fb7e44"/>
<path d="m 214.045437202,1026.58391608 110.361332902,14.7818841575 -62.6164645632,53.7524286494 z" style="fill:#f08b53"/>
<path d="m 324.406770103,1041.36580024 56.584804673,-10.2039135006 -46.6744841572,120.771882488 z" style="fill:#eb955f"/>
<path d="m 380.991574776,1031.16188674 95.4575136733,1.31548258579 -30.8390958314,81.9192953714 z" style="fill:#df9a65"/>
<path d="m 476.44908845,1032.47736932 110.049080229,34.4359718435 -57.8351628358,59.664788007 z" style="fill:#c89764"/>
<path d="m 586.498168679,1066.91334117 129.933336019,3.22030912405 -49.1257318775,64.901017259 z" style="fill:#b79e6d"/>
<path d="m 716.431504698,1070.13365029 65.952131995,-39.4952402271 -25.426618642,107.745407653 z" style="fill:#afa879"/>
<path d="m 782.383636693,1030.63841006 133.612981606,-3.90585347205 -95.9399201267,90.5143646939 z" style="fill:#aeb88a"/>
<path d="m 915.996618298,1026.73255659 69.0433219437,24.6123454768 -40.639940242,84.1876073731 z" style="fill:#a4c498"/>
<path d="m 985.039940242,1051.34490207 109.626579854,-24.6793087773 -69.4152574377,123.91616897 z" style="fill:#97c89d"/>
<path d="m 1094.6665201,1026.66559329 105.333479904,-16.4851087504 -59.270949725,120.581991788 z" style="fill:#8cd2a9"/>
<path d="m 1200.0,1010.18048454 130.793013142,38.4643688921 -67.8607606669,77.8659221197 z" style="fill:#78d5ae"/>
<path d="m 1330.79301314,1048.64485343 54.331986858,-35.1786246547 -16.296105868,134.026961093 z" style="fill:#62d2ad"/>
<path d="m 1385.125,1013.46622878 140.726203517,30.3225204263 -108.613422161,93.3252122666 z" style="fill:#5edebb"/>
<path d="m 1525.85120352,1043.78874921 78.0230575215,6.69340638587 -35.1960683072,70.6938728385 z" style="fill:#54ecca"/>
<path d="m 1603.87426104,1050.48215559 81.3263745486,4.6187042755 -21.5040365893,81.0532927004 z" style="fill:#4af3d3"/>
<path d="m 1685.20063559,1055.10085987 128.441049202,-16.3467534551 -58.2759826379,53.201208426 z" style="fill:#45ffe2"/>
<path d="m 1813.64168479,1038.75410641 107.896566702,3.12094288188 -68.1323109231,101.480020851 z" style="fill:#3affef"/>
<path d="m 1921.53825149,1041.87504929 48.3469818765,7.72478096757 -22.7388604144,103.383642403 z" style="fill:#2dffee"/>
<path d="m 1969.88523337,1049.59983026 116.610258014,9.65191165774 -9.12721267137,53.2328815815 z" style="fill:#2dffee"/>
<path d="m 2086.49549138,1059.25174192 124.428737553,-10.1850374637 -93.717410737,67.9794138837 z" style="fill:#2dffee"/>
<path d="m 2210.92422893,1049.06670445 105.122308453,-31.9223838599 -59.094466982,93.7799412281 z" style="fill:#2dffee"/>
<path d="m 70.0507517858,1104.33122609 72.6228766578,30.8791267955 -38.8446861261,98.9402233644 z" style="fill:#ff7d43"/>
<path d="m 142.673628444,1135.21035289 119.116677096,-40.0921239997 -82.4606897463,132.335249606 z" style="fill:#f38047"/>
<path d="m 261.79030554,1095.11822889 72.5267850789,56.8155403381 -25.4144469799,74.7490040875 z" style="fill:#e4864f"/>
<path d="m 334.317090619,1151.93376923 111.292901999,-37.537104531 -41.358417691,116.454494827 z" style="fill:#d28651"/>
<path d="m 445.609992618,1114.3966647 83.0530132251,12.1814644792 -16.4218708394,66.2675251026 z" style="fill:#d49c68"/>
<path d="m 528.663005843,1126.57812917 138.642766977,8.45653837601 -60.2471709168,110.609008793 z" style="fill:#c5a16f"/>
<path d="m 667.30577282,1135.03466755 89.6512452305,3.34915016685 -86.0025935948,74.558739988 z" style="fill:#b3a272"/>
<path d="m 756.957018051,1138.38381772 63.099680121,-21.1368964312 -1.65925164733,67.9133078751 z" style="fill:#b7b98a"/>
<path d="m 820.056698172,1117.24692129 124.343301828,18.2855881561 -16.4857201593,89.9196983177 z" style="fill:#a4ba8d"/>
<path d="m 944.4,1135.53250944 80.8512626585,15.0492528191 -58.052515788,51.8254535649 z" style="fill:#99bf93"/>
<path d="m 1025.25126266,1150.58176226 115.477787617,-19.8192859323 -29.334164869,114.766239115 z" style="fill:#95d1a7"/>
<path d="m 1140.72905027,1130.76247633 122.2032022,-4.25170077591 -48.0403349094,80.7970913124 z" style="fill:#80d2aa"/>
<path d="m 1262.93225248,1126.51077555 105.896641657,20.982414319 -67.1619939257,96.748726108 z" style="fill:#6dd3ad"/>
<path d="m 1368.82889413,1147.49318987 48.4088872235,-10.3792284005 -1.4160173883,99.6849838253 z" style="fill:#62dab5"/>
<path d="m 1417.23778136,1137.11396147 151.440411375,-15.9379330422 -72.8717962215,115.042644104 z" style="fill:#59e3bf"/>
<path d="m 1568.67819273,1121.17602843 95.0184062665,14.9781241374 -84.2380509908,55.7399607379 z" style="fill:#47e6c5"/>
<path d="m 1663.696599,1136.15415257 91.6691031536,-44.1988377295 -64.3615280483,111.164800046 z" style="fill:#4afdde"/>
<path d="m 1755.36570215,1091.95531484 98.0402384166,51.399755307 -60.4918987793,99.7731521946 z" style="fill:#3fffe7"/>
<path d="m 1853.40594057,1143.35507014 93.7404323853,9.62840251901 -31.2135945273,47.445882923 z" style="fill:#34fff2"/>
<path d="m 1947.14637295,1152.98347266 130.221905757,-40.4988491633 -67.0259488547,92.1574372484 z" style="fill:#29ffea"/>
<path d="m 2077.36827871,1112.4846235 39.8385394877,4.5614948385 -27.1897962246,104.698724575 z" style="fill:#30fff1"/>
<path d="m 2117.2068182,1117.04611834 139.745252208,-6.12185651552 -43.5160800567,84.9192371981 z" style="fill:#27ffe8"/>
<path d="m 2256.95207041,1110.92426182 70.2827129014,26.5082203651 -28.4549637055,88.9498088834 z" style="fill:#34fff5"/>
<path d="m -2.87392453483,1191.98652968 106.702866852,42.1640465734 -66.854115927,74.3508719864 z" style="fill:#ff7d42"/>
<path d="m 103.828942318,1234.15057625 75.5006734762,-6.69709775785 -16.7775625978,72.682789541 z" style="fill:#ff834a"/>
<path d="m 179.329615794,1227.45347849 129.573027845,-0.770705180645 -70.4207815095,65.705332363 z" style="fill:#f68c54"/>
<path d="m 308.902643639,1226.68277331 95.348931288,4.16838620901 -57.4710515957,98.8182205313 z" style="fill:#d8844e"/>
<path d="m 404.251574927,1230.85115952 107.989560077,-38.0055052457 -64.6279536853,89.2093540207 z" style="fill:#d59560"/>
<path d="m 512.241135004,1192.84565428 94.8174668995,52.7980220661 -38.5797497312,67.8316909299 z" style="fill:#d2a674"/>
<path d="m 607.058601903,1245.64367634 63.8958225524,-32.7011186379 -20.7039824233,100.443362397 z" style="fill:#b79b69"/>
<path d="m 670.954424456,1212.94255771 147.443022068,-27.7823285441 -46.0509130068,101.490990718 z" style="fill:#b6b080"/>
<path d="m 818.397446524,1185.16022916 109.516833317,40.2919785987 -110.063535327,78.6778397539 z" style="fill:#a8b688"/>
<path d="m 927.914279841,1225.45220776 39.2844670297,-23.0449919336 6.57460490655,75.9650304372 z" style="fill:#a2c498"/>
<path d="m 967.19874687,1202.40721583 144.196138536,43.121499618 -87.5449962309,55.7972284796 z" style="fill:#8fc095"/>
<path d="m 1111.39488541,1245.52871544 103.49703216,-38.2208485787 -39.1247262948,110.451199097 z" style="fill:#7fcaa1"/>
<path d="m 1214.89191757,1207.30786687 86.7749826406,36.9340491146 -76.0654157197,75.268975065 z" style="fill:#72cca5"/>
<path d="m 1301.66690021,1244.24191598 114.154863761,-7.44297068312 -37.1480377821,74.4104350321 z" style="fill:#75e6c1"/>
<path d="m 1415.82176397,1236.7989453 79.9846325422,-0.58027276357 -36.4658370588,48.4362329029 z" style="fill:#61e4c0"/>
<path d="m 1495.80639651,1236.21867253 83.6521514972,-44.3245592287 -37.8744012038,94.666976905 z" style="fill:#54e7c5"/>
<path d="m 1579.45854801,1191.8941133 111.545626096,11.2260015791 -46.0946751151,86.7344838679 z" style="fill:#4cf2d1"/>
<path d="m 1691.0041741,1203.12011488 101.909867686,40.0081074551 -16.111676708,53.0928412526 z" style="fill:#44ffe1"/>
<path d="m 1792.91404179,1243.12822234 123.018736637,-42.6988667526 -41.1104396868,79.2154136176 z" style="fill:#3bfff0"/>
<path d="m 1915.93277843,1200.42935559 94.4095514297,4.21270516206 -86.588331853,94.8541705972 z" style="fill:#23ffe4"/>
<path d="m 2010.34232986,1204.64206075 79.6746921178,17.1027821647 -53.1545761132,87.1931198944 z" style="fill:#23ffe4"/>
<path d="m 2090.01702197,1221.74484291 123.418968376,-25.901343892 -97.243394269,112.253273234 z" style="fill:#26ffe7"/>
<path d="m 2213.43599035,1195.84349902 85.3438292526,30.5387920504 -23.8846644463,78.4033140436 z" style="fill:#33fff4"/>
<path d="m 36.9748263906,1308.50144824 125.577226805,-8.36518020329 -54.8908019855,106.553492725 z" style="fill:#f46f34"/>
<path d="m 162.552053196,1300.13626804 75.9298089337,-7.74816235862 -25.5273000477,64.1561175525 z" style="fill:#fa8950"/>
<path d="m 238.48186213,1292.38810568 108.298661202,37.2812743773 -25.1437848225,50.1737193908 z" style="fill:#e88a53"/>
<path d="m 346.780523331,1329.66938005 100.832657987,-47.6143717563 -39.2131813185,89.0364109738 z" style="fill:#db905b"/>
<path d="m 447.613181319,1282.0550083 120.865670854,31.4203589753 -64.1534392137,99.4748613995 z" style="fill:#d6a06c"/>
<path d="m 568.478852172,1313.47536727 81.7715898603,-0.0894471708925 -52.0197036102,92.4774783242 z" style="fill:#c19e6c"/>
<path d="m 650.250442032,1313.3859201 122.096091485,-26.7347002228 -93.5423539129,92.91162248 z" style="fill:#bbaa7a"/>
<path d="m 772.346533517,1286.65121988 45.5042109962,17.4788276344 16.4283608531,80.3135458045 z" style="fill:#a3a879"/>
<path d="m 817.850744514,1304.13004751 155.922607263,-25.7578012503 -59.6578008504,136.209568082 z" style="fill:#a8be91"/>
<path d="m 973.773351777,1278.37224626 50.0765373981,22.9536976603 -14.0082538841,66.5599220764 z" style="fill:#92bc91"/>
<path d="m 1023.84988918,1301.32594392 151.917302096,16.4331220384 -56.6914310689,60.9385711834 z" style="fill:#87c69c"/>
<path d="m 1175.76719127,1317.75906596 49.8342932158,1.751825083 -4.34856688065,76.0401532477 z" style="fill:#82d4ac"/>
<path d="m 1225.60148449,1319.51089105 153.072241698,-8.30151071608 -90.0932043017,79.7562558239 z" style="fill:#79ddb7"/>
<path d="m 1378.67372619,1311.20938033 80.6668332655,-26.5544748927 -86.4910071941,98.1321135715 z" style="fill:#64dcb8"/>
<path d="m 1459.34055945,1284.65490544 82.2435873523,1.90618477331 -29.0754073523,95.7278492113 z" style="fill:#51ddba"/>
<path d="m 1541.5841468,1286.56109021 103.325352185,3.29350854199 -21.1507111395,119.544835151 z" style="fill:#56f5d4"/>
<path d="m 1644.90949899,1289.85459875 131.892866093,6.3664648399 -65.2963163172,88.4129336348 z" style="fill:#3befcf"/>
<path d="m 1776.80236508,1296.22106359 98.0199736584,-16.5762943877 -89.6139778995,137.716649397 z" style="fill:#3dffe7"/>
<path d="m 1874.82233874,1279.6447692 48.9316592635,19.8514621417 -40.0148899727,62.9214542539 z" style="fill:#25fde1"/>
<path d="m 1923.753998,1299.49623135 113.108447858,9.44173146187 -33.3300313839,86.9615597928 z" style="fill:#32fff3"/>
<path d="m 2036.86244586,1308.93796281 79.3301502202,-0.841190552263 -27.6331566733,55.0905093903 z" style="fill:#34fff5"/>
<path d="m 2116.19259608,1308.09677226 158.702559075,-3.3111671401 -86.0116720536,79.4901042938 z" style="fill:#22ffe3"/>
<path d="m 2274.89515516,1304.78560512 93.1277236958,-3.21454900101 -44.4518777437,97.1352092066 z" style="fill:#25ffe6"/>
<path d="m 57.8741482187,77.2184959502 79.8777175157,9.17025244935 -47.417949521,-66.5703396787 z" style="fill:#ff793f"/>
<path d="m 137.751865734,86.3887483996 101.747834832,6.5230083965 -70.8343097635,-78.9606899386 z" style="fill:#fb854c"/>
<path d="m 239.499700566,92.9117567961 100.72681037,2.18674800778 -48.2765109361,-81.1554958029 z" style="fill:#ec8c54"/>
<path d="m 340.226510936,95.0985048039 118.143450265,-18.8320057128 -57.2709061199,-97.2377193209 z" style="fill:#da8f5a"/>
<path d="m 458.369961201,76.2664990911 95.5174352553,-14.2080139764 -70.1941828752,-69.3187341936 z" style="fill:#cd9562"/>
<path d="m 553.887396456,62.0584851147 101.321689118,-2.25436684433 -32.1653560128,-58.1927437268 z" style="fill:#c3a16f"/>
<path d="m 655.209085574,59.8041182703 78.7003863941,30.2185694221 -22.0787885857,-67.7724083524 z" style="fill:#b09f6f"/>
<path d="m 733.909471968,90.0226876924 125.158997038,28.2053624824 -74.6480953748,-143.160664202 z" style="fill:#abad7e"/>
<path d="m 859.068469006,118.228050175 73.2657250242,-61.0263482105 -25.3395495283,-66.8290041974 z" style="fill:#aac093"/>
<path d="m 932.334194031,57.2017019644 139.352586916,30.1581574925 -79.4353030224,-64.8565173576 z" style="fill:#9fc89d"/>
<path d="m 1071.68678095,87.3598594569 92.1716535443,13.5935099383 -76.135497307,-98.1189861105 z" style="fill:#93d2a8"/>
<path d="m 1163.85843449,100.953369395 93.7773170282,-0.575568629311 -46.2791619671,-81.4772617854 z" style="fill:#76c9a1"/>
<path d="m 1257.63575152,100.377800766 97.0390688678,10.274605607 -69.675248149,-101.639240062 z" style="fill:#71d5af"/>
<path d="m 1354.67482039,110.652406373 66.7824012162,-27.0498328902 -28.9759148632,-111.662718736 z" style="fill:#6adfba"/>
<path d="m 1421.4572216,83.6025734827 112.165580506,17.2364478249 -13.656846055,-82.2204660778 z" style="fill:#56dfbc"/>
<path d="m 1533.62280211,100.839021308 127.733787443,-33.1370199096 -30.9299260237,-59.5492014772 z" style="fill:#49eac8"/>
<path d="m 1661.35658955,67.702001398 81.0388966019,0.0787067327758 -42.6947949241,-84.9280961027 z" style="fill:#4afcdc"/>
<path d="m 1742.39548615,67.7807081307 132.260990379,36.0864829819 -95.4253948754,-112.258378805 z" style="fill:#31f7d9"/>
<path d="m 1874.65647653,103.867191113 98.3648689995,-27.5144141397 -59.1109648465,-54.0915144488 z" style="fill:#2ffff0"/>
<path d="m 1973.02134553,76.3527769729 99.0286544674,10.2497634055 -69.3656031234,-55.9197436772 z" style="fill:#2bffec"/>
<path d="m 2072.05,86.6025403784 93.1157385834,20.1256148532 -82.3872880944,-86.9170287508 z" style="fill:#31fff2"/>
<path d="m 2165.16573858,106.728155232 112.614914577,-11.632216831 -90.6375628557,-102.222639818 z" style="fill:#33fff4"/>
<path d="m 2277.78065316,95.0959384006 56.4326886026,-1.7923591686 -57.4278117202,-86.6469370891 z" style="fill:#2ffff0"/>
<path d="m 6.79399993394,147.849527817 78.2062720886,17.0410679529 -27.1261238039,-87.6720998194 z" style="fill:#fd6d32"/>
<path d="m 85.0002720226,164.89059577 110.19696792,30.9096945642 -57.4453742078,-109.411541934 z" style="fill:#fd8046"/>
<path d="m 195.197239942,195.800290334 110.392793758,-46.8083056869 -66.090333134,-56.0802278509 z" style="fill:#ee854d"/>
<path d="m 305.5900337,148.991984647 79.3966273431,25.2629310398 -44.7601501075,-79.1564108829 z" style="fill:#dc8650"/>
<path d="m 384.986661044,174.254915687 122.820441401,-10.0308789345 -49.437141244,-87.9575376612 z" style="fill:#d4925e"/>
<path d="m 507.807102445,164.224036752 93.823162592,40.0883540123 -47.7428685807,-142.25390565 z" style="fill:#cb9e6b"/>
<path d="m 601.630265037,204.312390764 126.654482849,-41.4021163217 -73.0756623119,-103.106156172 z" style="fill:#b79f6e"/>
<path d="m 728.284747886,162.910274443 63.2766075387,-7.00697907716 -57.6518834564,-65.8806076732 z" style="fill:#aea778"/>
<path d="m 791.561355424,155.903295366 120.149298243,30.7733513982 -52.6421846611,-68.448596589 z" style="fill:#a9b789"/>
<path d="m 911.710653667,186.676646764 107.814304919,-20.1945483965 -87.1907645555,-109.280396403 z" style="fill:#97b88b"/>
<path d="m 1019.52495859,166.482098367 92.5389363883,8.85017256596 -40.3771140281,-87.9724114764 z" style="fill:#94cba0"/>
<path d="m 1112.06389497,175.332270933 56.2073038914,-4.90310058293 -4.41276437512,-69.4758009552 z" style="fill:#83caa1"/>
<path d="m 1168.27119887,170.42917035 107.365421135,18.5976743737 -18.0008684823,-88.6490439582 z" style="fill:#7ed6ae"/>
<path d="m 1275.63662,189.026844724 143.535072973,-19.8968331072 -64.4968725877,-58.4776052439 z" style="fill:#75e3be"/>
<path d="m 1419.17169297,169.130011617 71.3572765896,-4.75680962278 -69.0717479611,-80.7706285114 z" style="fill:#68e9c5"/>
<path d="m 1490.52896956,164.373201994 105.206451836,19.9414858381 -62.1126192912,-83.4756665247 z" style="fill:#5ef1cf"/>
<path d="m 1595.7354214,184.314687832 97.5846515923,-2.55969039868 -31.9634834409,-114.052996036 z" style="fill:#4ff7d6"/>
<path d="m 1693.32007299,181.754997434 121.404036305,-19.2476082684 -72.328623144,-94.7266810344 z" style="fill:#3bf7d8"/>
<path d="m 1814.7241093,162.507389165 80.8432274368,-20.8423463977 -20.9108602013,-37.7978516549 z" style="fill:#2afcdf"/>
<path d="m 1895.56733673,141.665042767 91.0230150765,38.3725950105 -13.5690062784,-103.684860805 z" style="fill:#2ffff0"/>
<path d="m 1986.59035181,180.037637778 123.293474368,-15.7319940857 -37.8338261788,-77.7031033139 z" style="fill:#29ffea"/>
<path d="m 2109.88382618,164.305643692 78.0854054295,20.1183100876 -22.8034930249,-77.6957985483 z" style="fill:#25ffe6"/>
<path d="m 2187.96923161,184.42395378 97.1555106668,-7.23305972845 -7.34408911442,-82.0949556508 z" style="fill:#2dffee"/>
<path d="m 50.9038969646,285.691843555 90.9671399583,-5.7643327757 -56.8707649003,-115.03691501 z" style="fill:#ff7f44"/>
<path d="m 141.871036923,279.927510779 129.030670164,6.63307544085 -75.7044671452,-90.7602958864 z" style="fill:#f5844b"/>
<path d="m 270.901707087,286.56058622 80.505883829,-38.2168731364 -45.8175572159,-99.3517284369 z" style="fill:#dd8049"/>
<path d="m 351.407590916,248.343713084 88.8065332729,25.9720655712 -55.2274631457,-100.060862968 z" style="fill:#d78b55"/>
<path d="m 440.214124189,274.315778655 106.807809564,2.38129544445 -39.214831308,-112.473037347 z" style="fill:#d9a16e"/>
<path d="m 547.021933753,276.697074099 93.3307587934,16.7547063937 -38.7224275094,-89.1393897287 z" style="fill:#caa573"/>
<path d="m 640.352692546,293.451780493 101.259866314,-46.5596861042 -13.3278109751,-83.9818199462 z" style="fill:#b7a776"/>
<path d="m 741.612558861,246.892094389 94.8622053155,25.0937037821 -44.913408752,-116.082502805 z" style="fill:#b4b486"/>
<path d="m 836.474764176,271.985798171 89.6984537169,12.4951781159 -14.4625642258,-97.8043295231 z" style="fill:#9db284"/>
<path d="m 926.173217893,284.480976287 123.826782107,-59.3233551516 -30.4750414139,-58.675522768 z" style="fill:#90b98e"/>
<path d="m 1050.0,225.157621135 87.5733932537,14.7632721451 -25.5094982793,-64.5886223472 z" style="fill:#93d0a6"/>
<path d="m 1137.57339325,239.92089328 97.1744323386,13.7244493932 -66.4766267266,-83.2161723233 z" style="fill:#87d4ab"/>
<path d="m 1234.74782559,253.645342674 99.0279788402,-2.83093999388 -58.1391844314,-61.7875579557 z" style="fill:#7fe0b9"/>
<path d="m 1333.77580443,250.81440268 121.34907727,20.5038912219 -35.9531887284,-102.188282285 z" style="fill:#69e1bd"/>
<path d="m 1455.1248817,271.318293902 110.983953233,-18.3484675149 -75.5798653714,-88.5966243927 z" style="fill:#61edca"/>
<path d="m 1566.10883494,252.969826387 98.8530211407,-18.0629153368 -69.2264346757,-50.5922232177 z" style="fill:#4cedcc"/>
<path d="m 1664.96185608,234.90691105 88.8670862414,3.18569913148 -60.5088693248,-56.3376127479 z" style="fill:#4bfedf"/>
<path d="m 1753.82894232,238.092610181 91.6685334297,36.4421041957 -30.7733664496,-112.027325212 z" style="fill:#35fbdd"/>
<path d="m 1845.49747575,274.534714377 113.811801868,-24.7100712689 -63.7419408804,-108.159600341 z" style="fill:#2bffe8"/>
<path d="m 1959.30927761,249.824643108 99.395616897,4.11145254066 -72.1145427009,-73.8984578709 z" style="fill:#2affeb"/>
<path d="m 2058.70489451,253.936095649 62.2351703089,24.7432680497 -11.0562386418,-114.373720006 z" style="fill:#32fff3"/>
<path d="m 2120.94006482,278.679363699 109.248808698,-1.65019305227 -42.2196419108,-92.6052168664 z" style="fill:#32fff3"/>
<path d="m 2230.18887352,277.029170646 125.676771939,-33.3372779575 -70.7409031829,-66.5009986374 z" style="fill:#30fff1"/>
<path d="m -24.3389803597,361.618844397 129.036788587,-4.65723284772 -53.7939112629,-71.2697679944 z" style="fill:#ff793e"/>
<path d="m 104.697808228,356.96161155 119.936759251,7.34661089653 -82.7635305558,-84.3807116667 z" style="fill:#f37940"/>
<path d="m 224.634567479,364.308222446 66.4102267756,-7.59627516226 -20.143087167,-70.1513610635 z" style="fill:#ed8750"/>
<path d="m 291.044794254,356.711947284 100.978785962,12.8634193321 -40.6159892995,-121.231653532 z" style="fill:#e28c56"/>
<path d="m 392.023580216,369.575366616 100.101862082,8.4179207881 -51.911318109,-103.677508749 z" style="fill:#d28f5a"/>
<path d="m 492.125442298,377.993287404 118.17916904,-20.1386955779 -63.2826775849,-81.1575177266 z" style="fill:#cea06d"/>
<path d="m 610.304611338,357.854591826 72.8178820876,-17.2558218694 -42.7698008791,-47.1469894635 z" style="fill:#b79c6b"/>
<path d="m 683.122493426,340.598769957 106.181857423,11.0280082039 -47.6917919883,-104.734683772 z" style="fill:#b1a778"/>
<path d="m 789.304350849,351.626778161 86.7663857706,-26.7626221715 -39.5959724433,-52.878357818 z" style="fill:#a3ac7e"/>
<path d="m 876.07073662,324.864155989 149.033369772,19.3496808075 -98.9308884987,-59.7328605096 z" style="fill:#99b88b"/>
<path d="m 1025.10410639,344.213836797 71.4243144062,16.1200683893 -46.5284207981,-135.176284051 z" style="fill:#99cea3"/>
<path d="m 1096.5284208,360.333905186 93.6882942038,-6.55150963845 -52.6433217482,-113.861502267 z" style="fill:#86cba2"/>
<path d="m 1190.216715,353.782395547 131.35341033,-17.430548663 -86.8222997391,-82.7065042107 z" style="fill:#81dbb4"/>
<path d="m 1321.57012533,336.351846884 66.8825412119,27.1779405027 -54.6768621108,-112.715384707 z" style="fill:#63d1ab"/>
<path d="m 1388.45266654,363.529787387 128.424840031,-11.3082343162 -61.7526248717,-80.9032591692 z" style="fill:#66e8c5"/>
<path d="m 1516.87750657,352.221553071 101.973424533,-15.8346094225 -52.7420961721,-83.4171172615 z" style="fill:#4ce4c3"/>
<path d="m 1618.85093111,336.386943648 95.0128218548,8.07479445204 -48.9018968862,-109.55482705 z" style="fill:#3feaca"/>
<path d="m 1713.86375296,344.4617381 81.122497459,-12.6125626508 -41.1573081038,-93.7565652681 z" style="fill:#3cf8da"/>
<path d="m 1794.98625042,331.84917545 100.173583526,3.68979511828 -49.6623582001,-61.0042561907 z" style="fill:#2af9db"/>
<path d="m 1895.15983395,335.538970568 101.84831703,-2.0879309157 -37.6988733624,-83.6263965439 z" style="fill:#2dffee"/>
<path d="m 1997.00815098,333.451039652 132.798917892,8.77001152275 -71.1021743573,-88.284955526 z" style="fill:#28ffe9"/>
<path d="m 2129.80706887,342.221051175 84.0016222547,-24.1229021195 -92.8686263032,-39.4187853567 z" style="fill:#2bffec"/>
<path d="m 2213.80869112,318.098149055 87.9108020969,44.6718976372 -71.5306197016,-85.7408760463 z" style="fill:#22ffe3"/>
<path d="m 29.8663252453,417.282551198 106.478413532,43.7275852368 -31.64693055,-104.048524885 z" style="fill:#f46d32"/>
<path d="m 136.344738778,461.010136434 147.25014378,-28.5838353985 -58.9603150785,-68.1180785898 z" style="fill:#ef8047"/>
<path d="m 283.594882557,432.426301036 35.9594193084,11.0696954298 -28.5095076114,-86.7840491819 z" style="fill:#e1824b"/>
<path d="m 319.554301866,443.495996466 151.746305557,2.31540158799 -79.2770272066,-76.2360314378 z" style="fill:#e49862"/>
<path d="m 471.300607422,445.811398054 76.6048374081,-27.7022305961 -55.7800025323,-40.1158800536 z" style="fill:#d7a06c"/>
<path d="m 547.905444831,418.109167458 72.3853265105,16.4605291328 -9.98616000313,-76.7151047643 z" style="fill:#bf9a68"/>
<path d="m 620.290771341,434.56969659 145.12757824,-20.5970707539 -82.2958561552,-73.3738558798 z" style="fill:#b3a070"/>
<path d="m 765.418349581,413.972625837 100.784661711,-5.91037334068 -76.8986604427,-56.4354743353 z" style="fill:#b0b485"/>
<path d="m 866.203011292,408.062252496 71.0122081523,21.284472564 -61.1444828244,-104.482569071 z" style="fill:#a0b588"/>
<path d="m 937.215219444,429.34672506 110.244600652,13.8540819583 -22.3557137043,-98.9869702216 z" style="fill:#90ba8f"/>
<path d="m 1047.4598201,443.200807018 99.9668329539,-26.4355783287 -50.8982322519,-56.4313235036 z" style="fill:#8ecba1"/>
<path d="m 1147.42665305,416.765228689 114.446020296,23.6663429021 -71.6559583443,-86.6491760441 z" style="fill:#7bcca4"/>
<path d="m 1261.87267335,440.431571591 75.9536559267,-20.4735332732 -16.2562039414,-83.606191434 z" style="fill:#68cea7"/>
<path d="m 1337.82632927,419.958038318 105.589782968,31.143746524 -54.9634456977,-87.5719974553 z" style="fill:#64d9b4"/>
<path d="m 1443.41611224,451.101784842 129.74662933,4.27891657865 -56.2852349965,-103.15914835 z" style="fill:#61eecb"/>
<path d="m 1573.16274157,455.380701421 52.2365568989,-7.58640677886 -6.54836736231,-111.407350994 z" style="fill:#4eedcc"/>
<path d="m 1625.39929847,447.794294642 109.954431179,-19.5404544633 -21.4899766867,-83.7921020785 z" style="fill:#50ffe0"/>
<path d="m 1735.35372965,428.253840179 97.9714950034,2.71145674417 -38.3389742311,-99.1161214735 z" style="fill:#37fadc"/>
<path d="m 1833.32522465,430.965296923 132.906336317,19.4536230677 -71.0717270221,-114.879949423 z" style="fill:#34fff0"/>
<path d="m 1966.23156097,450.418919991 70.6240665323,-0.582188509033 -39.8474765246,-116.38569183 z" style="fill:#2bffec"/>
<path d="m 2036.8556275,449.836731482 143.520197829,-14.699944964 -50.5687564613,-92.9157353429 z" style="fill:#2effef"/>
<path d="m 2180.37582533,435.136786518 92.5753544677,-27.6139521394 -59.1424886743,-89.424685323 z" style="fill:#2cffed"/>
<path d="m 2272.9511798,407.522834378 61.74963254,45.071934741 -32.9813191174,-89.8247224268 z" style="fill:#26ffe7"/>
<path d="m -8.80038831215,490.830469116 119.435924559,11.084268395 -80.7692110015,-84.6321863135 z" style="fill:#ff783d"/>
<path d="m 110.635536247,501.914737511 81.5709592033,28.0428346146 -55.8617566727,-68.9474356913 z" style="fill:#f0733a"/>
<path d="m 192.20649545,529.957572126 98.9473365028,1.83337591023 -7.55894939574,-99.3646470001 z" style="fill:#ea834b"/>
<path d="m 291.153831953,531.790948036 113.841855191,-32.2123125129 -85.4413852784,-56.0826390573 z" style="fill:#dd854f"/>
<path d="m 404.995687144,499.578635523 95.7919689973,5.00723224954 -29.487048719,-58.7744697189 z" style="fill:#ce8e5a"/>
<path d="m 500.787656141,504.585867773 117.480527677,18.2505481938 -70.3627389878,-104.727248509 z" style="fill:#ca9d6a"/>
<path d="m 618.268183818,522.836415966 54.5018818108,1.58019841677 -52.4792942882,-89.8469177927 z" style="fill:#bfa271"/>
<path d="m 672.770065629,524.416614383 144.168789412,-2.11852103705 -51.5205054605,-108.32546751 z" style="fill:#ada677"/>
<path d="m 816.938855041,522.298093346 88.8957237284,30.4066894258 -39.6315674779,-144.642530276 z" style="fill:#a5b487"/>
<path d="m 905.83457877,552.704782772 81.1093690779,-43.6621230708 -49.7287284035,-79.6959346412 z" style="fill:#9cbb8e"/>
<path d="m 986.943947848,509.042659701 98.3479702844,4.02412261612 -37.8320980358,-69.865975299 z" style="fill:#92c399"/>
<path d="m 1085.29191813,513.066782317 85.981929979,-12.8275741517 -23.8471950609,-83.473979476 z" style="fill:#8dd1a8"/>
<path d="m 1171.27384811,500.239208165 148.508673759,33.2279050431 -57.9098485234,-93.0355416171 z" style="fill:#80dab3"/>
<path d="m 1319.78252187,533.467113209 86.0437104379,11.3843137401 -67.9999030346,-124.89338863 z" style="fill:#76e4bf"/>
<path d="m 1405.82623231,544.851426949 67.0772577527,-28.5632177529 -29.4873778192,-65.1864243534 z" style="fill:#60dfbb"/>
<path d="m 1472.90349006,516.288209196 136.920199218,35.4588728753 -36.6609477078,-96.36638065 z" style="fill:#5ef3d1"/>
<path d="m 1609.82368928,551.747082071 78.0914020756,-43.8021004241 -62.5157928845,-60.1506870048 z" style="fill:#4ef4d4"/>
<path d="m 1687.91509135,507.944981647 120.188646907,-16.5908332369 -72.750008612,-63.1003082312 z" style="fill:#36f0d2"/>
<path d="m 1808.10373826,491.35414841 108.560672352,34.65796176 -83.3391859605,-95.046813247 z" style="fill:#32ffe5"/>
<path d="m 1916.66441061,526.01211017 75.8098624466,-26.0020568558 -26.2427120901,-49.5911333235 z" style="fill:#2effef"/>
<path d="m 1992.47427306,500.010053314 109.111961458,37.7359324617 -64.7306070162,-87.9092542942 z" style="fill:#2bffec"/>
<path d="m 2101.58623452,537.745985776 120.867129892,-6.69018291183 -42.0775390791,-95.9190163464 z" style="fill:#2cffed"/>
<path d="m 2222.45336441,531.055802864 75.714877122,23.511473123 -25.2170617334,-147.044441609 z" style="fill:#2ffff0"/>
<path d="m 67.7820753609,607.773512657 85.9199291246,24.7854006205 -43.0664682386,-130.644175766 z" style="fill:#ff8046"/>
<path d="m 153.702004486,632.558913278 95.2108761922,-57.4721548902 -56.7063852275,-45.1291862617 z" style="fill:#ee7b43"/>
<path d="m 248.912880678,575.086758387 121.565022968,12.0350701799 -79.3240716923,-55.3308805314 z" style="fill:#e1834c"/>
<path d="m 370.477903645,587.121828567 90.4154379196,49.0251640538 -55.8976544208,-136.568357098 z" style="fill:#d38a55"/>
<path d="m 460.893341565,636.146992621 102.674849995,-34.6011129885 -62.7805354184,-96.96001186 z" style="fill:#d29c68"/>
<path d="m 563.56819156,601.545879633 89.3322988132,28.2945014255 -34.6323065547,-107.003965092 z" style="fill:#be9c6a"/>
<path d="m 652.900490373,629.840381058 109.510678996,-33.3192666454 -89.6411037401,-72.1045000296 z" style="fill:#c2b181"/>
<path d="m 762.411169369,596.521114413 66.7294518288,3.71533761515 -12.2017661569,-77.9383586818 z" style="fill:#aaad7f"/>
<path d="m 829.140621198,600.236452028 119.725244975,-4.80923194352 -43.0312874039,-42.7224373125 z" style="fill:#a0b588"/>
<path d="m 948.865866174,595.427220084 111.477246612,24.0291432253 -73.3991649379,-110.413703609 z" style="fill:#91ba8f"/>
<path d="m 1060.34311279,619.45636331 99.629830804,-33.6861452139 -74.6810254575,-72.7034357787 z" style="fill:#86c39a"/>
<path d="m 1159.97294359,585.770218096 106.163098006,46.2706290813 -94.8621934849,-131.801639012 z" style="fill:#74c59d"/>
<path d="m 1266.1360416,632.040847177 86.388320792,-1.80536075482 -32.7418405183,-96.7683732137 z" style="fill:#69d0aa"/>
<path d="m 1352.52436239,630.235486422 87.0811679286,-13.6232340897 -33.7792980091,-71.7608253839 z" style="fill:#60d8b3"/>
<path d="m 1439.60553032,616.612252333 105.521536097,20.3720221261 -72.2235763538,-120.696065263 z" style="fill:#5ae3c0"/>
<path d="m 1545.12706641,636.984274459 112.120836775,-46.3096703572 -47.4242139102,-38.9275220304 z" style="fill:#54f3d2"/>
<path d="m 1657.24790319,590.674604101 88.8568701824,1.00599486203 -58.1896820169,-83.7356173165 z" style="fill:#49fbdb"/>
<path d="m 1746.10477337,591.680598963 78.4424520925,16.7640129129 -16.4434872027,-117.090463466 z" style="fill:#39fddf"/>
<path d="m 1824.54722546,608.444611876 109.440972021,-0.543920968593 -17.3237868716,-81.8885807377 z" style="fill:#34ffef"/>
<path d="m 1933.98819748,607.900690908 147.15705822,-1.13926579809 -88.6709826446,-106.751371795 z" style="fill:#28ffe9"/>
<path d="m 2081.1452557,606.76142511 69.3434116761,-28.5393779249 -48.9024328622,-40.4760614088 z" style="fill:#2dffee"/>
<path d="m 2150.48866738,578.222047185 107.796547294,11.0085279893 -35.8318502648,-58.17477231 z" style="fill:#2effef"/>
<path d="m 2258.28521467,589.230575174 77.1537992615,22.0009570537 -37.2707724043,-56.6642562407 z" style="fill:#26ffe7"/>
<path d="m 12.9432693008,704.071735375 60.6956528594,-16.8546324147 -5.85684679929,-79.4435903029 z" style="fill:#fd6e32"/>
<path d="m 73.6389221602,687.21710296 110.350173525,11.7492304022 -30.2870912,-66.4074200846 z" style="fill:#ef7037"/>
<path d="m 183.989095686,698.966333362 87.9815315268,5.7517525278 -23.0577465347,-129.631327503 z" style="fill:#f0854d"/>
<path d="m 271.970627212,704.71808589 116.750333109,-4.8498366482 -18.2430566758,-112.746420674 z" style="fill:#e9935d"/>
<path d="m 388.720960321,699.868249242 124.262061653,13.7292521415 -52.0896804088,-77.4505087622 z" style="fill:#d3935e"/>
<path d="m 512.983021974,713.597501383 99.6184091156,-10.2033221765 -49.0332395295,-101.848299574 z" style="fill:#d0a472"/>
<path d="m 612.601431089,703.394179207 68.8044967546,-5.59158956112 -28.5054374709,-67.9622085876 z" style="fill:#bba06f"/>
<path d="m 681.405927844,697.802589646 129.459620905,-21.7137444487 -48.4543793792,-79.5677307843 z" style="fill:#b6af80"/>
<path d="m 810.865548749,676.088845197 107.733724723,-4.6645387688 -89.4586522737,-71.1878544004 z" style="fill:#9daa7d"/>
<path d="m 918.599273472,671.424306428 89.3325684365,2.70976807423 -59.0659757348,-78.7068544181 z" style="fill:#a2c498"/>
<path d="m 1007.93184191,674.134074502 78.061859528,0.759003880532 -25.6505886509,-55.4367150733 z" style="fill:#8bbf95"/>
<path d="m 1085.99370144,674.893078383 120.35069766,-14.7118592051 -46.3714555068,-74.4110010821 z" style="fill:#89d0a7"/>
<path d="m 1206.3443991,660.181219178 122.124472371,16.8585507106 -62.3328298715,-44.9989227115 z" style="fill:#75d2ac"/>
<path d="m 1328.46887147,677.039769889 46.0494029202,7.0064913764 -21.9939119997,-53.8107748427 z" style="fill:#6bd9b4"/>
<path d="m 1374.51827439,684.046261265 127.771123123,-7.51584796818 -62.6838671942,-59.9181609642 z" style="fill:#65e4c0"/>
<path d="m 1502.28939751,676.530413297 86.2530300402,4.0031675436 -43.415361137,-43.5493063817 z" style="fill:#53e7c4"/>
<path d="m 1588.54242755,680.53358084 122.477780759,6.1781409721 -53.7723051211,-96.037117711 z" style="fill:#40e9c9"/>
<path d="m 1711.02020831,686.711721812 88.97979169,-4.3913987849 -53.8952266288,-90.6397240641 z" style="fill:#48ffe5"/>
<path d="m 1800.0,682.320323028 93.3823486836,-1.43855900245 -68.8351232199,-72.4371521488 z" style="fill:#3dffed"/>
<path d="m 1893.38234868,680.881764025 80.9866782022,3.61055100405 -40.3808294013,-76.5916241214 z" style="fill:#22ffe3"/>
<path d="m 1974.36902689,684.492315029 138.819321027,-0.906572626847 -32.0430922089,-76.8243172927 z" style="fill:#32fff3"/>
<path d="m 2113.18834791,683.585742402 94.1539413179,27.4073841748 -56.8536218507,-132.771079392 z" style="fill:#35fff6"/>
<path d="m 2207.34228923,710.993126577 94.4097767775,-29.2349129642 -43.4668513341,-92.5276384388 z" style="fill:#30fff1"/>
<path d="m 74.1797330463,788.704593299 85.1880954427,1.12229766346 -85.7289063288,-102.609788003 z" style="fill:#f46f34"/>
<path d="m 159.367828489,789.826890963 70.6405741248,-6.87896955004 -46.0193069283,-83.9815880504 z" style="fill:#f7834a"/>
<path d="m 230.008402614,782.947921413 138.706853188,-12.2521251116 -96.7446285899,-65.977710411 z" style="fill:#e7874f"/>
<path d="m 368.715255802,770.695796301 72.2323800165,27.287164161 -52.2266754977,-98.1147112202 z" style="fill:#d68a55"/>
<path d="m 440.947635819,797.982960462 118.46193166,-47.5197679773 -46.426545505,-36.8656911014 z" style="fill:#c9935f"/>
<path d="m 559.409567479,750.463192485 103.758926237,7.8856757317 -50.5670626269,-54.9546890096 z" style="fill:#c4a270"/>
<path d="m 663.168493716,758.348868217 78.8688520681,12.2305717663 -60.6314179404,-72.776850337 z" style="fill:#bfae7e"/>
<path d="m 742.037345784,770.579439983 99.0632171511,-1.04040275567 -30.2350141869,-93.4501920301 z" style="fill:#afb182"/>
<path d="m 841.100562935,769.539037227 117.956753163,21.9032906051 -40.4580426266,-120.018021404 z" style="fill:#a5bd90"/>
<path d="m 959.057316098,791.442327832 95.7690257188,-31.3768641654 -46.8944999089,-85.9313891643 z" style="fill:#97c297"/>
<path d="m 1054.82634182,760.065463667 104.875968952,-4.65666209407 -73.7086093331,-80.5157231897 z" style="fill:#8dcaa1"/>
<path d="m 1159.70231077,755.408801573 91.8363663441,-5.3456464885 -45.1942780173,-89.8819359063 z" style="fill:#84d6ae"/>
<path d="m 1251.53867711,750.063155084 82.7007083539,37.7397757175 -5.77051400008,-110.763160913 z" style="fill:#6acfa9"/>
<path d="m 1334.23938547,787.802930802 124.343937267,-0.651608892283 -84.0650483467,-103.105060645 z" style="fill:#6adfba"/>
<path d="m 1458.58332273,787.151321909 59.7216217862,-19.8950503905 -16.0155470096,-90.7258582222 z" style="fill:#5ee7c4"/>
<path d="m 1518.30494452,767.256271519 143.233589968,6.28741491544 -72.9961069373,-93.010105594 z" style="fill:#5cf8d7"/>
<path d="m 1661.53853449,773.543686434 111.963409198,-11.1959846075 -62.4817353766,-75.6359800145 z" style="fill:#41f6d7"/>
<path d="m 1773.50194369,762.347701827 89.4154123836,36.2259295051 -62.9173560702,-116.253308304 z" style="fill:#40ffea"/>
<path d="m 1862.91735607,798.573631332 108.072495166,-38.7241208598 -77.6075025528,-78.9677464471 z" style="fill:#30ffee"/>
<path d="m 1970.98985124,759.849510472 75.3568548633,45.5678897383 -71.977679214,-120.925085181 z" style="fill:#36fff7"/>
<path d="m 2046.3467061,805.41740021 99.4084786206,-11.191106687 -32.5668368074,-110.640551121 z" style="fill:#34fff5"/>
<path d="m 2145.75518472,794.226293523 97.622827927,-45.9574312008 -36.0357234165,-37.2757357456 z" style="fill:#22ffe3"/>
<path d="m 2243.37801265,748.268862323 99.6464539238,46.8213056819 -41.2724005628,-113.331954392 z" style="fill:#24ffe5"/>
<path d="m -8.95520574572,855.723618014 110.968503403,33.313883296 -27.8335646112,-100.332908011 z" style="fill:#fc6e33"/>
<path d="m 102.013297657,889.03750131 71.5448758402,-14.9280198903 -14.1903450086,-84.2825904573 z" style="fill:#ff854b"/>
<path d="m 173.558173498,874.10948142 148.438113811,-9.62220788164 -91.9878846944,-81.5393521257 z" style="fill:#ec824a"/>
<path d="m 321.996287308,864.487273538 98.9909200592,0.805240815305 -52.2719515651,-94.5967180526 z" style="fill:#e89761"/>
<path d="m 420.987207367,865.292514354 59.0524331155,13.6952984641 -39.0920046641,-81.0048523557 z" style="fill:#d99763"/>
<path d="m 480.039640483,878.987812818 124.587865124,-45.888822319 -45.2179381282,-82.635798014 z" style="fill:#c0925f"/>
<path d="m 604.627505607,833.098990499 106.366718848,35.0634740339 -47.8257307384,-109.813596316 z" style="fill:#c2a978"/>
<path d="m 710.994224455,868.162464533 78.8284647022,-17.2255445687 -47.7853433725,-80.3574799811 z" style="fill:#a9a273"/>
<path d="m 789.822689157,850.936919964 96.9769344124,7.15689746689 -45.6990606338,-88.5547802037 z" style="fill:#a0aa7c"/>
<path d="m 886.799623569,858.093817431 140.949659338,-12.2294478 -68.6919668086,-54.4220417986 z" style="fill:#90b286"/>
<path d="m 1027.74928291,845.864369631 48.0874646898,9.90434203079 -21.0104057797,-95.7032479948 z" style="fill:#8ec298"/>
<path d="m 1075.8367476,855.768711662 133.438252403,26.321463363 -49.5726892305,-126.681373452 z" style="fill:#7fc69d"/>
<path d="m 1209.275,882.090175025 98.6966265892,13.6857442095 -56.4329494756,-145.71276415 z" style="fill:#7ad6af"/>
<path d="m 1307.97162659,895.775919234 123.317441614,-38.7225113815 -97.0496827353,-69.2504770509 z" style="fill:#6adab4"/>
<path d="m 1431.2890682,857.053407853 60.6118079152,18.6241559151 -33.3175533837,-88.5262418583 z" style="fill:#59ddb9"/>
<path d="m 1491.90087612,875.677563768 90.2508346816,-16.8633369066 -63.8467662792,-91.5579553423 z" style="fill:#5eefcd"/>
<path d="m 1582.1517108,858.814226861 100.900629953,25.3853164085 -21.5138062642,-110.655856835 z" style="fill:#47eece"/>
<path d="m 1683.05234075,884.19954327 102.005105063,-21.8997366775 -11.5555021288,-99.9521047653 z" style="fill:#3df9da"/>
<path d="m 1785.05744582,862.299806592 106.614546186,-21.9053759219 -28.7546359314,-41.8207993383 z" style="fill:#32ffe3"/>
<path d="m 1891.671992,840.39443067 133.557774823,2.91398902827 -54.2399155885,-83.4589092264 z" style="fill:#34fff5"/>
<path d="m 2025.22976682,843.308419699 99.647729313,3.9704461147 -78.5307900382,-41.8614656028 z" style="fill:#2bffec"/>
<path d="m 2124.87749614,847.278865813 87.2493851594,6.61965667384 -66.3716965769,-59.6722289636 z" style="fill:#23ffe4"/>
<path d="m 2212.1268813,853.898522487 57.4850758202,23.791758055 -26.2339444701,-129.42141822 z" style="fill:#24ffe5"/>
<path d="m 73.7007735434,940.55179687 109.100479586,2.04779782108 -80.7879554721,-53.5620933805 z" style="fill:#f57339"/>
<path d="m 182.80125313,942.599594691 74.0548633462,32.4536959993 -83.2979429781,-100.94380927 z" style="fill:#e7763d"/>
<path d="m 256.856116476,975.05329069 112.095566182,-29.7002159031 -46.9553953497,-80.8658012487 z" style="fill:#da7f48"/>
<path d="m 368.951682658,945.353074787 91.8223931603,-6.51531881235 -39.7868684508,-73.5452416211 z" style="fill:#d58d58"/>
<path d="m 460.774075818,938.837755975 104.368475399,5.73875088634 -85.1029107346,-65.5886940433 z" style="fill:#d29b67"/>
<path d="m 565.142551218,944.576506861 95.542854794,1.37445457244 -56.0579004046,-112.851970935 z" style="fill:#b99765"/>
<path d="m 660.685406012,945.950961434 69.9099413692,-0.385733230337 -19.6011229262,-77.4027636706 z" style="fill:#b4a373"/>
<path d="m 730.595347381,945.565228203 131.991434158,-24.0906615538 -72.7640923819,-70.5376466855 z" style="fill:#b0b283"/>
<path d="m 862.586781539,921.474566649 67.3734374394,5.50362748355 -43.160595409,-68.8843767022 z" style="fill:#a3b88b"/>
<path d="m 929.960218978,926.978194133 143.488310881,10.9974823739 -45.6992469517,-92.111306876 z" style="fill:#90bc91"/>
<path d="m 1073.44852986,937.975676507 68.3316180909,-10.6458356774 -65.9434003528,-71.5611291678 z" style="fill:#89c69c"/>
<path d="m 1141.78014795,927.329840829 75.6698520504,25.2981033335 -8.175,-70.5377691382 z" style="fill:#88d6ae"/>
<path d="m 1217.45,952.627944163 153.316850064,22.2697202143 -62.7952234747,-79.121745143 z" style="fill:#76dab4"/>
<path d="m 1370.76685006,974.897664377 49.5514665706,-40.8168944625 10.9707515683,-77.0273620621 z" style="fill:#63ddb8"/>
<path d="m 1420.31831663,934.080769915 135.948870339,36.7484068284 -64.3663108554,-95.1516129754 z" style="fill:#58e1be"/>
<path d="m 1556.26718697,970.829176743 95.4157212853,-2.18943006486 -69.531197459,-109.825519817 z" style="fill:#5af8d6"/>
<path d="m 1651.68290826,968.639746678 84.0457025429,-17.5117859633 -52.676270049,-66.9284174453 z" style="fill:#47f7d7"/>
<path d="m 1735.7286108,951.127960715 108.344302756,25.2722287417 -59.0154677425,-114.100382864 z" style="fill:#37fadc"/>
<path d="m 1844.07291356,976.400189457 122.374581028,-23.4851532079 -74.7755025837,-112.520605578 z" style="fill:#36fff3"/>
<path d="m 1966.44749459,952.915036249 96.5025054147,-22.7171500439 -37.720233175,-86.8894665063 z" style="fill:#2effef"/>
<path d="m 2062.95,930.197886205 100.872584961,35.3198269632 -38.9450888226,-118.238847355 z" style="fill:#25ffe6"/>
<path d="m 2163.82258496,965.517713168 68.2594909617,-8.08867571853 -19.955194625,-103.530514962 z" style="fill:#2effef"/>
<path d="m 2232.08207592,957.42903745 103.517185396,-24.6220096488 -65.9873042013,-55.1167472586 z" style="fill:#27ffe8"/>
<path d="m -17.0221665006,1037.1404253 94.1469741127,-1.12483939278 -3.42403406866,-95.4637890393 z" style="fill:#fe6e33"/>
<path d="m 77.1248076121,1036.01558591 136.920629589,-9.431669828 -31.244184072,-83.9843213903 z" style="fill:#f1773e"/>
<path d="m 214.045437202,1026.58391608 110.361332902,14.7818841575 -67.5506536275,-66.3125095484 z" style="fill:#ed8850"/>
<path d="m 324.406770103,1041.36580024 56.584804673,-10.2039135006 -12.0398921183,-85.8088119509 z" style="fill:#e3905a"/>
<path d="m 380.991574776,1031.16188674 95.4575136733,1.31548258579 -15.6750126313,-93.639613349 z" style="fill:#cd8a55"/>
<path d="m 476.44908845,1032.47736932 110.049080229,34.4359718435 -21.3556174614,-122.336834306 z" style="fill:#ce9f6c"/>
<path d="m 586.498168679,1066.91334117 129.933336019,3.22030912405 -55.7460986859,-124.182688858 z" style="fill:#b39a69"/>
<path d="m 716.431504698,1070.13365029 65.952131995,-39.4952402271 -51.7882893118,-85.0731818611 z" style="fill:#b4ac7c"/>
<path d="m 782.383636693,1030.63841006 133.612981606,-3.90585347205 -53.4098367594,-105.257989943 z" style="fill:#aebc8e"/>
<path d="m 915.996618298,1026.73255659 69.0433219437,24.6123454768 -55.0797212638,-124.366707936 z" style="fill:#9bba8d"/>
<path d="m 985.039940242,1051.34490207 109.626579854,-24.6793087773 -21.2179902374,-88.6899167849 z" style="fill:#93c69c"/>
<path d="m 1094.6665201,1026.66559329 105.333479904,-16.4851087504 -58.2198520504,-82.8506437119 z" style="fill:#8ad0a7"/>
<path d="m 1200.0,1010.18048454 130.793013142,38.4643688921 -113.343013142,-96.0169092705 z" style="fill:#72cca5"/>
<path d="m 1330.79301314,1048.64485343 54.331986858,-35.1786246547 -14.3581499361,-38.5685644016 z" style="fill:#68d8b3"/>
<path d="m 1385.125,1013.46622878 140.726203517,30.3225204263 -105.532886882,-109.70797929 z" style="fill:#69eac6"/>
<path d="m 1525.85120352,1043.78874921 78.0230575215,6.69340638587 -47.6070740647,-79.6529788478 z" style="fill:#5bf2d0"/>
<path d="m 1603.87426104,1050.48215559 81.3263745486,4.6187042755 -33.517727328,-86.4611131882 z" style="fill:#46eecd"/>
<path d="m 1685.20063559,1055.10085987 128.441049202,-16.3467534551 -77.9130739873,-87.6261456963 z" style="fill:#3bf6d7"/>
<path d="m 1813.64168479,1038.75410641 107.896566702,3.12094288188 -77.4653379328,-65.4748598366 z" style="fill:#36ffeb"/>
<path d="m 1921.53825149,1041.87504929 48.3469818765,7.72478096757 -3.43773878184,-96.684794012 z" style="fill:#33fff4"/>
<path d="m 1969.88523337,1049.59983026 116.610258014,9.65191165774 -23.5454913812,-129.053855714 z" style="fill:#23ffe4"/>
<path d="m 2086.49549138,1059.25174192 124.428737553,-10.1850374637 -47.1016439739,-83.5489912867 z" style="fill:#2dffee"/>
<path d="m 2210.92422893,1049.06670445 105.122308453,-31.9223838599 -83.9644614652,-59.7152831454 z" style="fill:#30fff1"/>
<path d="m 70.0507517858,1104.33122609 72.6228766578,30.8791267955 -65.5488208316,-99.1947669785 z" style="fill:#ff7a40"/>
<path d="m 142.673628444,1135.21035289 119.116677096,-40.0921239997 -47.7448683385,-68.5343128069 z" style="fill:#f18047"/>
<path d="m 261.79030554,1095.11822889 72.5267850789,56.8155403381 -9.91032051574,-110.567968988 z" style="fill:#df824b"/>
<path d="m 334.317090619,1151.93376923 111.292901999,-37.537104531 -64.6184178419,-83.2347779572 z" style="fill:#e1935e"/>
<path d="m 445.609992618,1114.3966647 83.0530132251,12.1814644792 -52.2139173936,-94.1007598506 z" style="fill:#ca8f5b"/>
<path d="m 528.663005843,1126.57812917 138.642766977,8.45653837601 -80.8076041411,-68.121326383 z" style="fill:#c49f6d"/>
<path d="m 667.30577282,1135.03466755 89.6512452305,3.34915016685 -40.525513353,-68.2501674258 z" style="fill:#b0a272"/>
<path d="m 756.957018051,1138.38381772 63.099680121,-21.1368964312 -37.673061479,-86.6085112218 z" style="fill:#b3b384"/>
<path d="m 820.056698172,1117.24692129 124.343301828,18.2855881561 -28.4033817018,-108.79995285 z" style="fill:#a0b588"/>
<path d="m 944.4,1135.53250944 80.8512626585,15.0492528191 -40.2113224165,-99.2368601923 z" style="fill:#96bd91"/>
<path d="m 1025.25126266,1150.58176226 115.477787617,-19.8192859323 -46.0625301789,-104.096883037 z" style="fill:#8bc69c"/>
<path d="m 1140.72905027,1130.76247633 122.2032022,-4.25170077591 -62.9322524751,-116.330291012 z" style="fill:#83d4ac"/>
<path d="m 1262.93225248,1126.51077555 105.896641657,20.982414319 -38.03588099,-98.8483364388 z" style="fill:#76dfb9"/>
<path d="m 1368.82889413,1147.49318987 48.4088872235,-10.3792284005 -32.1127813555,-123.647732693 z" style="fill:#65dbb6"/>
<path d="m 1417.23778136,1137.11396147 151.440411375,-15.9379330422 -42.8269892142,-77.3872792244 z" style="fill:#61edca"/>
<path d="m 1568.67819273,1121.17602843 95.0184062665,14.9781241374 -59.8223379593,-85.6719969759 z" style="fill:#57f8d7"/>
<path d="m 1663.696599,1136.15415257 91.6691031536,-44.1988377295 -70.1650665642,-36.8544549709 z" style="fill:#41f3d3"/>
<path d="m 1755.36570215,1091.95531484 98.0402384166,51.399755307 -39.7642557787,-104.600963733 z" style="fill:#34fcde"/>
<path d="m 1853.40594057,1143.35507014 93.7404323853,9.62840251901 -25.6081214622,-111.10842337 z" style="fill:#26ffe4"/>
<path d="m 1947.14637295,1152.98347266 130.221905757,-40.4988491633 -107.483045343,-62.8847932393 z" style="fill:#22ffe3"/>
<path d="m 2077.36827871,1112.4846235 39.8385394877,4.5614948385 -30.7113268163,-57.79437642 z" style="fill:#25ffe6"/>
<path d="m 2117.2068182,1117.04611834 139.745252208,-6.12185651552 -46.0278414711,-61.8575573682 z" style="fill:#32fff3"/>
<path d="m 2256.95207041,1110.92426182 70.2827129014,26.5082203651 -11.1882459194,-120.288161593 z" style="fill:#2affeb"/>
<path d="m -2.87392453483,1191.98652968 106.702866852,42.1640465734 -33.7781905317,-129.81935016 z" style="fill:#f96b30"/>
<path d="m 103.828942318,1234.15057625 75.5006734762,-6.69709775785 -36.6559873501,-92.2431256066 z" style="fill:#ff844a"/>
<path d="m 179.329615794,1227.45347849 129.573027845,-0.770705180645 -47.1123380991,-131.564544426 z" style="fill:#e77e47"/>
<path d="m 308.902643639,1226.68277331 95.348931288,4.16838620901 -69.9344843081,-78.9173902965 z" style="fill:#e7925c"/>
<path d="m 404.251574927,1230.85115952 107.989560077,-38.0055052457 -66.6311423857,-78.4489895818 z" style="fill:#d4945f"/>
<path d="m 512.241135004,1192.84565428 94.8174668995,52.7980220661 -78.3955960601,-119.065547169 z" style="fill:#cea06d"/>
<path d="m 607.058601903,1245.64367634 63.8958225524,-32.7011186379 -3.64865163567,-77.9078901548 z" style="fill:#b79c6b"/>
<path d="m 670.954424456,1212.94255771 147.443022068,-27.7823285441 -61.4404284737,-46.7764114439 z" style="fill:#bbb485"/>
<path d="m 818.397446524,1185.16022916 109.516833317,40.2919785987 -107.857581669,-108.205286474 z" style="fill:#9fad7f"/>
<path d="m 927.914279841,1225.45220776 39.2844670297,-23.0449919336 -22.7987468705,-66.8747063841 z" style="fill:#9dbc90"/>
<path d="m 967.19874687,1202.40721583 144.196138536,43.121499618 -86.1436227475,-94.9469531829 z" style="fill:#98c99e"/>
<path d="m 1111.39488541,1245.52871544 103.49703216,-38.2208485787 -74.1628672907,-76.5453905365 z" style="fill:#85cea5"/>
<path d="m 1214.89191757,1207.30786687 86.7749826406,36.9340491146 -38.7346477313,-117.731140427 z" style="fill:#7edbb4"/>
<path d="m 1301.66690021,1244.24191598 114.154863761,-7.44297068312 -46.9928698352,-89.3057554249 z" style="fill:#72e2bd"/>
<path d="m 1415.82176397,1236.7989453 79.9846325422,-0.58027276357 -78.5686151539,-99.1047110617 z" style="fill:#63e3c0"/>
<path d="m 1495.80639651,1236.21867253 83.6521514972,-44.3245592287 -10.7803552757,-70.7180848753 z" style="fill:#60f5d3"/>
<path d="m 1579.45854801,1191.8941133 111.545626096,11.2260015791 -27.3075751052,-66.965962317 z" style="fill:#50f8d7"/>
<path d="m 1691.0041741,1203.12011488 101.909867686,40.0081074551 -37.5483396373,-151.172907502 z" style="fill:#44ffe1"/>
<path d="m 1792.91404179,1243.12822234 123.018736637,-42.6988667526 -62.526837858,-57.074285442 z" style="fill:#39ffec"/>
<path d="m 1915.93277843,1200.42935559 94.4095514297,4.21270516206 -63.1959569023,-51.6585880851 z" style="fill:#36fff7"/>
<path d="m 2010.34232986,1204.64206075 79.6746921178,17.1027821647 -12.6487432631,-109.260219413 z" style="fill:#23ffe4"/>
<path d="m 2090.01702197,1221.74484291 123.418968376,-25.901343892 -96.2291721514,-78.7973806826 z" style="fill:#2ffff0"/>
<path d="m 2213.43599035,1195.84349902 85.3438292526,30.5387920504 -41.8277491959,-115.458029248 z" style="fill:#36fff7"/>
<path d="m 36.9748263906,1308.50144824 125.577226805,-8.36518020329 -58.7231108784,-65.9856917831 z" style="fill:#fa753a"/>
<path d="m 162.552053196,1300.13626804 75.9298089337,-7.74816235862 -59.1522463359,-64.9346271824 z" style="fill:#ef7c43"/>
<path d="m 238.48186213,1292.38810568 108.298661202,37.2812743773 -37.8778796922,-102.98660674 z" style="fill:#ea8b54"/>
<path d="m 346.780523331,1329.66938005 100.832657987,-47.6143717563 -43.3616063914,-51.2038487751 z" style="fill:#df935e"/>
<path d="m 447.613181319,1282.0550083 120.865670854,31.4203589753 -56.2377171683,-120.629712996 z" style="fill:#d59f6c"/>
<path d="m 568.478852172,1313.47536727 81.7715898603,-0.0894471708925 -43.1918401291,-67.742243759 z" style="fill:#cba977"/>
<path d="m 650.250442032,1313.3859201 122.096091485,-26.7347002228 -101.392109062,-73.7086621741 z" style="fill:#baa979"/>
<path d="m 772.346533517,1286.65121988 45.5042109962,17.4788276344 0.546702010559,-118.969818353 z" style="fill:#b3b688"/>
<path d="m 817.850744514,1304.13004751 155.922607263,-25.7578012503 -45.8590719363,-52.9200385036 z" style="fill:#96ae81"/>
<path d="m 973.773351777,1278.37224626 50.0765373981,22.9536976603 -56.6511423046,-98.9187280976 z" style="fill:#8fb68b"/>
<path d="m 1023.84988918,1301.32594392 151.917302096,16.4331220384 -64.3723058648,-72.230350518 z" style="fill:#90cea5"/>
<path d="m 1175.76719127,1317.75906596 49.8342932158,1.751825083 -10.709566921,-112.20302418 z" style="fill:#76c8a0"/>
<path d="m 1225.60148449,1319.51089105 153.072241698,-8.30151071608 -77.0068259787,-66.967464349 z" style="fill:#6fd3ad"/>
<path d="m 1378.67372619,1311.20938033 80.6668332655,-26.5544748927 -43.5187954833,-47.8559601394 z" style="fill:#62ddb9"/>
<path d="m 1459.34055945,1284.65490544 82.2435873523,1.90618477331 -45.7777502934,-50.3424176762 z" style="fill:#5be6c3"/>
<path d="m 1541.5841468,1286.56109021 103.325352185,3.29350854199 -65.4509509809,-97.9604854469 z" style="fill:#54f0cf"/>
<path d="m 1644.90949899,1289.85459875 131.892866093,6.3664648399 -85.7981909776,-93.1009487078 z" style="fill:#3ef1d2"/>
<path d="m 1776.80236508,1296.22106359 98.0199736584,-16.5762943877 -81.9082969504,-36.516546865 z" style="fill:#35fddf"/>
<path d="m 1874.82233874,1279.6447692 48.9316592635,19.8514621417 -7.8212195767,-99.0668757593 z" style="fill:#31ffef"/>
<path d="m 1923.753998,1299.49623135 113.108447858,9.44173146187 -26.5201160046,-104.295902059 z" style="fill:#24ffe5"/>
<path d="m 2036.86244586,1308.93796281 79.3301502202,-0.841190552263 -26.175574107,-86.3519293422 z" style="fill:#2bffec"/>
<path d="m 2116.19259608,1308.09677226 158.702559075,-3.3111671401 -61.4591648063,-108.942106094 z" style="fill:#2bffec"/>
<path d="m 2274.89515516,1304.78560512 93.1277236958,-3.21454900101 -69.2430592496,-75.1887650426 z" style="fill:#29ffea"/>
<path d="m -28.726151889,1405.01668016 136.3874031,1.67308060034 -70.6864248199,-98.1883125221 z" style="fill:#fb6a2e"/>
<path d="m 107.66125121,1406.68976076 105.293310871,-50.1455375315 -50.402508886,-56.4079551939 z" style="fill:#fc8249"/>
<path d="m 212.954562082,1356.54422323 108.682176427,23.2988762156 -83.1548763792,-87.4549937681 z" style="fill:#ee874f"/>
<path d="m 321.636738509,1379.84309944 86.7632614911,-8.75168017328 -61.6194766686,-41.4220392175 z" style="fill:#dc8953"/>
<path d="m 408.4,1371.09141927 95.9254129584,41.858809401 -56.7122316398,-130.895220375 z" style="fill:#d2925d"/>
<path d="m 504.325412958,1412.95022867 93.9053254639,-7.08683024619 -29.7518862501,-92.3880311533 z" style="fill:#c39764"/>
<path d="m 598.230738422,1405.86339843 80.5734411823,-26.300556067 -28.5537375722,-66.1769222572 z" style="fill:#c7ab79"/>
<path d="m 678.804179605,1379.56284236 155.474925762,4.88075095887 -61.9325718493,-97.7923734388 z" style="fill:#a8a374"/>
<path d="m 834.279105367,1384.44359332 79.8364455599,30.1382210277 -96.264806413,-110.451766832 z" style="fill:#9caa7c"/>
<path d="m 914.115550927,1414.58181435 95.7260843644,-46.6959483458 -36.068283514,-89.5136197367 z" style="fill:#97ba8f"/>
<path d="m 1009.84163529,1367.885866 109.234124911,10.8117711454 -95.2258710269,-77.3716932218 z" style="fill:#87ba90"/>
<path d="m 1119.0757602,1378.69763715 102.177157404,16.8534071473 -45.4857263352,-77.7919783307 z" style="fill:#7ac59c"/>
<path d="m 1221.25291761,1395.55104429 67.3276042773,-4.58540813989 -62.9790373967,-71.4547451079 z" style="fill:#7cd6ae"/>
<path d="m 1288.58052188,1390.96563615 84.2690303731,-8.17861714514 5.8241739286,-71.5776386788 z" style="fill:#6edcb6"/>
<path d="m 1372.84955226,1382.78701901 139.659187194,-0.498079586871 -53.1681799999,-97.6340339846 z" style="fill:#59dab6"/>
<path d="m 1512.50873945,1382.28893942 111.250048397,27.1104944819 -82.1746410451,-122.838343693 z" style="fill:#5cf3d1"/>
<path d="m 1623.75878785,1409.3994339 87.7472609151,-24.7654366766 -66.5965497755,-94.7793984747 z" style="fill:#41eccb"/>
<path d="m 1711.50604876,1384.63399723 73.7023120761,32.727421375 -8.4059957589,-121.14035501 z" style="fill:#3dfbdc"/>
<path d="m 1785.20836084,1417.3614186 98.5307471904,-54.9437330019 -8.91676929084,-82.7729163956 z" style="fill:#35ffe7"/>
<path d="m 1883.73910803,1362.4176856 119.793306446,33.4818370008 -79.7784164737,-96.4032912547 z" style="fill:#34fff5"/>
<path d="m 2003.53241448,1395.8995226 85.0270249307,-32.7122409548 -51.6969935468,-54.249318838 z" style="fill:#32fff3"/>
<path d="m 2088.55943941,1363.18728165 100.324043695,21.0884277634 -72.6908870217,-76.1789371537 z" style="fill:#2dffee"/>
<path d="m 2188.8834831,1384.27570941 134.687518006,14.4305559118 -48.6758459521,-93.9206602056 z" style="fill:#2affeb"/>
</g>
</svg>
