<?xml version="1.0" encoding="UTF-8"?>
<svg xmlns:dc="http://purl.org/dc/elements/1.1/" xmlns:cc="http://creativecommons.org/ns#" xmlns:rdf="http://www.w3.org/1999/02/22-rdf-syntax-ns#" xmlns:svg="http://www.w3.org/2000/svg" xmlns="http://www.w3.org/2000/svg"
version="1.1"
viewBox="0 0 1920 1080"
height="1080"
width="1920">
<defs>
<linearGradient id="grad1" x1="0%" y1="0%" x2="100%" y2="0%">
<stop offset="0%" style="stop-color:#238bb5;stop-opacity:1" />
<stop offset="100%" style="stop-color:#67f326;stop-opacity:1" />
</linearGradient>
</defs>
<path id="rect" d="m 0,0 1920,0.0 0.0,1080 -1920,0.0 z" fill="url(#grad1)"/><g transform="translate(-100.0,-100.0)">
<path d="M -298.78,-208.18 L-180.02,-163.89 L-255.36,-71.05 Z" style="fill:#1f87b1"/>
<path d="M -180.02,-163.89 L-119.18,-171.53 L-136.66,-64.40 Z" style="fill:#2088b2"/>
<path d="M -119.18,-171.53 L-6.86,-183.77 L-38.12,-65.17 Z" style="fill:#268eb8"/>
<path d="M -6.86,-183.77 L84.01,-190.36 L60.29,-114.89 Z" style="fill:#2e97bb"/>
<path d="M 84.01,-190.36 L189.97,-202.33 L136.34,-103.47 Z" style="fill:#309bb3"/>
<path d="M 189.97,-202.33 L318.49,-183.88 L257.43,-75.15 Z" style="fill:#228e97"/>
<path d="M 318.49,-183.88 L406.19,-202.30 L360.23,-84.24 Z" style="fill:#2a9995"/>
<path d="M 406.19,-202.30 L492.21,-202.28 L451.10,-118.08 Z" style="fill:#289989"/>
<path d="M 492.21,-202.28 L609.17,-153.54 L569.82,-101.00 Z" style="fill:#33a688"/>
<path d="M 609.17,-153.54 L680.02,-163.89 L676.11,-107.75 Z" style="fill:#3aae84"/>
<path d="M 680.02,-163.89 L783.47,-156.08 L718.89,-97.31 Z" style="fill:#3fb581"/>
<path d="M 783.47,-156.08 L889.80,-181.18 L866.34,-75.16 Z" style="fill:#43bb78"/>
<path d="M 889.80,-181.18 L1002.37,-207.07 L939.71,-81.36 Z" style="fill:#4ec878"/>
<path d="M 1002.37,-207.07 L1110.38,-177.40 L1021.93,-100.90 Z" style="fill:#43be62"/>
<path d="M 1110.38,-177.40 L1214.80,-183.19 L1178.77,-105.28 Z" style="fill:#54d266"/>
<path d="M 1214.80,-183.19 L1272.04,-171.74 L1224.53,-65.23 Z" style="fill:#4ccc56"/>
<path d="M 1272.04,-171.74 L1387.49,-169.85 L1350.00,-60.70 Z" style="fill:#49ca48"/>
<path d="M 1387.49,-169.85 L1485.47,-148.05 L1480.87,-70.87 Z" style="fill:#5fe251"/>
<path d="M 1485.47,-148.05 L1622.34,-184.10 L1563.80,-112.56 Z" style="fill:#59de40"/>
<path d="M 1622.34,-184.10 L1687.91,-168.56 L1635.16,-77.33 Z" style="fill:#64eb41"/>
<path d="M 1687.91,-168.56 L1817.70,-162.57 L1732.86,-77.10 Z" style="fill:#5ce52e"/>
<path d="M 1817.70,-162.57 L1933.58,-172.03 L1838.82,-82.53 Z" style="fill:#61ec27"/>
<path d="M 1933.58,-172.03 L1968.54,-178.19 L1925.79,-81.01 Z" style="fill:#6df92c"/>
<path d="M 1968.54,-178.19 L2087.57,-153.32 L2063.90,-105.05 Z" style="fill:#6df92c"/>
<path d="M 2087.57,-153.32 L2222.84,-183.86 L2170.69,-113.08 Z" style="fill:#6bf72a"/>
<path d="M 2222.84,-183.86 L2315.61,-181.86 L2258.61,-99.37 Z" style="fill:#61ed20"/>
<path d="M -255.36,-71.05 L-136.66,-64.40 L-172.11,-2.44 Z" style="fill:#1981ab"/>
<path d="M -136.66,-64.40 L-38.12,-65.17 L-67.71,10.49 Z" style="fill:#2890ba"/>
<path d="M -38.12,-65.17 L60.29,-114.89 L3.41,-27.79 Z" style="fill:#2991ba"/>
<path d="M 60.29,-114.89 L136.34,-103.47 L105.63,15.46 Z" style="fill:#258fac"/>
<path d="M 136.34,-103.47 L257.43,-75.15 L213.64,-3.15 Z" style="fill:#349faf"/>
<path d="M 257.43,-75.15 L360.23,-84.24 L318.13,-1.59 Z" style="fill:#36a3a5"/>
<path d="M 360.23,-84.24 L451.10,-118.08 L400.00,-17.85 Z" style="fill:#2d9c92"/>
<path d="M 451.10,-118.08 L569.82,-101.00 L502.63,-18.72 Z" style="fill:#2ea089"/>
<path d="M 569.82,-101.00 L676.11,-107.75 L614.39,-6.41 Z" style="fill:#37ab85"/>
<path d="M 676.11,-107.75 L718.89,-97.31 L703.05,-34.87 Z" style="fill:#34a979"/>
<path d="M 718.89,-97.31 L866.34,-75.16 L790.15,-23.20 Z" style="fill:#40b67b"/>
<path d="M 866.34,-75.16 L939.71,-81.36 L907.79,-33.76 Z" style="fill:#3cb46a"/>
<path d="M 939.71,-81.36 L1021.93,-100.90 L991.15,-12.18 Z" style="fill:#3cb762"/>
<path d="M 1021.93,-100.90 L1178.77,-105.28 L1112.27,-5.98 Z" style="fill:#4fcb67"/>
<path d="M 1178.77,-105.28 L1224.53,-65.23 L1210.10,-11.62 Z" style="fill:#50cf5e"/>
<path d="M 1224.53,-65.23 L1350.00,-60.70 L1277.48,10.50 Z" style="fill:#59d95e"/>
<path d="M 1350.00,-60.70 L1480.87,-70.87 L1400.00,-17.50 Z" style="fill:#51d448"/>
<path d="M 1480.87,-70.87 L1563.80,-112.56 L1483.84,20.69 Z" style="fill:#53d73f"/>
<path d="M 1563.80,-112.56 L1635.16,-77.33 L1592.93,-13.29 Z" style="fill:#63e946"/>
<path d="M 1635.16,-77.33 L1732.86,-77.10 L1713.64,25.65 Z" style="fill:#60e838"/>
<path d="M 1732.86,-77.10 L1838.82,-82.53 L1825.96,-13.80 Z" style="fill:#68f234"/>
<path d="M 1838.82,-82.53 L1925.79,-81.01 L1919.95,-0.00 Z" style="fill:#6cf72d"/>
<path d="M 1925.79,-81.01 L2063.90,-105.05 L1991.65,-13.36 Z" style="fill:#66f225"/>
<path d="M 2063.90,-105.05 L2170.69,-113.08 L2098.44,-22.35 Z" style="fill:#5de91c"/>
<path d="M 2170.69,-113.08 L2258.61,-99.37 L2205.36,-15.55 Z" style="fill:#5eea1d"/>
<path d="M 2258.61,-99.37 L2340.09,-107.86 L2295.63,20.54 Z" style="fill:#66f225"/>
<path d="M -274.20,-12.58 L-172.11,-2.44 L-276.74,73.56 Z" style="fill:#1f87b1"/>
<path d="M -172.11,-2.44 L-67.71,10.49 L-141.17,66.78 Z" style="fill:#2189b3"/>
<path d="M -67.71,10.49 L3.41,-27.79 L-27.09,108.73 Z" style="fill:#1a82ac"/>
<path d="M 3.41,-27.79 L105.63,15.46 L66.23,69.20 Z" style="fill:#2992b4"/>
<path d="M 105.63,15.46 L213.64,-3.15 L132.12,109.49 Z" style="fill:#218ca2"/>
<path d="M 213.64,-3.15 L318.13,-1.59 L270.30,86.60 Z" style="fill:#249199"/>
<path d="M 318.13,-1.59 L400.00,-17.85 L362.37,101.35 Z" style="fill:#279692"/>
<path d="M 400.00,-17.85 L502.63,-18.72 L450.81,75.08 Z" style="fill:#2fa090"/>
<path d="M 502.63,-18.72 L614.39,-6.41 L539.77,82.05 Z" style="fill:#2c9e81"/>
<path d="M 614.39,-6.41 L703.05,-34.87 L671.40,108.76 Z" style="fill:#32a67b"/>
<path d="M 703.05,-34.87 L790.15,-23.20 L734.07,74.60 Z" style="fill:#41b781"/>
<path d="M 790.15,-23.20 L907.79,-33.76 L845.02,118.06 Z" style="fill:#39b06d"/>
<path d="M 907.79,-33.76 L991.15,-12.18 L944.23,100.88 Z" style="fill:#4bc575"/>
<path d="M 991.15,-12.18 L1112.27,-5.98 L1083.88,81.24 Z" style="fill:#48c465"/>
<path d="M 1112.27,-5.98 L1210.10,-11.62 L1149.80,98.15 Z" style="fill:#4fcd62"/>
<path d="M 1210.10,-11.62 L1277.48,10.50 L1254.38,96.91 Z" style="fill:#58d761"/>
<path d="M 1277.48,10.50 L1400.00,-17.50 L1375.34,73.13 Z" style="fill:#4cce4a"/>
<path d="M 1400.00,-17.50 L1483.84,20.69 L1432.93,81.38 Z" style="fill:#4dd041"/>
<path d="M 1483.84,20.69 L1592.93,-13.29 L1549.10,73.68 Z" style="fill:#5adf43"/>
<path d="M 1592.93,-13.29 L1713.64,25.65 L1639.43,96.81 Z" style="fill:#61e83e"/>
<path d="M 1713.64,25.65 L1825.96,-13.80 L1737.73,80.62 Z" style="fill:#5be42b"/>
<path d="M 1825.96,-13.80 L1919.95,-0.00 L1822.63,99.95 Z" style="fill:#66f12c"/>
<path d="M 1919.95,-0.00 L1991.65,-13.36 L1933.62,72.37 Z" style="fill:#6ffb2e"/>
<path d="M 1991.65,-13.36 L2098.44,-22.35 L2047.48,110.62 Z" style="fill:#62ee21"/>
<path d="M 2098.44,-22.35 L2205.36,-15.55 L2155.09,77.02 Z" style="fill:#6cf82b"/>
<path d="M 2205.36,-15.55 L2295.63,20.54 L2247.90,62.54 Z" style="fill:#67f326"/>
<path d="M -276.74,73.56 L-141.17,66.78 L-205.04,144.60 Z" style="fill:#2a92bc"/>
<path d="M -141.17,66.78 L-27.09,108.73 L-110.35,192.67 Z" style="fill:#1b83ad"/>
<path d="M -27.09,108.73 L66.23,69.20 L14.31,186.09 Z" style="fill:#2b93bb"/>
<path d="M 66.23,69.20 L132.12,109.49 L124.11,161.96 Z" style="fill:#2e98b4"/>
<path d="M 132.12,109.49 L270.30,86.60 L193.59,158.82 Z" style="fill:#339eaf"/>
<path d="M 270.30,86.60 L362.37,101.35 L271.74,168.22 Z" style="fill:#32a0a3"/>
<path d="M 362.37,101.35 L450.81,75.08 L393.14,195.63 Z" style="fill:#29988f"/>
<path d="M 450.81,75.08 L539.77,82.05 L528.99,166.51 Z" style="fill:#34a68f"/>
<path d="M 539.77,82.05 L671.40,108.76 L601.88,146.32 Z" style="fill:#3aad89"/>
<path d="M 671.40,108.76 L734.07,74.60 L708.85,161.47 Z" style="fill:#40b685"/>
<path d="M 734.07,74.60 L845.02,118.06 L814.50,167.05 Z" style="fill:#3fb679"/>
<path d="M 845.02,118.06 L944.23,100.88 L918.47,146.83 Z" style="fill:#46bf75"/>
<path d="M 944.23,100.88 L1083.88,81.24 L977.38,190.87 Z" style="fill:#4ec972"/>
<path d="M 1083.88,81.24 L1149.80,98.15 L1129.69,189.66 Z" style="fill:#46c35d"/>
<path d="M 1149.80,98.15 L1254.38,96.91 L1171.81,176.17 Z" style="fill:#46c455"/>
<path d="M 1254.38,96.91 L1375.34,73.13 L1277.70,165.96 Z" style="fill:#4bcb4d"/>
<path d="M 1375.34,73.13 L1432.93,81.38 L1414.82,179.50 Z" style="fill:#59dc51"/>
<path d="M 1432.93,81.38 L1549.10,73.68 L1519.03,188.07 Z" style="fill:#4ed23b"/>
<path d="M 1549.10,73.68 L1639.43,96.81 L1579.61,180.63 Z" style="fill:#64ea47"/>
<path d="M 1639.43,96.81 L1737.73,80.62 L1728.12,158.25 Z" style="fill:#57df2e"/>
<path d="M 1737.73,80.62 L1822.63,99.95 L1793.30,198.22 Z" style="fill:#59e227"/>
<path d="M 1822.63,99.95 L1933.62,72.37 L1878.34,192.03 Z" style="fill:#62ed26"/>
<path d="M 1933.62,72.37 L2047.48,110.62 L1980.29,154.83 Z" style="fill:#68f427"/>
<path d="M 2047.48,110.62 L2155.09,77.02 L2078.30,173.58 Z" style="fill:#71fd30"/>
<path d="M 2155.09,77.02 L2247.90,62.54 L2200.66,185.79 Z" style="fill:#6efa2d"/>
<path d="M 2247.90,62.54 L2368.77,71.40 L2300.88,160.64 Z" style="fill:#65f124"/>
<path d="M -291.15,180.63 L-205.04,144.60 L-240.33,255.70 Z" style="fill:#1f87b1"/>
<path d="M -205.04,144.60 L-110.35,192.67 L-149.07,286.39 Z" style="fill:#1b83ad"/>
<path d="M -110.35,192.67 L14.31,186.09 L-58.74,283.82 Z" style="fill:#2b93bd"/>
<path d="M 14.31,186.09 L124.11,161.96 L40.10,271.60 Z" style="fill:#1f88aa"/>
<path d="M 124.11,161.96 L193.59,158.82 L138.08,228.77 Z" style="fill:#2d98ae"/>
<path d="M 193.59,158.82 L271.74,168.22 L257.15,273.84 Z" style="fill:#218e99"/>
<path d="M 271.74,168.22 L393.14,195.63 L384.25,261.60 Z" style="fill:#32a09d"/>
<path d="M 393.14,195.63 L528.99,166.51 L441.12,292.94 Z" style="fill:#36a696"/>
<path d="M 528.99,166.51 L601.88,146.32 L560.29,243.96 Z" style="fill:#33a688"/>
<path d="M 601.88,146.32 L708.85,161.47 L645.23,269.16 Z" style="fill:#39ad83"/>
<path d="M 708.85,161.47 L814.50,167.05 L744.49,273.44 Z" style="fill:#45bb84"/>
<path d="M 814.50,167.05 L918.47,146.83 L842.76,285.04 Z" style="fill:#48c07c"/>
<path d="M 918.47,146.83 L977.38,190.87 L940.33,254.88 Z" style="fill:#4dc777"/>
<path d="M 977.38,190.87 L1129.69,189.66 L1064.35,259.56 Z" style="fill:#44c062"/>
<path d="M 1129.69,189.66 L1171.81,176.17 L1134.36,238.29 Z" style="fill:#4bc95f"/>
<path d="M 1171.81,176.17 L1277.70,165.96 L1255.08,249.83 Z" style="fill:#4ecd59"/>
<path d="M 1277.70,165.96 L1414.82,179.50 L1345.84,286.08 Z" style="fill:#4ecf4c"/>
<path d="M 1414.82,179.50 L1519.03,188.07 L1464.04,262.79 Z" style="fill:#58dc49"/>
<path d="M 1519.03,188.07 L1579.61,180.63 L1538.34,290.20 Z" style="fill:#50d538"/>
<path d="M 1579.61,180.63 L1728.12,158.25 L1635.20,264.05 Z" style="fill:#60e73d"/>
<path d="M 1728.12,158.25 L1793.30,198.22 L1730.56,246.69 Z" style="fill:#5fe730"/>
<path d="M 1793.30,198.22 L1878.34,192.03 L1826.74,246.91 Z" style="fill:#6af533"/>
<path d="M 1878.34,192.03 L1980.29,154.83 L1943.59,274.20 Z" style="fill:#71fd30"/>
<path d="M 1980.29,154.83 L2078.30,173.58 L2016.86,249.68 Z" style="fill:#5eea1d"/>
<path d="M 2078.30,173.58 L2200.66,185.79 L2132.97,234.56 Z" style="fill:#66f225"/>
<path d="M 2200.66,185.79 L2300.88,160.64 L2257.13,226.26 Z" style="fill:#5de91c"/>
<path d="M -240.33,255.70 L-149.07,286.39 L-205.96,312.63 Z" style="fill:#1a82ac"/>
<path d="M -149.07,286.39 L-58.74,283.82 L-85.74,342.85 Z" style="fill:#1a82ac"/>
<path d="M -58.74,283.82 L40.10,271.60 L-2.63,365.13 Z" style="fill:#1981ab"/>
<path d="M 40.10,271.60 L138.08,228.77 L102.34,334.39 Z" style="fill:#309ab8"/>
<path d="M 138.08,228.77 L257.15,273.84 L208.76,319.45 Z" style="fill:#248fa0"/>
<path d="M 257.15,273.84 L384.25,261.60 L293.38,315.26 Z" style="fill:#2c999b"/>
<path d="M 384.25,261.60 L441.12,292.94 L401.03,375.79 Z" style="fill:#36a69b"/>
<path d="M 441.12,292.94 L560.29,243.96 L529.99,349.03 Z" style="fill:#3cad95"/>
<path d="M 560.29,243.96 L645.23,269.16 L616.37,336.96 Z" style="fill:#2ea17d"/>
<path d="M 645.23,269.16 L744.49,273.44 L711.54,340.53 Z" style="fill:#40b585"/>
<path d="M 744.49,273.44 L842.76,285.04 L817.45,326.33 Z" style="fill:#3fb679"/>
<path d="M 842.76,285.04 L940.33,254.88 L909.30,340.82 Z" style="fill:#38b168"/>
<path d="M 940.33,254.88 L1064.35,259.56 L1011.25,333.47 Z" style="fill:#4cc770"/>
<path d="M 1064.35,259.56 L1134.36,238.29 L1071.53,330.63 Z" style="fill:#52cf6c"/>
<path d="M 1134.36,238.29 L1255.08,249.83 L1225.36,353.20 Z" style="fill:#49c857"/>
<path d="M 1255.08,249.83 L1345.84,286.08 L1287.28,316.45 Z" style="fill:#50d154"/>
<path d="M 1345.84,286.08 L1464.04,262.79 L1393.54,338.14 Z" style="fill:#4ed046"/>
<path d="M 1464.04,262.79 L1538.34,290.20 L1476.56,347.23 Z" style="fill:#4ed23c"/>
<path d="M 1538.34,290.20 L1635.20,264.05 L1620.61,342.40 Z" style="fill:#5ee440"/>
<path d="M 1635.20,264.05 L1730.56,246.69 L1676.14,326.39 Z" style="fill:#62ea3b"/>
<path d="M 1730.56,246.69 L1826.74,246.91 L1785.30,371.87 Z" style="fill:#69f237"/>
<path d="M 1826.74,246.91 L1943.59,274.20 L1918.97,367.48 Z" style="fill:#70fb31"/>
<path d="M 1943.59,274.20 L2016.86,249.68 L2003.89,359.13 Z" style="fill:#61ed20"/>
<path d="M 2016.86,249.68 L2132.97,234.56 L2125.86,345.05 Z" style="fill:#5eea1d"/>
<path d="M 2132.97,234.56 L2257.13,226.26 L2180.22,360.26 Z" style="fill:#5de91c"/>
<path d="M 2257.13,226.26 L2341.91,283.30 L2284.83,349.08 Z" style="fill:#66f225"/>
<path d="M -295.34,365.09 L-205.96,312.63 L-231.47,456.73 Z" style="fill:#2991bb"/>
<path d="M -205.96,312.63 L-85.74,342.85 L-163.61,403.83 Z" style="fill:#268eb8"/>
<path d="M -85.74,342.85 L-2.63,365.13 L-51.04,444.87 Z" style="fill:#2a92bc"/>
<path d="M -2.63,365.13 L102.34,334.39 L69.82,418.61 Z" style="fill:#2992b4"/>
<path d="M 102.34,334.39 L208.76,319.45 L169.50,442.53 Z" style="fill:#319cb2"/>
<path d="M 208.76,319.45 L293.38,315.26 L223.38,437.23 Z" style="fill:#2996a0"/>
<path d="M 293.38,315.26 L401.03,375.79 L341.17,420.40 Z" style="fill:#39a7a5"/>
<path d="M 401.03,375.79 L529.99,349.03 L445.09,452.71 Z" style="fill:#3cac9b"/>
<path d="M 529.99,349.03 L616.37,336.96 L552.05,403.68 Z" style="fill:#41b394"/>
<path d="M 616.37,336.96 L711.54,340.53 L660.64,443.65 Z" style="fill:#34a87d"/>
<path d="M 711.54,340.53 L817.45,326.33 L718.87,434.10 Z" style="fill:#34aa74"/>
<path d="M 817.45,326.33 L909.30,340.82 L830.10,421.98 Z" style="fill:#45bd79"/>
<path d="M 909.30,340.82 L1011.25,333.47 L978.33,432.02 Z" style="fill:#3cb664"/>
<path d="M 1011.25,333.47 L1071.53,330.63 L1078.80,450.32 Z" style="fill:#4eca6c"/>
<path d="M 1071.53,330.63 L1225.36,353.20 L1125.59,435.15 Z" style="fill:#47c45c"/>
<path d="M 1225.36,353.20 L1287.28,316.45 L1229.61,425.59 Z" style="fill:#53d25c"/>
<path d="M 1287.28,316.45 L1393.54,338.14 L1364.11,454.73 Z" style="fill:#4dcf4b"/>
<path d="M 1393.54,338.14 L1476.56,347.23 L1474.79,439.19 Z" style="fill:#51d444"/>
<path d="M 1476.56,347.23 L1620.61,342.40 L1568.43,415.83 Z" style="fill:#59de40"/>
<path d="M 1620.61,342.40 L1676.14,326.39 L1665.30,413.43 Z" style="fill:#53da2f"/>
<path d="M 1676.14,326.39 L1785.30,371.87 L1777.47,413.06 Z" style="fill:#64ed36"/>
<path d="M 1785.30,371.87 L1918.97,367.48 L1849.13,408.18 Z" style="fill:#67f22e"/>
<path d="M 1918.97,367.48 L2003.89,359.13 L1958.13,465.61 Z" style="fill:#6af629"/>
<path d="M 2003.89,359.13 L2125.86,345.05 L2063.11,418.45 Z" style="fill:#69f528"/>
<path d="M 2125.86,345.05 L2180.22,360.26 L2119.17,417.98 Z" style="fill:#60ec1f"/>
<path d="M 2180.22,360.26 L2284.83,349.08 L2245.65,449.24 Z" style="fill:#6ffb2e"/>
<path d="M -231.47,456.73 L-163.61,403.83 L-211.25,488.70 Z" style="fill:#2a92bc"/>
<path d="M -163.61,403.83 L-51.04,444.87 L-121.40,501.02 Z" style="fill:#278fb9"/>
<path d="M -51.04,444.87 L69.82,418.61 L-17.13,511.63 Z" style="fill:#2d95be"/>
<path d="M 69.82,418.61 L169.50,442.53 L87.68,550.12 Z" style="fill:#2791ad"/>
<path d="M 169.50,442.53 L223.38,437.23 L189.96,522.69 Z" style="fill:#1f8b9c"/>
<path d="M 223.38,437.23 L341.17,420.40 L309.99,516.37 Z" style="fill:#29969b"/>
<path d="M 341.17,420.40 L445.09,452.71 L432.55,519.62 Z" style="fill:#32a297"/>
<path d="M 445.09,452.71 L552.05,403.68 L496.14,501.47 Z" style="fill:#31a28c"/>
<path d="M 552.05,403.68 L660.64,443.65 L604.15,505.15 Z" style="fill:#35a884"/>
<path d="M 660.64,443.65 L718.87,434.10 L723.63,544.96 Z" style="fill:#34a979"/>
<path d="M 718.87,434.10 L830.10,421.98 L781.21,547.47 Z" style="fill:#40b77d"/>
<path d="M 830.10,421.98 L978.33,432.02 L926.42,532.50 Z" style="fill:#4dc67b"/>
<path d="M 978.33,432.02 L1078.80,450.32 L987.35,506.05 Z" style="fill:#4fca72"/>
<path d="M 1078.80,450.32 L1125.59,435.15 L1120.08,548.29 Z" style="fill:#49c661"/>
<path d="M 1125.59,435.15 L1229.61,425.59 L1182.89,520.81 Z" style="fill:#4cca5d"/>
<path d="M 1229.61,425.59 L1364.11,454.73 L1280.13,521.35 Z" style="fill:#57d75b"/>
<path d="M 1364.11,454.73 L1474.79,439.19 L1401.59,501.48 Z" style="fill:#4bcd41"/>
<path d="M 1474.79,439.19 L1568.43,415.83 L1500.65,501.08 Z" style="fill:#4fd43b"/>
<path d="M 1568.43,415.83 L1665.30,413.43 L1584.20,516.54 Z" style="fill:#51d733"/>
<path d="M 1665.30,413.43 L1777.47,413.06 L1670.60,520.13 Z" style="fill:#5ce433"/>
<path d="M 1777.47,413.06 L1849.13,408.18 L1814.69,519.10 Z" style="fill:#5ee828"/>
<path d="M 1849.13,408.18 L1958.13,465.61 L1915.61,547.78 Z" style="fill:#6cf82c"/>
<path d="M 1958.13,465.61 L2063.11,418.45 L2000.37,498.62 Z" style="fill:#69f528"/>
<path d="M 2063.11,418.45 L2119.17,417.98 L2112.89,493.19 Z" style="fill:#71fd30"/>
<path d="M 2119.17,417.98 L2245.65,449.24 L2189.33,494.49 Z" style="fill:#6ffb2e"/>
<path d="M 2245.65,449.24 L2333.24,434.18 L2320.40,507.36 Z" style="fill:#5feb1e"/>
<path d="M -295.83,501.54 L-211.25,488.70 L-249.39,588.73 Z" style="fill:#1a82ac"/>
<path d="M -211.25,488.70 L-121.40,501.02 L-134.10,614.32 Z" style="fill:#278fb9"/>
<path d="M -121.40,501.02 L-17.13,511.63 L-63.57,581.73 Z" style="fill:#2d95bf"/>
<path d="M -17.13,511.63 L87.68,550.12 L75.48,597.44 Z" style="fill:#238cb0"/>
<path d="M 87.68,550.12 L189.96,522.69 L149.03,587.69 Z" style="fill:#2690a8"/>
<path d="M 189.96,522.69 L309.99,516.37 L250.88,631.40 Z" style="fill:#35a2ac"/>
<path d="M 309.99,516.37 L432.55,519.62 L377.28,605.27 Z" style="fill:#36a59f"/>
<path d="M 432.55,519.62 L496.14,501.47 L429.55,603.34 Z" style="fill:#299989"/>
<path d="M 496.14,501.47 L604.15,505.15 L545.12,583.28 Z" style="fill:#31a387"/>
<path d="M 604.15,505.15 L723.63,544.96 L639.41,584.51 Z" style="fill:#43b78d"/>
<path d="M 723.63,544.96 L781.21,547.47 L780.31,588.72 Z" style="fill:#45bc84"/>
<path d="M 781.21,547.47 L926.42,532.50 L821.23,624.90 Z" style="fill:#47bf7d"/>
<path d="M 926.42,532.50 L987.35,506.05 L966.38,590.94 Z" style="fill:#46c06e"/>
<path d="M 987.35,506.05 L1120.08,548.29 L1046.41,596.35 Z" style="fill:#48c366"/>
<path d="M 1120.08,548.29 L1182.89,520.81 L1138.68,602.54 Z" style="fill:#43c157"/>
<path d="M 1182.89,520.81 L1280.13,521.35 L1220.80,600.54 Z" style="fill:#4ac955"/>
<path d="M 1280.13,521.35 L1401.59,501.48 L1358.17,614.38 Z" style="fill:#48c946"/>
<path d="M 1401.59,501.48 L1500.65,501.08 L1455.09,582.25 Z" style="fill:#5fe251"/>
<path d="M 1500.65,501.08 L1584.20,516.54 L1547.18,583.29 Z" style="fill:#57dc40"/>
<path d="M 1584.20,516.54 L1670.60,520.13 L1672.13,618.99 Z" style="fill:#63e940"/>
<path d="M 1670.60,520.13 L1814.69,519.10 L1764.07,612.48 Z" style="fill:#56df28"/>
<path d="M 1814.69,519.10 L1915.61,547.78 L1836.36,605.74 Z" style="fill:#6ef934"/>
<path d="M 1915.61,547.78 L2000.37,498.62 L1950.00,632.47 Z" style="fill:#65f124"/>
<path d="M 2000.37,498.62 L2112.89,493.19 L2045.02,587.62 Z" style="fill:#61ed20"/>
<path d="M 2112.89,493.19 L2189.33,494.49 L2121.21,596.30 Z" style="fill:#6bf72a"/>
<path d="M 2189.33,494.49 L2320.40,507.36 L2232.31,581.87 Z" style="fill:#65f124"/>
<path d="M -249.39,588.73 L-134.10,614.32 L-178.76,715.60 Z" style="fill:#2b93bd"/>
<path d="M -134.10,614.32 L-63.57,581.73 L-97.17,712.92 Z" style="fill:#1c84ae"/>
<path d="M -63.57,581.73 L75.48,597.44 L-16.73,703.69 Z" style="fill:#248cb6"/>
<path d="M 75.48,597.44 L149.03,587.69 L96.76,666.42 Z" style="fill:#2791ae"/>
<path d="M 149.03,587.69 L250.88,631.40 L192.38,666.24 Z" style="fill:#2a96a7"/>
<path d="M 250.88,631.40 L377.28,605.27 L313.09,707.88 Z" style="fill:#2e9b9d"/>
<path d="M 377.28,605.27 L429.55,603.34 L392.42,701.54 Z" style="fill:#38a79e"/>
<path d="M 429.55,603.34 L545.12,583.28 L474.66,706.29 Z" style="fill:#2c9d89"/>
<path d="M 545.12,583.28 L639.41,584.51 L598.44,670.47 Z" style="fill:#30a380"/>
<path d="M 639.41,584.51 L780.31,588.72 L716.38,713.78 Z" style="fill:#32a775"/>
<path d="M 780.31,588.72 L821.23,624.90 L798.54,678.90 Z" style="fill:#3ab174"/>
<path d="M 821.23,624.90 L966.38,590.94 L874.66,669.19 Z" style="fill:#3ab36a"/>
<path d="M 966.38,590.94 L1046.41,596.35 L1006.77,719.99 Z" style="fill:#41bc65"/>
<path d="M 1046.41,596.35 L1138.68,602.54 L1111.18,696.89 Z" style="fill:#42bf5c"/>
<path d="M 1138.68,602.54 L1220.80,600.54 L1231.85,693.38 Z" style="fill:#4bc959"/>
<path d="M 1220.80,600.54 L1358.17,614.38 L1328.20,675.88 Z" style="fill:#58d85a"/>
<path d="M 1358.17,614.38 L1455.09,582.25 L1433.27,688.14 Z" style="fill:#5bdd51"/>
<path d="M 1455.09,582.25 L1547.18,583.29 L1531.38,695.57 Z" style="fill:#57db43"/>
<path d="M 1547.18,583.29 L1672.13,618.99 L1578.12,715.48 Z" style="fill:#58de3a"/>
<path d="M 1672.13,618.99 L1764.07,612.48 L1675.68,695.81 Z" style="fill:#58e02f"/>
<path d="M 1764.07,612.48 L1836.36,605.74 L1807.35,670.19 Z" style="fill:#6cf638"/>
<path d="M 1836.36,605.74 L1950.00,632.47 L1868.85,692.28 Z" style="fill:#5ce81f"/>
<path d="M 1950.00,632.47 L2045.02,587.62 L1978.29,684.92 Z" style="fill:#68f427"/>
<path d="M 2045.02,587.62 L2121.21,596.30 L2102.03,721.80 Z" style="fill:#6df92c"/>
<path d="M 2121.21,596.30 L2232.31,581.87 L2184.74,714.61 Z" style="fill:#6efa2d"/>
<path d="M 2232.31,581.87 L2381.44,597.79 L2328.17,687.34 Z" style="fill:#66f225"/>
<path d="M -327.30,701.69 L-178.76,715.60 L-231.83,774.21 Z" style="fill:#2088b2"/>
<path d="M -178.76,715.60 L-97.17,712.92 L-168.75,755.43 Z" style="fill:#228ab4"/>
<path d="M -97.17,712.92 L-16.73,703.69 L-40.81,764.12 Z" style="fill:#2890ba"/>
<path d="M -16.73,703.69 L96.76,666.42 L55.15,765.28 Z" style="fill:#2a93b7"/>
<path d="M 96.76,666.42 L192.38,666.24 L169.64,773.04 Z" style="fill:#2792a8"/>
<path d="M 192.38,666.24 L313.09,707.88 L260.70,790.50 Z" style="fill:#238f98"/>
<path d="M 313.09,707.88 L392.42,701.54 L351.43,763.04 Z" style="fill:#279692"/>
<path d="M 392.42,701.54 L474.66,706.29 L457.54,796.37 Z" style="fill:#38a89a"/>
<path d="M 474.66,706.29 L598.44,670.47 L549.14,763.00 Z" style="fill:#2ea084"/>
<path d="M 598.44,670.47 L716.38,713.78 L642.61,793.33 Z" style="fill:#36aa80"/>
<path d="M 716.38,713.78 L798.54,678.90 L764.08,794.53 Z" style="fill:#37ae76"/>
<path d="M 798.54,678.90 L874.66,669.19 L877.06,790.91 Z" style="fill:#39b16d"/>
<path d="M 874.66,669.19 L1006.77,719.99 L931.45,775.82 Z" style="fill:#3eb769"/>
<path d="M 1006.77,719.99 L1111.18,696.89 L1048.54,800.37 Z" style="fill:#4eca6c"/>
<path d="M 1111.18,696.89 L1231.85,693.38 L1157.87,788.81 Z" style="fill:#54d266"/>
<path d="M 1231.85,693.38 L1328.20,675.88 L1265.07,757.08 Z" style="fill:#57d75d"/>
<path d="M 1328.20,675.88 L1433.27,688.14 L1333.64,793.15 Z" style="fill:#59da55"/>
<path d="M 1433.27,688.14 L1531.38,695.57 L1466.98,775.19 Z" style="fill:#5ce04b"/>
<path d="M 1531.38,695.57 L1578.12,715.48 L1524.23,790.36 Z" style="fill:#62e74a"/>
<path d="M 1578.12,715.48 L1675.68,695.81 L1656.99,789.05 Z" style="fill:#62e941"/>
<path d="M 1675.68,695.81 L1807.35,670.19 L1737.97,790.64 Z" style="fill:#5ee731"/>
<path d="M 1807.35,670.19 L1868.85,692.28 L1825.46,783.31 Z" style="fill:#6cf735"/>
<path d="M 1868.85,692.28 L1978.29,684.92 L1950.00,750.72 Z" style="fill:#62ee21"/>
<path d="M 1978.29,684.92 L2102.03,721.80 L2029.10,752.67 Z" style="fill:#67f326"/>
<path d="M 2102.03,721.80 L2184.74,714.61 L2160.04,770.70 Z" style="fill:#63ef22"/>
<path d="M 2184.74,714.61 L2328.17,687.34 L2241.00,805.57 Z" style="fill:#6bf72a"/>
<path d="M -231.83,774.21 L-168.75,755.43 L-193.68,857.64 Z" style="fill:#258db7"/>
<path d="M -168.75,755.43 L-40.81,764.12 L-89.84,892.49 Z" style="fill:#1e86b0"/>
<path d="M -40.81,764.12 L55.15,765.28 L21.30,864.54 Z" style="fill:#238bb4"/>
<path d="M 55.15,765.28 L169.64,773.04 L104.76,835.95 Z" style="fill:#1c86a2"/>
<path d="M 169.64,773.04 L260.70,790.50 L214.82,863.41 Z" style="fill:#238f9d"/>
<path d="M 260.70,790.50 L351.43,763.04 L289.02,862.46 Z" style="fill:#2f9da0"/>
<path d="M 351.43,763.04 L457.54,796.37 L428.96,856.62 Z" style="fill:#39a99e"/>
<path d="M 457.54,796.37 L549.14,763.00 L517.43,851.40 Z" style="fill:#2a9c85"/>
<path d="M 549.14,763.00 L642.61,793.33 L582.68,854.78 Z" style="fill:#34a885"/>
<path d="M 642.61,793.33 L764.08,794.53 L701.12,833.85 Z" style="fill:#3ab07f"/>
<path d="M 764.08,794.53 L877.06,790.91 L789.71,860.78 Z" style="fill:#36ad6f"/>
<path d="M 877.06,790.91 L931.45,775.82 L914.35,835.26 Z" style="fill:#4cc57a"/>
<path d="M 931.45,775.82 L1048.54,800.37 L992.10,887.73 Z" style="fill:#40ba65"/>
<path d="M 1048.54,800.37 L1157.87,788.81 L1133.76,869.57 Z" style="fill:#41be59"/>
<path d="M 1157.87,788.81 L1265.07,757.08 L1230.01,859.10 Z" style="fill:#51cf5d"/>
<path d="M 1265.07,757.08 L1333.64,793.15 L1290.71,872.29 Z" style="fill:#46c74a"/>
<path d="M 1333.64,793.15 L1466.98,775.19 L1382.95,878.87 Z" style="fill:#5cde55"/>
<path d="M 1466.98,775.19 L1524.23,790.36 L1490.27,836.07 Z" style="fill:#60e44e"/>
<path d="M 1524.23,790.36 L1656.99,789.05 L1621.67,879.56 Z" style="fill:#57dd39"/>
<path d="M 1656.99,789.05 L1737.97,790.64 L1691.93,885.03 Z" style="fill:#5ee535"/>
<path d="M 1737.97,790.64 L1825.46,783.31 L1816.64,860.62 Z" style="fill:#5ee82b"/>
<path d="M 1825.46,783.31 L1950.00,750.72 L1926.33,846.89 Z" style="fill:#65f026"/>
<path d="M 1950.00,750.72 L2029.10,752.67 L2005.79,845.84 Z" style="fill:#6ffb2e"/>
<path d="M 2029.10,752.67 L2160.04,770.70 L2134.63,864.82 Z" style="fill:#65f124"/>
<path d="M 2160.04,770.70 L2241.00,805.57 L2181.64,895.41 Z" style="fill:#6cf82b"/>
<path d="M 2241.00,805.57 L2354.26,790.53 L2328.63,864.02 Z" style="fill:#5eea1d"/>
<path d="M -281.83,852.33 L-193.68,857.64 L-265.61,970.59 Z" style="fill:#2088b2"/>
<path d="M -193.68,857.64 L-89.84,892.49 L-157.30,965.79 Z" style="fill:#2189b3"/>
<path d="M -89.84,892.49 L21.30,864.54 L-77.63,961.60 Z" style="fill:#1d85af"/>
<path d="M 21.30,864.54 L104.76,835.95 L57.12,968.61 Z" style="fill:#228bad"/>
<path d="M 104.76,835.95 L214.82,863.41 L124.23,957.64 Z" style="fill:#2a95ab"/>
<path d="M 214.82,863.41 L289.02,862.46 L281.44,961.05 Z" style="fill:#2a979f"/>
<path d="M 289.02,862.46 L428.96,856.62 L370.14,975.00 Z" style="fill:#25948f"/>
<path d="M 428.96,856.62 L517.43,851.40 L451.31,937.64 Z" style="fill:#2e9f8d"/>
<path d="M 517.43,851.40 L582.68,854.78 L530.42,948.82 Z" style="fill:#30a286"/>
<path d="M 582.68,854.78 L701.12,833.85 L648.02,975.29 Z" style="fill:#37ab83"/>
<path d="M 701.12,833.85 L789.71,860.78 L777.58,931.08 Z" style="fill:#3cb27b"/>
<path d="M 789.71,860.78 L914.35,835.26 L848.74,928.51 Z" style="fill:#43bb77"/>
<path d="M 914.35,835.26 L992.10,887.73 L936.90,954.94 Z" style="fill:#3fb969"/>
<path d="M 992.10,887.73 L1133.76,869.57 L1043.33,963.73 Z" style="fill:#48c466"/>
<path d="M 1133.76,869.57 L1230.01,859.10 L1144.70,936.32 Z" style="fill:#56d467"/>
<path d="M 1230.01,859.10 L1290.71,872.29 L1263.64,978.28 Z" style="fill:#4ccc54"/>
<path d="M 1290.71,872.29 L1382.95,878.87 L1321.93,958.60 Z" style="fill:#4acb49"/>
<path d="M 1382.95,878.87 L1490.27,836.07 L1445.46,929.27 Z" style="fill:#4ccf40"/>
<path d="M 1490.27,836.07 L1621.67,879.56 L1556.86,930.20 Z" style="fill:#50d537"/>
<path d="M 1621.67,879.56 L1691.93,885.03 L1653.34,973.72 Z" style="fill:#65ec41"/>
<path d="M 1691.93,885.03 L1816.64,860.62 L1752.18,934.91 Z" style="fill:#6af23b"/>
<path d="M 1816.64,860.62 L1926.33,846.89 L1836.93,929.06 Z" style="fill:#6bf631"/>
<path d="M 1926.33,846.89 L2005.79,845.84 L1959.41,923.67 Z" style="fill:#70fc2f"/>
<path d="M 2005.79,845.84 L2134.63,864.82 L2021.04,962.04 Z" style="fill:#6bf72a"/>
<path d="M 2134.63,864.82 L2181.64,895.41 L2178.69,938.01 Z" style="fill:#6cf82b"/>
<path d="M 2181.64,895.41 L2328.63,864.02 L2222.43,947.77 Z" style="fill:#63ef22"/>
<path d="M -265.61,970.59 L-157.30,965.79 L-195.73,1066.19 Z" style="fill:#2b93bd"/>
<path d="M -157.30,965.79 L-77.63,961.60 L-123.71,1041.30 Z" style="fill:#1d85af"/>
<path d="M -77.63,961.60 L57.12,968.61 L16.81,1047.07 Z" style="fill:#2991bb"/>
<path d="M 57.12,968.61 L124.23,957.64 L115.84,1057.46 Z" style="fill:#2993b0"/>
<path d="M 124.23,957.64 L281.44,961.05 L227.28,1051.95 Z" style="fill:#309cab"/>
<path d="M 281.44,961.05 L370.14,975.00 L274.94,1036.60 Z" style="fill:#2d9b9d"/>
<path d="M 370.14,975.00 L451.31,937.64 L388.26,1046.86 Z" style="fill:#28978d"/>
<path d="M 451.31,937.64 L530.42,948.82 L521.23,1043.74 Z" style="fill:#2a9c85"/>
<path d="M 530.42,948.82 L648.02,975.29 L608.42,1070.67 Z" style="fill:#36a986"/>
<path d="M 648.02,975.29 L777.58,931.08 L702.78,1058.99 Z" style="fill:#3eb382"/>
<path d="M 777.58,931.08 L848.74,928.51 L790.95,1057.79 Z" style="fill:#49c082"/>
<path d="M 848.74,928.51 L936.90,954.94 L922.65,1022.77 Z" style="fill:#4cc57b"/>
<path d="M 936.90,954.94 L1043.33,963.73 L1010.83,1048.64 Z" style="fill:#3cb760"/>
<path d="M 1043.33,963.73 L1144.70,936.32 L1117.08,1056.31 Z" style="fill:#52ce6a"/>
<path d="M 1144.70,936.32 L1263.64,978.28 L1204.15,1019.72 Z" style="fill:#48c756"/>
<path d="M 1263.64,978.28 L1321.93,958.60 L1326.03,1032.26 Z" style="fill:#57d759"/>
<path d="M 1321.93,958.60 L1445.46,929.27 L1393.08,1017.93 Z" style="fill:#51d34a"/>
<path d="M 1445.46,929.27 L1556.86,930.20 L1488.81,1034.25 Z" style="fill:#62e64f"/>
<path d="M 1556.86,930.20 L1653.34,973.72 L1593.98,1005.11 Z" style="fill:#59df3b"/>
<path d="M 1653.34,973.72 L1752.18,934.91 L1724.31,1044.40 Z" style="fill:#69f13f"/>
<path d="M 1752.18,934.91 L1836.93,929.06 L1796.36,1022.11 Z" style="fill:#5de72a"/>
<path d="M 1836.93,929.06 L1959.41,923.67 L1910.57,1052.29 Z" style="fill:#62ee23"/>
<path d="M 1959.41,923.67 L2021.04,962.04 L2000.40,1027.69 Z" style="fill:#68f427"/>
<path d="M 2021.04,962.04 L2178.69,938.01 L2085.32,1038.46 Z" style="fill:#5de91c"/>
<path d="M 2178.69,938.01 L2222.43,947.77 L2199.08,1028.77 Z" style="fill:#60ec1f"/>
<path d="M 2222.43,947.77 L2368.20,952.31 L2284.25,1035.88 Z" style="fill:#6df92c"/>
<path d="M -320.39,1031.81 L-195.73,1066.19 L-235.95,1131.23 Z" style="fill:#1b83ad"/>
<path d="M -195.73,1066.19 L-123.71,1041.30 L-145.85,1140.30 Z" style="fill:#2890ba"/>
<path d="M -123.71,1041.30 L16.81,1047.07 L-39.04,1101.21 Z" style="fill:#2991bb"/>
<path d="M 16.81,1047.07 L115.84,1057.46 L67.89,1112.35 Z" style="fill:#2089ab"/>
<path d="M 115.84,1057.46 L227.28,1051.95 L162.01,1109.90 Z" style="fill:#2995a9"/>
<path d="M 227.28,1051.95 L274.94,1036.60 L233.86,1151.66 Z" style="fill:#329fa9"/>
<path d="M 274.94,1036.60 L388.26,1046.86 L324.77,1133.07 Z" style="fill:#38a6a6"/>
<path d="M 388.26,1046.86 L521.23,1043.74 L449.18,1110.10 Z" style="fill:#3aaa9a"/>
<path d="M 521.23,1043.74 L608.42,1070.67 L564.01,1143.76 Z" style="fill:#37aa8b"/>
<path d="M 608.42,1070.67 L702.78,1058.99 L663.63,1125.12 Z" style="fill:#33a77c"/>
<path d="M 702.78,1058.99 L790.95,1057.79 L772.21,1132.20 Z" style="fill:#39af78"/>
<path d="M 790.95,1057.79 L922.65,1022.77 L851.74,1145.71 Z" style="fill:#49c17d"/>
<path d="M 922.65,1022.77 L1010.83,1048.64 L982.56,1113.98 Z" style="fill:#4ec875"/>
<path d="M 1010.83,1048.64 L1117.08,1056.31 L1052.78,1157.56 Z" style="fill:#4fcb6d"/>
<path d="M 1117.08,1056.31 L1204.15,1019.72 L1159.84,1108.08 Z" style="fill:#4cc95e"/>
<path d="M 1204.15,1019.72 L1326.03,1032.26 L1281.96,1135.00 Z" style="fill:#51d057"/>
<path d="M 1326.03,1032.26 L1393.08,1017.93 L1367.46,1129.54 Z" style="fill:#50d14c"/>
<path d="M 1393.08,1017.93 L1488.81,1034.25 L1446.01,1137.42 Z" style="fill:#58db4b"/>
<path d="M 1488.81,1034.25 L1593.98,1005.11 L1560.07,1137.02 Z" style="fill:#60e548"/>
<path d="M 1593.98,1005.11 L1724.31,1044.40 L1646.20,1094.92 Z" style="fill:#59e035"/>
<path d="M 1724.31,1044.40 L1796.36,1022.11 L1734.35,1114.04 Z" style="fill:#5be32c"/>
<path d="M 1796.36,1022.11 L1910.57,1052.29 L1867.20,1132.78 Z" style="fill:#62ed28"/>
<path d="M 1910.57,1052.29 L2000.40,1027.69 L1959.58,1152.14 Z" style="fill:#65f124"/>
<path d="M 2000.40,1027.69 L2085.32,1038.46 L2046.11,1101.29 Z" style="fill:#65f124"/>
<path d="M 2085.32,1038.46 L2199.08,1028.77 L2165.81,1130.37 Z" style="fill:#62ee21"/>
<path d="M 2199.08,1028.77 L2284.25,1035.88 L2261.60,1148.60 Z" style="fill:#6efa2d"/>
<path d="M -235.95,1131.23 L-145.85,1140.30 L-186.15,1218.32 Z" style="fill:#1981ab"/>
<path d="M -145.85,1140.30 L-39.04,1101.21 L-90.94,1200.42 Z" style="fill:#1a82ac"/>
<path d="M -39.04,1101.21 L67.89,1112.35 L-17.69,1188.96 Z" style="fill:#2189b2"/>
<path d="M 67.89,1112.35 L162.01,1109.90 L97.57,1198.65 Z" style="fill:#1f89a5"/>
<path d="M 162.01,1109.90 L233.86,1151.66 L189.97,1241.56 Z" style="fill:#1f8b9c"/>
<path d="M 233.86,1151.66 L324.77,1133.07 L314.54,1221.52 Z" style="fill:#37a4a9"/>
<path d="M 324.77,1133.07 L449.18,1110.10 L395.43,1232.22 Z" style="fill:#38a89f"/>
<path d="M 449.18,1110.10 L564.01,1143.76 L495.93,1191.48 Z" style="fill:#31a38c"/>
<path d="M 564.01,1143.76 L663.63,1125.12 L586.06,1220.49 Z" style="fill:#38ab87"/>
<path d="M 663.63,1125.12 L772.21,1132.20 L714.60,1208.79 Z" style="fill:#32a775"/>
<path d="M 772.21,1132.20 L851.74,1145.71 L777.87,1225.21 Z" style="fill:#3db477"/>
<path d="M 851.74,1145.71 L982.56,1113.98 L926.34,1208.73 Z" style="fill:#4bc478"/>
<path d="M 982.56,1113.98 L1052.78,1157.56 L1017.95,1196.28 Z" style="fill:#3eb960"/>
<path d="M 1052.78,1157.56 L1159.84,1108.08 L1099.18,1196.71 Z" style="fill:#48c460"/>
<path d="M 1159.84,1108.08 L1281.96,1135.00 L1194.54,1186.76 Z" style="fill:#4ccb59"/>
<path d="M 1281.96,1135.00 L1367.46,1129.54 L1295.16,1223.31 Z" style="fill:#50d152"/>
<path d="M 1367.46,1129.54 L1446.01,1137.42 L1430.33,1209.78 Z" style="fill:#5adc50"/>
<path d="M 1446.01,1137.42 L1560.07,1137.02 L1486.28,1196.08 Z" style="fill:#57db44"/>
<path d="M 1560.07,1137.02 L1646.20,1094.92 L1605.60,1202.74 Z" style="fill:#62e844"/>
<path d="M 1646.20,1094.92 L1734.35,1114.04 L1726.34,1208.73 Z" style="fill:#67ef3e"/>
<path d="M 1734.35,1114.04 L1867.20,1132.78 L1807.06,1232.95 Z" style="fill:#5ae426"/>
<path d="M 1867.20,1132.78 L1959.58,1152.14 L1882.37,1209.64 Z" style="fill:#70fc31"/>
<path d="M 1959.58,1152.14 L2046.11,1101.29 L1989.29,1216.76 Z" style="fill:#65f124"/>
<path d="M 2046.11,1101.29 L2165.81,1130.37 L2097.59,1189.46 Z" style="fill:#6efa2d"/>
<path d="M 2165.81,1130.37 L2261.60,1148.60 L2166.45,1219.57 Z" style="fill:#6efa2d"/>
<path d="M 2261.60,1148.60 L2341.81,1115.35 L2290.02,1207.35 Z" style="fill:#66f225"/>
<path d="M -306.85,1201.04 L-186.15,1218.32 L-264.96,1286.92 Z" style="fill:#1a82ac"/>
<path d="M -186.15,1218.32 L-90.94,1200.42 L-162.03,1270.69 Z" style="fill:#2088b2"/>
<path d="M -90.94,1200.42 L-17.69,1188.96 L-42.34,1317.08 Z" style="fill:#1e86b0"/>
<path d="M -17.69,1188.96 L97.57,1198.65 L62.93,1299.72 Z" style="fill:#2089ad"/>
<path d="M 97.57,1198.65 L189.97,1241.56 L162.61,1319.22 Z" style="fill:#329db3"/>
<path d="M 189.97,1241.56 L314.54,1221.52 L261.01,1293.67 Z" style="fill:#339fa8"/>
<path d="M 314.54,1221.52 L395.43,1232.22 L344.53,1310.77 Z" style="fill:#32a19d"/>
<path d="M 395.43,1232.22 L495.93,1191.48 L442.61,1286.74 Z" style="fill:#32a393"/>
<path d="M 495.93,1191.48 L586.06,1220.49 L553.62,1312.56 Z" style="fill:#3bad91"/>
<path d="M 586.06,1220.49 L714.60,1208.79 L654.74,1280.02 Z" style="fill:#31a57b"/>
<path d="M 714.60,1208.79 L777.87,1225.21 L784.99,1298.43 Z" style="fill:#3ab179"/>
<path d="M 777.87,1225.21 L926.34,1208.73 L838.46,1293.16 Z" style="fill:#45bc79"/>
<path d="M 926.34,1208.73 L1017.95,1196.28 L957.28,1264.80 Z" style="fill:#4ac471"/>
<path d="M 1017.95,1196.28 L1099.18,1196.71 L1049.16,1315.12 Z" style="fill:#3fbb5d"/>
<path d="M 1099.18,1196.71 L1194.54,1186.76 L1119.50,1286.71 Z" style="fill:#42bf57"/>
<path d="M 1194.54,1186.76 L1295.16,1223.31 L1218.71,1308.01 Z" style="fill:#52d15c"/>
<path d="M 1295.16,1223.31 L1430.33,1209.78 L1349.17,1287.17 Z" style="fill:#57d853"/>
<path d="M 1430.33,1209.78 L1486.28,1196.08 L1445.78,1279.18 Z" style="fill:#50d342"/>
<path d="M 1486.28,1196.08 L1605.60,1202.74 L1562.43,1324.52 Z" style="fill:#58de40"/>
<path d="M 1605.60,1202.74 L1726.34,1208.73 L1665.55,1312.09 Z" style="fill:#5fe73a"/>
<path d="M 1726.34,1208.73 L1807.06,1232.95 L1772.27,1276.76 Z" style="fill:#5fe82f"/>
<path d="M 1807.06,1232.95 L1882.37,1209.64 L1862.22,1310.05 Z" style="fill:#64ef2b"/>
<path d="M 1882.37,1209.64 L1989.29,1216.76 L1945.81,1310.55 Z" style="fill:#66f225"/>
<path d="M 1989.29,1216.76 L2097.59,1189.46 L2043.65,1273.57 Z" style="fill:#5feb1e"/>
<path d="M 2097.59,1189.46 L2166.45,1219.57 L2118.20,1289.32 Z" style="fill:#71fd30"/>
<path d="M 2166.45,1219.57 L2290.02,1207.35 L2262.55,1306.00 Z" style="fill:#67f326"/>
<path d="M -264.96,1286.92 L-162.03,1270.69 L-181.94,1407.94 Z" style="fill:#1c84ae"/>
<path d="M -162.03,1270.69 L-42.34,1317.08 L-107.79,1351.88 Z" style="fill:#2d95bf"/>
<path d="M -42.34,1317.08 L62.93,1299.72 L30.71,1373.85 Z" style="fill:#2991b9"/>
<path d="M 62.93,1299.72 L162.61,1319.22 L103.85,1358.26 Z" style="fill:#1e88a4"/>
<path d="M 162.61,1319.22 L261.01,1293.67 L205.98,1359.72 Z" style="fill:#2c98a7"/>
<path d="M 261.01,1293.67 L344.53,1310.77 L275.06,1368.18 Z" style="fill:#309da2"/>
<path d="M 344.53,1310.77 L442.61,1286.74 L403.95,1396.49 Z" style="fill:#3aa9a0"/>
<path d="M 442.61,1286.74 L553.62,1312.56 L485.58,1361.64 Z" style="fill:#30a18c"/>
<path d="M 553.62,1312.56 L654.74,1280.02 L606.91,1418.16 Z" style="fill:#3bae8a"/>
<path d="M 654.74,1280.02 L784.99,1298.43 L710.91,1391.94 Z" style="fill:#36ab79"/>
<path d="M 784.99,1298.43 L838.46,1293.16 L784.36,1390.72 Z" style="fill:#47be81"/>
<path d="M 838.46,1293.16 L957.28,1264.80 L917.81,1396.77 Z" style="fill:#4bc379"/>
<path d="M 957.28,1264.80 L1049.16,1315.12 L1031.29,1394.61 Z" style="fill:#4ac56d"/>
<path d="M 1049.16,1315.12 L1119.50,1286.71 L1110.33,1373.75 Z" style="fill:#50cd6a"/>
<path d="M 1119.50,1286.71 L1218.71,1308.01 L1233.13,1376.76 Z" style="fill:#45c354"/>
<path d="M 1218.71,1308.01 L1349.17,1287.17 L1308.89,1391.86 Z" style="fill:#4ccc50"/>
<path d="M 1349.17,1287.17 L1445.78,1279.18 L1417.61,1397.08 Z" style="fill:#5ee156"/>
<path d="M 1445.78,1279.18 L1562.43,1324.52 L1488.45,1385.64 Z" style="fill:#62e64f"/>
<path d="M 1562.43,1324.52 L1665.55,1312.09 L1609.97,1363.26 Z" style="fill:#5de33d"/>
<path d="M 1665.55,1312.09 L1772.27,1276.76 L1704.80,1358.41 Z" style="fill:#5ce432"/>
<path d="M 1772.27,1276.76 L1862.22,1310.05 L1823.72,1404.17 Z" style="fill:#68f232"/>
<path d="M 1862.22,1310.05 L1945.81,1310.55 L1888.29,1406.76 Z" style="fill:#62ed23"/>
<path d="M 1945.81,1310.55 L2043.65,1273.57 L2013.60,1384.45 Z" style="fill:#6ffb2e"/>
<path d="M 2043.65,1273.57 L2118.20,1289.32 L2112.24,1381.42 Z" style="fill:#5feb1e"/>
<path d="M 2118.20,1289.32 L2262.55,1306.00 L2168.35,1399.73 Z" style="fill:#68f427"/>
<path d="M 2262.55,1306.00 L2330.36,1318.00 L2311.05,1417.74 Z" style="fill:#68f427"/>
<path d="M -323.45,1385.23 L-181.94,1407.94 L-259.10,1465.13 Z" style="fill:#2088b2"/>
<path d="M -181.94,1407.94 L-107.79,1351.88 L-171.96,1458.52 Z" style="fill:#278fb9"/>
<path d="M -107.79,1351.88 L30.71,1373.85 L-62.98,1476.46 Z" style="fill:#1d85af"/>
<path d="M 30.71,1373.85 L103.85,1358.26 L48.85,1494.26 Z" style="fill:#2b94b6"/>
<path d="M 103.85,1358.26 L205.98,1359.72 L160.53,1443.30 Z" style="fill:#228da3"/>
<path d="M 205.98,1359.72 L275.06,1368.18 L246.59,1447.98 Z" style="fill:#228f99"/>
<path d="M 275.06,1368.18 L403.95,1396.49 L352.33,1483.20 Z" style="fill:#33a19f"/>
<path d="M 403.95,1396.49 L485.58,1361.64 L440.59,1483.07 Z" style="fill:#33a494"/>
<path d="M 485.58,1361.64 L606.91,1418.16 L535.01,1455.60 Z" style="fill:#39ab8f"/>
<path d="M 606.91,1418.16 L710.91,1391.94 L666.59,1493.48 Z" style="fill:#3db186"/>
<path d="M 710.91,1391.94 L784.36,1390.72 L756.97,1480.55 Z" style="fill:#3cb27c"/>
<path d="M 784.36,1390.72 L917.81,1396.77 L855.75,1483.06 Z" style="fill:#47bf7b"/>
<path d="M 917.81,1396.77 L1031.29,1394.61 L935.80,1468.44 Z" style="fill:#42bc6a"/>
<path d="M 1031.29,1394.61 L1110.33,1373.75 L1077.85,1479.19 Z" style="fill:#46c262"/>
<path d="M 1110.33,1373.75 L1233.13,1376.76 L1166.63,1490.71 Z" style="fill:#50ce61"/>
<path d="M 1233.13,1376.76 L1308.89,1391.86 L1227.01,1466.08 Z" style="fill:#58d860"/>
<path d="M 1308.89,1391.86 L1417.61,1397.08 L1330.73,1467.08 Z" style="fill:#4bcd49"/>
<path d="M 1417.61,1397.08 L1488.45,1385.64 L1475.06,1469.61 Z" style="fill:#5de14f"/>
<path d="M 1488.45,1385.64 L1609.97,1363.26 L1546.34,1437.43 Z" style="fill:#53d83b"/>
<path d="M 1609.97,1363.26 L1704.80,1358.41 L1655.08,1498.35 Z" style="fill:#5ce338"/>
<path d="M 1704.80,1358.41 L1823.72,1404.17 L1727.70,1479.49 Z" style="fill:#57df28"/>
<path d="M 1823.72,1404.17 L1888.29,1406.76 L1859.27,1467.31 Z" style="fill:#65f02b"/>
<path d="M 1888.29,1406.76 L2013.60,1384.45 L1935.52,1484.39 Z" style="fill:#5eea1d"/>
<path d="M 2013.60,1384.45 L2112.24,1381.42 L2045.38,1446.05 Z" style="fill:#66f225"/>
<path d="M 2112.24,1381.42 L2168.35,1399.73 L2127.57,1479.10 Z" style="fill:#6cf82b"/>
<path d="M 2168.35,1399.73 L2311.05,1417.74 L2265.38,1473.05 Z" style="fill:#5de91c"/>
<path d="M -255.36,-71.05 L-136.66,-64.40 L-180.02,-163.89 Z" style="fill:#238bb5"/>
<path d="M -136.66,-64.40 L-38.12,-65.17 L-119.18,-171.53 Z" style="fill:#2991bb"/>
<path d="M -38.12,-65.17 L60.29,-114.89 L-6.86,-183.77 Z" style="fill:#238bb4"/>
<path d="M 60.29,-114.89 L136.34,-103.47 L84.01,-190.36 Z" style="fill:#248eac"/>
<path d="M 136.34,-103.47 L257.43,-75.15 L189.97,-202.33 Z" style="fill:#2692a3"/>
<path d="M 257.43,-75.15 L360.23,-84.24 L318.49,-183.88 Z" style="fill:#249193"/>
<path d="M 360.23,-84.24 L451.10,-118.08 L406.19,-202.30 Z" style="fill:#309f95"/>
<path d="M 451.10,-118.08 L569.82,-101.00 L492.21,-202.28 Z" style="fill:#3daf98"/>
<path d="M 569.82,-101.00 L676.11,-107.75 L609.17,-153.54 Z" style="fill:#41b58f"/>
<path d="M 676.11,-107.75 L718.89,-97.31 L680.02,-163.89 Z" style="fill:#32a778"/>
<path d="M 718.89,-97.31 L866.34,-75.16 L783.47,-156.08 Z" style="fill:#45bc81"/>
<path d="M 866.34,-75.16 L939.71,-81.36 L889.80,-181.18 Z" style="fill:#39b269"/>
<path d="M 939.71,-81.36 L1021.93,-100.90 L1002.37,-207.07 Z" style="fill:#3fba65"/>
<path d="M 1021.93,-100.90 L1178.77,-105.28 L1110.38,-177.40 Z" style="fill:#51cd69"/>
<path d="M 1178.77,-105.28 L1224.53,-65.23 L1214.80,-183.19 Z" style="fill:#56d564"/>
<path d="M 1224.53,-65.23 L1350.00,-60.70 L1272.04,-171.74 Z" style="fill:#5ada5f"/>
<path d="M 1350.00,-60.70 L1480.87,-70.87 L1387.49,-169.85 Z" style="fill:#51d449"/>
<path d="M 1480.87,-70.87 L1563.80,-112.56 L1485.47,-148.05 Z" style="fill:#55d941"/>
<path d="M 1563.80,-112.56 L1635.16,-77.33 L1622.34,-184.10 Z" style="fill:#59e03b"/>
<path d="M 1635.16,-77.33 L1732.86,-77.10 L1687.91,-168.56 Z" style="fill:#57df30"/>
<path d="M 1732.86,-77.10 L1838.82,-82.53 L1817.70,-162.57 Z" style="fill:#60ea2d"/>
<path d="M 1838.82,-82.53 L1925.79,-81.01 L1933.58,-172.03 Z" style="fill:#70fb31"/>
<path d="M 1925.79,-81.01 L2063.90,-105.05 L1968.54,-178.19 Z" style="fill:#5de91c"/>
<path d="M 2063.90,-105.05 L2170.69,-113.08 L2087.57,-153.32 Z" style="fill:#6efa2d"/>
<path d="M 2170.69,-113.08 L2258.61,-99.37 L2222.84,-183.86 Z" style="fill:#6af629"/>
<path d="M 2258.61,-99.37 L2340.09,-107.86 L2315.61,-181.86 Z" style="fill:#61ed20"/>
<path d="M -274.20,-12.58 L-172.11,-2.44 L-255.36,-71.05 Z" style="fill:#1d85af"/>
<path d="M -172.11,-2.44 L-67.71,10.49 L-136.66,-64.40 Z" style="fill:#1f87b1"/>
<path d="M -67.71,10.49 L3.41,-27.79 L-38.12,-65.17 Z" style="fill:#1b83ad"/>
<path d="M 3.41,-27.79 L105.63,15.46 L60.29,-114.89 Z" style="fill:#258fb1"/>
<path d="M 105.63,15.46 L213.64,-3.15 L136.34,-103.47 Z" style="fill:#2792a8"/>
<path d="M 213.64,-3.15 L318.13,-1.59 L257.43,-75.15 Z" style="fill:#2a979f"/>
<path d="M 318.13,-1.59 L400.00,-17.85 L360.23,-84.24 Z" style="fill:#279692"/>
<path d="M 400.00,-17.85 L502.63,-18.72 L451.10,-118.08 Z" style="fill:#37a898"/>
<path d="M 502.63,-18.72 L614.39,-6.41 L569.82,-101.00 Z" style="fill:#2ea183"/>
<path d="M 614.39,-6.41 L703.05,-34.87 L676.11,-107.75 Z" style="fill:#36aa7f"/>
<path d="M 703.05,-34.87 L790.15,-23.20 L718.89,-97.31 Z" style="fill:#35aa76"/>
<path d="M 790.15,-23.20 L907.79,-33.76 L866.34,-75.16 Z" style="fill:#38b06c"/>
<path d="M 907.79,-33.76 L991.15,-12.18 L939.71,-81.36 Z" style="fill:#40ba6a"/>
<path d="M 991.15,-12.18 L1112.27,-5.98 L1021.93,-100.90 Z" style="fill:#40bc60"/>
<path d="M 1112.27,-5.98 L1210.10,-11.62 L1178.77,-105.28 Z" style="fill:#54d266"/>
<path d="M 1210.10,-11.62 L1277.48,10.50 L1224.53,-65.23 Z" style="fill:#4dcd57"/>
<path d="M 1277.48,10.50 L1400.00,-17.50 L1350.00,-60.70 Z" style="fill:#4dce4c"/>
<path d="M 1400.00,-17.50 L1483.84,20.69 L1480.87,-70.87 Z" style="fill:#4fd241"/>
<path d="M 1483.84,20.69 L1592.93,-13.29 L1563.80,-112.56 Z" style="fill:#56db3e"/>
<path d="M 1592.93,-13.29 L1713.64,25.65 L1635.16,-77.33 Z" style="fill:#54db31"/>
<path d="M 1713.64,25.65 L1825.96,-13.80 L1732.86,-77.10 Z" style="fill:#64ed35"/>
<path d="M 1825.96,-13.80 L1919.95,-0.00 L1838.82,-82.53 Z" style="fill:#5ee924"/>
<path d="M 1919.95,-0.00 L1991.65,-13.36 L1925.79,-81.01 Z" style="fill:#6ffb2e"/>
<path d="M 1991.65,-13.36 L2098.44,-22.35 L2063.90,-105.05 Z" style="fill:#70fc2f"/>
<path d="M 2098.44,-22.35 L2205.36,-15.55 L2170.69,-113.08 Z" style="fill:#63ef22"/>
<path d="M 2205.36,-15.55 L2295.63,20.54 L2258.61,-99.37 Z" style="fill:#6cf82b"/>
<path d="M -276.74,73.56 L-141.17,66.78 L-172.11,-2.44 Z" style="fill:#278fb9"/>
<path d="M -141.17,66.78 L-27.09,108.73 L-67.71,10.49 Z" style="fill:#278fb9"/>
<path d="M -27.09,108.73 L66.23,69.20 L3.41,-27.79 Z" style="fill:#1c84ac"/>
<path d="M 66.23,69.20 L132.12,109.49 L105.63,15.46 Z" style="fill:#208aa7"/>
<path d="M 132.12,109.49 L270.30,86.60 L213.64,-3.15 Z" style="fill:#2793a2"/>
<path d="M 270.30,86.60 L362.37,101.35 L318.13,-1.59 Z" style="fill:#33a1a2"/>
<path d="M 362.37,101.35 L450.81,75.08 L400.00,-17.85 Z" style="fill:#37a69c"/>
<path d="M 450.81,75.08 L539.77,82.05 L502.63,-18.72 Z" style="fill:#3bac96"/>
<path d="M 539.77,82.05 L671.40,108.76 L614.39,-6.41 Z" style="fill:#3fb28e"/>
<path d="M 671.40,108.76 L734.07,74.60 L703.05,-34.87 Z" style="fill:#31a776"/>
<path d="M 734.07,74.60 L845.02,118.06 L790.15,-23.20 Z" style="fill:#35ac71"/>
<path d="M 845.02,118.06 L944.23,100.88 L907.79,-33.76 Z" style="fill:#3db66d"/>
<path d="M 944.23,100.88 L1083.88,81.24 L991.15,-12.18 Z" style="fill:#47c26b"/>
<path d="M 1083.88,81.24 L1149.80,98.15 L1112.27,-5.98 Z" style="fill:#4ac761"/>
<path d="M 1149.80,98.15 L1254.38,96.91 L1210.10,-11.62 Z" style="fill:#4bca59"/>
<path d="M 1254.38,96.91 L1375.34,73.13 L1277.48,10.50 Z" style="fill:#58d85a"/>
<path d="M 1375.34,73.13 L1432.93,81.38 L1400.00,-17.50 Z" style="fill:#4cce44"/>
<path d="M 1432.93,81.38 L1549.10,73.68 L1483.84,20.69 Z" style="fill:#61e550"/>
<path d="M 1549.10,73.68 L1639.43,96.81 L1592.93,-13.29 Z" style="fill:#62e845"/>
<path d="M 1639.43,96.81 L1737.73,80.62 L1713.64,25.65 Z" style="fill:#59e030"/>
<path d="M 1737.73,80.62 L1822.63,99.95 L1825.96,-13.80 Z" style="fill:#58e225"/>
<path d="M 1822.63,99.95 L1933.62,72.37 L1919.95,-0.00 Z" style="fill:#64ef26"/>
<path d="M 1933.62,72.37 L2047.48,110.62 L1991.65,-13.36 Z" style="fill:#6bf72a"/>
<path d="M 2047.48,110.62 L2155.09,77.02 L2098.44,-22.35 Z" style="fill:#69f528"/>
<path d="M 2155.09,77.02 L2247.90,62.54 L2205.36,-15.55 Z" style="fill:#6efa2d"/>
<path d="M 2247.90,62.54 L2368.77,71.40 L2295.63,20.54 Z" style="fill:#69f528"/>
<path d="M -291.15,180.63 L-205.04,144.60 L-276.74,73.56 Z" style="fill:#1d85af"/>
<path d="M -205.04,144.60 L-110.35,192.67 L-141.17,66.78 Z" style="fill:#2d95bf"/>
<path d="M -110.35,192.67 L14.31,186.09 L-27.09,108.73 Z" style="fill:#2a92bc"/>
<path d="M 14.31,186.09 L124.11,161.96 L66.23,69.20 Z" style="fill:#238cad"/>
<path d="M 124.11,161.96 L193.59,158.82 L132.12,109.49 Z" style="fill:#2792a8"/>
<path d="M 193.59,158.82 L271.74,168.22 L270.30,86.60 Z" style="fill:#319ea8"/>
<path d="M 271.74,168.22 L393.14,195.63 L362.37,101.35 Z" style="fill:#319f9d"/>
<path d="M 393.14,195.63 L528.99,166.51 L450.81,75.08 Z" style="fill:#32a291"/>
<path d="M 528.99,166.51 L601.88,146.32 L539.77,82.05 Z" style="fill:#36a98b"/>
<path d="M 601.88,146.32 L708.85,161.47 L671.40,108.76 Z" style="fill:#3baf84"/>
<path d="M 708.85,161.47 L814.50,167.05 L734.07,74.60 Z" style="fill:#36ac75"/>
<path d="M 814.50,167.05 L918.47,146.83 L845.02,118.06 Z" style="fill:#42ba75"/>
<path d="M 918.47,146.83 L977.38,190.87 L944.23,100.88 Z" style="fill:#4ac474"/>
<path d="M 977.38,190.87 L1129.69,189.66 L1083.88,81.24 Z" style="fill:#40bc5d"/>
<path d="M 1129.69,189.66 L1171.81,176.17 L1149.80,98.15 Z" style="fill:#4dcb61"/>
<path d="M 1171.81,176.17 L1277.70,165.96 L1254.38,96.91 Z" style="fill:#58d763"/>
<path d="M 1277.70,165.96 L1414.82,179.50 L1375.34,73.13 Z" style="fill:#51d24e"/>
<path d="M 1414.82,179.50 L1519.03,188.07 L1432.93,81.38 Z" style="fill:#4ccf3e"/>
<path d="M 1519.03,188.07 L1579.61,180.63 L1549.10,73.68 Z" style="fill:#5ee346"/>
<path d="M 1579.61,180.63 L1728.12,158.25 L1639.43,96.81 Z" style="fill:#63ea40"/>
<path d="M 1728.12,158.25 L1793.30,198.22 L1737.73,80.62 Z" style="fill:#61e932"/>
<path d="M 1793.30,198.22 L1878.34,192.03 L1822.63,99.95 Z" style="fill:#69f432"/>
<path d="M 1878.34,192.03 L1980.29,154.83 L1933.62,72.37 Z" style="fill:#64f023"/>
<path d="M 1980.29,154.83 L2078.30,173.58 L2047.48,110.62 Z" style="fill:#6bf72a"/>
<path d="M 2078.30,173.58 L2200.66,185.79 L2155.09,77.02 Z" style="fill:#61ed20"/>
<path d="M 2200.66,185.79 L2300.88,160.64 L2247.90,62.54 Z" style="fill:#6bf72a"/>
<path d="M -240.33,255.70 L-149.07,286.39 L-205.04,144.60 Z" style="fill:#278fb9"/>
<path d="M -149.07,286.39 L-58.74,283.82 L-110.35,192.67 Z" style="fill:#1c84ae"/>
<path d="M -58.74,283.82 L40.10,271.60 L14.31,186.09 Z" style="fill:#2088b2"/>
<path d="M 40.10,271.60 L138.08,228.77 L124.11,161.96 Z" style="fill:#238daa"/>
<path d="M 138.08,228.77 L257.15,273.84 L193.59,158.82 Z" style="fill:#2f9bac"/>
<path d="M 257.15,273.84 L384.25,261.60 L271.74,168.22 Z" style="fill:#2c9a9d"/>
<path d="M 384.25,261.60 L441.12,292.94 L393.14,195.63 Z" style="fill:#2d9d92"/>
<path d="M 441.12,292.94 L560.29,243.96 L528.99,166.51 Z" style="fill:#3aab94"/>
<path d="M 560.29,243.96 L645.23,269.16 L601.88,146.32 Z" style="fill:#30a380"/>
<path d="M 645.23,269.16 L744.49,273.44 L708.85,161.47 Z" style="fill:#31a676"/>
<path d="M 744.49,273.44 L842.76,285.04 L814.50,167.05 Z" style="fill:#38af72"/>
<path d="M 842.76,285.04 L940.33,254.88 L918.47,146.83 Z" style="fill:#43bc72"/>
<path d="M 940.33,254.88 L1064.35,259.56 L977.38,190.87 Z" style="fill:#3db761"/>
<path d="M 1064.35,259.56 L1134.36,238.29 L1129.69,189.66 Z" style="fill:#4cc964"/>
<path d="M 1134.36,238.29 L1255.08,249.83 L1171.81,176.17 Z" style="fill:#4bc95a"/>
<path d="M 1255.08,249.83 L1345.84,286.08 L1277.70,165.96 Z" style="fill:#59da5d"/>
<path d="M 1345.84,286.08 L1464.04,262.79 L1414.82,179.50 Z" style="fill:#58db50"/>
<path d="M 1464.04,262.79 L1538.34,290.20 L1519.03,188.07 Z" style="fill:#60e44c"/>
<path d="M 1538.34,290.20 L1635.20,264.05 L1579.61,180.63 Z" style="fill:#56db39"/>
<path d="M 1635.20,264.05 L1730.56,246.69 L1728.12,158.25 Z" style="fill:#55dc2c"/>
<path d="M 1730.56,246.69 L1826.74,246.91 L1793.30,198.22 Z" style="fill:#5fe82d"/>
<path d="M 1826.74,246.91 L1943.59,274.20 L1878.34,192.03 Z" style="fill:#5ee921"/>
<path d="M 1943.59,274.20 L2016.86,249.68 L1980.29,154.83 Z" style="fill:#62ee21"/>
<path d="M 2016.86,249.68 L2132.97,234.56 L2078.30,173.58 Z" style="fill:#5de91c"/>
<path d="M 2132.97,234.56 L2257.13,226.26 L2200.66,185.79 Z" style="fill:#6af629"/>
<path d="M 2257.13,226.26 L2341.91,283.30 L2300.88,160.64 Z" style="fill:#71fd30"/>
<path d="M -295.34,365.09 L-205.96,312.63 L-240.33,255.70 Z" style="fill:#268eb8"/>
<path d="M -205.96,312.63 L-85.74,342.85 L-149.07,286.39 Z" style="fill:#2189b3"/>
<path d="M -85.74,342.85 L-2.63,365.13 L-58.74,283.82 Z" style="fill:#2d95bf"/>
<path d="M -2.63,365.13 L102.34,334.39 L40.10,271.60 Z" style="fill:#2a93b7"/>
<path d="M 102.34,334.39 L208.76,319.45 L138.08,228.77 Z" style="fill:#2e99af"/>
<path d="M 208.76,319.45 L293.38,315.26 L257.15,273.84 Z" style="fill:#27949e"/>
<path d="M 293.38,315.26 L401.03,375.79 L384.25,261.60 Z" style="fill:#37a6a2"/>
<path d="M 401.03,375.79 L529.99,349.03 L441.12,292.94 Z" style="fill:#2f9f8e"/>
<path d="M 529.99,349.03 L616.37,336.96 L560.29,243.96 Z" style="fill:#2d9f80"/>
<path d="M 616.37,336.96 L711.54,340.53 L645.23,269.16 Z" style="fill:#34a87e"/>
<path d="M 711.54,340.53 L817.45,326.33 L744.49,273.44 Z" style="fill:#3eb57d"/>
<path d="M 817.45,326.33 L909.30,340.82 L842.76,285.04 Z" style="fill:#39b16d"/>
<path d="M 909.30,340.82 L1011.25,333.47 L940.33,254.88 Z" style="fill:#41bb6a"/>
<path d="M 1011.25,333.47 L1071.53,330.63 L1064.35,259.56 Z" style="fill:#4cc76a"/>
<path d="M 1071.53,330.63 L1225.36,353.20 L1134.36,238.29 Z" style="fill:#53d067"/>
<path d="M 1225.36,353.20 L1287.28,316.45 L1255.08,249.83 Z" style="fill:#4ccc54"/>
<path d="M 1287.28,316.45 L1393.54,338.14 L1345.84,286.08 Z" style="fill:#55d654"/>
<path d="M 1393.54,338.14 L1476.56,347.23 L1464.04,262.79 Z" style="fill:#5ee151"/>
<path d="M 1476.56,347.23 L1620.61,342.40 L1538.34,290.20 Z" style="fill:#57dc3f"/>
<path d="M 1620.61,342.40 L1676.14,326.39 L1635.20,264.05 Z" style="fill:#56dd33"/>
<path d="M 1676.14,326.39 L1785.30,371.87 L1730.56,246.69 Z" style="fill:#5ce430"/>
<path d="M 1785.30,371.87 L1918.97,367.48 L1826.74,246.91 Z" style="fill:#5be522"/>
<path d="M 1918.97,367.48 L2003.89,359.13 L1943.59,274.20 Z" style="fill:#65f124"/>
<path d="M 2003.89,359.13 L2125.86,345.05 L2016.86,249.68 Z" style="fill:#71fd30"/>
<path d="M 2125.86,345.05 L2180.22,360.26 L2132.97,234.56 Z" style="fill:#60ec1f"/>
<path d="M 2180.22,360.26 L2284.83,349.08 L2257.13,226.26 Z" style="fill:#5feb1e"/>
<path d="M -231.47,456.73 L-163.61,403.83 L-205.96,312.63 Z" style="fill:#2991bb"/>
<path d="M -163.61,403.83 L-51.04,444.87 L-85.74,342.85 Z" style="fill:#2c94be"/>
<path d="M -51.04,444.87 L69.82,418.61 L-2.63,365.13 Z" style="fill:#268eb7"/>
<path d="M 69.82,418.61 L169.50,442.53 L102.34,334.39 Z" style="fill:#2a94af"/>
<path d="M 169.50,442.53 L223.38,437.23 L208.76,319.45 Z" style="fill:#2691a2"/>
<path d="M 223.38,437.23 L341.17,420.40 L293.38,315.26 Z" style="fill:#309da2"/>
<path d="M 341.17,420.40 L445.09,452.71 L401.03,375.79 Z" style="fill:#28978e"/>
<path d="M 445.09,452.71 L552.05,403.68 L529.99,349.03 Z" style="fill:#2b9c85"/>
<path d="M 552.05,403.68 L660.64,443.65 L616.37,336.96 Z" style="fill:#30a47f"/>
<path d="M 660.64,443.65 L718.87,434.10 L711.54,340.53 Z" style="fill:#41b687"/>
<path d="M 718.87,434.10 L830.10,421.98 L817.45,326.33 Z" style="fill:#44bb80"/>
<path d="M 830.10,421.98 L978.33,432.02 L909.30,340.82 Z" style="fill:#43bc71"/>
<path d="M 978.33,432.02 L1078.80,450.32 L1011.25,333.47 Z" style="fill:#4cc76d"/>
<path d="M 1078.80,450.32 L1125.59,435.15 L1071.53,330.63 Z" style="fill:#52cf6c"/>
<path d="M 1125.59,435.15 L1229.61,425.59 L1225.36,353.20 Z" style="fill:#47c556"/>
<path d="M 1229.61,425.59 L1364.11,454.73 L1287.28,316.45 Z" style="fill:#53d457"/>
<path d="M 1364.11,454.73 L1474.79,439.19 L1393.54,338.14 Z" style="fill:#55d84c"/>
<path d="M 1474.79,439.19 L1568.43,415.83 L1476.56,347.23 Z" style="fill:#61e54d"/>
<path d="M 1568.43,415.83 L1665.30,413.43 L1620.61,342.40 Z" style="fill:#5ae03a"/>
<path d="M 1665.30,413.43 L1777.47,413.06 L1676.14,326.39 Z" style="fill:#59e12f"/>
<path d="M 1777.47,413.06 L1849.13,408.18 L1785.30,371.87 Z" style="fill:#69f335"/>
<path d="M 1849.13,408.18 L1958.13,465.61 L1918.97,367.48 Z" style="fill:#66f226"/>
<path d="M 1958.13,465.61 L2063.11,418.45 L2003.89,359.13 Z" style="fill:#66f225"/>
<path d="M 2063.11,418.45 L2119.17,417.98 L2125.86,345.05 Z" style="fill:#65f124"/>
<path d="M 2119.17,417.98 L2245.65,449.24 L2180.22,360.26 Z" style="fill:#63ef22"/>
<path d="M 2245.65,449.24 L2333.24,434.18 L2284.83,349.08 Z" style="fill:#5feb1e"/>
<path d="M -295.83,501.54 L-211.25,488.70 L-231.47,456.73 Z" style="fill:#1981ab"/>
<path d="M -211.25,488.70 L-121.40,501.02 L-163.61,403.83 Z" style="fill:#258db7"/>
<path d="M -121.40,501.02 L-17.13,511.63 L-51.04,444.87 Z" style="fill:#2189b3"/>
<path d="M -17.13,511.63 L87.68,550.12 L69.82,418.61 Z" style="fill:#2c95b9"/>
<path d="M 87.68,550.12 L189.96,522.69 L169.50,442.53 Z" style="fill:#1e899f"/>
<path d="M 189.96,522.69 L309.99,516.37 L223.38,437.23 Z" style="fill:#2a97a2"/>
<path d="M 309.99,516.37 L432.55,519.62 L341.17,420.40 Z" style="fill:#32a19d"/>
<path d="M 432.55,519.62 L496.14,501.47 L445.09,452.71 Z" style="fill:#3dad9c"/>
<path d="M 496.14,501.47 L604.15,505.15 L552.05,403.68 Z" style="fill:#31a386"/>
<path d="M 604.15,505.15 L723.63,544.96 L660.64,443.65 Z" style="fill:#3fb388"/>
<path d="M 723.63,544.96 L781.21,547.47 L718.87,434.10 Z" style="fill:#44ba84"/>
<path d="M 781.21,547.47 L926.42,532.50 L830.10,421.98 Z" style="fill:#36ae6b"/>
<path d="M 926.42,532.50 L987.35,506.05 L978.33,432.02 Z" style="fill:#4ac472"/>
<path d="M 987.35,506.05 L1120.08,548.29 L1078.80,450.32 Z" style="fill:#4cc869"/>
<path d="M 1120.08,548.29 L1182.89,520.81 L1125.59,435.15 Z" style="fill:#47c45b"/>
<path d="M 1182.89,520.81 L1280.13,521.35 L1229.61,425.59 Z" style="fill:#55d460"/>
<path d="M 1280.13,521.35 L1401.59,501.48 L1364.11,454.73 Z" style="fill:#4cce4a"/>
<path d="M 1401.59,501.48 L1500.65,501.08 L1474.79,439.19 Z" style="fill:#56da48"/>
<path d="M 1500.65,501.08 L1584.20,516.54 L1568.43,415.83 Z" style="fill:#4fd537"/>
<path d="M 1584.20,516.54 L1670.60,520.13 L1665.30,413.43 Z" style="fill:#60e63d"/>
<path d="M 1670.60,520.13 L1814.69,519.10 L1777.47,413.06 Z" style="fill:#5ae32b"/>
<path d="M 1814.69,519.10 L1915.61,547.78 L1849.13,408.18 Z" style="fill:#62ed28"/>
<path d="M 1915.61,547.78 L2000.37,498.62 L1958.13,465.61 Z" style="fill:#6efa2d"/>
<path d="M 2000.37,498.62 L2112.89,493.19 L2063.11,418.45 Z" style="fill:#60ec1f"/>
<path d="M 2112.89,493.19 L2189.33,494.49 L2119.17,417.98 Z" style="fill:#5eea1d"/>
<path d="M 2189.33,494.49 L2320.40,507.36 L2245.65,449.24 Z" style="fill:#71fd30"/>
<path d="M -249.39,588.73 L-134.10,614.32 L-211.25,488.70 Z" style="fill:#2b93bd"/>
<path d="M -134.10,614.32 L-63.57,581.73 L-121.40,501.02 Z" style="fill:#2991bb"/>
<path d="M -63.57,581.73 L75.48,597.44 L-17.13,511.63 Z" style="fill:#1a82ac"/>
<path d="M 75.48,597.44 L149.03,587.69 L87.68,550.12 Z" style="fill:#2e98b5"/>
<path d="M 149.03,587.69 L250.88,631.40 L189.96,522.69 Z" style="fill:#1f8b9c"/>
<path d="M 250.88,631.40 L377.28,605.27 L309.99,516.37 Z" style="fill:#269395"/>
<path d="M 377.28,605.27 L429.55,603.34 L432.55,519.62 Z" style="fill:#28988d"/>
<path d="M 429.55,603.34 L545.12,583.28 L496.14,501.47 Z" style="fill:#2e9f8a"/>
<path d="M 545.12,583.28 L639.41,584.51 L604.15,505.15 Z" style="fill:#3db08d"/>
<path d="M 639.41,584.51 L780.31,588.72 L723.63,544.96 Z" style="fill:#3db280"/>
<path d="M 780.31,588.72 L821.23,624.90 L781.21,547.47 Z" style="fill:#37ae71"/>
<path d="M 821.23,624.90 L966.38,590.94 L926.42,532.50 Z" style="fill:#3fb86d"/>
<path d="M 966.38,590.94 L1046.41,596.35 L987.35,506.05 Z" style="fill:#4ec972"/>
<path d="M 1046.41,596.35 L1138.68,602.54 L1120.08,548.29 Z" style="fill:#50cc68"/>
<path d="M 1138.68,602.54 L1220.80,600.54 L1182.89,520.81 Z" style="fill:#4ac85b"/>
<path d="M 1220.80,600.54 L1358.17,614.38 L1280.13,521.35 Z" style="fill:#4bcb50"/>
<path d="M 1358.17,614.38 L1455.09,582.25 L1401.59,501.48 Z" style="fill:#56d94e"/>
<path d="M 1455.09,582.25 L1547.18,583.29 L1500.65,501.08 Z" style="fill:#52d63f"/>
<path d="M 1547.18,583.29 L1672.13,618.99 L1584.20,516.54 Z" style="fill:#5ce23e"/>
<path d="M 1672.13,618.99 L1764.07,612.48 L1670.60,520.13 Z" style="fill:#5ce433"/>
<path d="M 1764.07,612.48 L1836.36,605.74 L1814.69,519.10 Z" style="fill:#64ee30"/>
<path d="M 1836.36,605.74 L1950.00,632.47 L1915.61,547.78 Z" style="fill:#65f026"/>
<path d="M 1950.00,632.47 L2045.02,587.62 L2000.37,498.62 Z" style="fill:#6bf72a"/>
<path d="M 2045.02,587.62 L2121.21,596.30 L2112.89,493.19 Z" style="fill:#5eea1d"/>
<path d="M 2121.21,596.30 L2232.31,581.87 L2189.33,494.49 Z" style="fill:#61ed20"/>
<path d="M 2232.31,581.87 L2381.44,597.79 L2320.40,507.36 Z" style="fill:#70fc2f"/>
<path d="M -327.30,701.69 L-178.76,715.60 L-249.39,588.73 Z" style="fill:#1c84ae"/>
<path d="M -178.76,715.60 L-97.17,712.92 L-134.10,614.32 Z" style="fill:#2088b2"/>
<path d="M -97.17,712.92 L-16.73,703.69 L-63.57,581.73 Z" style="fill:#268eb8"/>
<path d="M -16.73,703.69 L96.76,666.42 L75.48,597.44 Z" style="fill:#2b94b8"/>
<path d="M 96.76,666.42 L192.38,666.24 L149.03,587.69 Z" style="fill:#2d97af"/>
<path d="M 192.38,666.24 L313.09,707.88 L250.88,631.40 Z" style="fill:#28959f"/>
<path d="M 313.09,707.88 L392.42,701.54 L377.28,605.27 Z" style="fill:#33a29e"/>
<path d="M 392.42,701.54 L474.66,706.29 L429.55,603.34 Z" style="fill:#31a193"/>
<path d="M 474.66,706.29 L598.44,670.47 L545.12,583.28 Z" style="fill:#36a88c"/>
<path d="M 598.44,670.47 L716.38,713.78 L639.41,584.51 Z" style="fill:#36aa80"/>
<path d="M 716.38,713.78 L798.54,678.90 L780.31,588.72 Z" style="fill:#47bd85"/>
<path d="M 798.54,678.90 L874.66,669.19 L821.23,624.90 Z" style="fill:#38b06f"/>
<path d="M 874.66,669.19 L1006.77,719.99 L966.38,590.94 Z" style="fill:#3db767"/>
<path d="M 1006.77,719.99 L1111.18,696.89 L1046.41,596.35 Z" style="fill:#45c163"/>
<path d="M 1111.18,696.89 L1231.85,693.38 L1138.68,602.54 Z" style="fill:#4bc85d"/>
<path d="M 1231.85,693.38 L1328.20,675.88 L1220.80,600.54 Z" style="fill:#55d55d"/>
<path d="M 1328.20,675.88 L1433.27,688.14 L1358.17,614.38 Z" style="fill:#4ed049"/>
<path d="M 1433.27,688.14 L1531.38,695.57 L1455.09,582.25 Z" style="fill:#56d946"/>
<path d="M 1531.38,695.57 L1578.12,715.48 L1547.18,583.29 Z" style="fill:#57dd3f"/>
<path d="M 1578.12,715.48 L1675.68,695.81 L1672.13,618.99 Z" style="fill:#5ce239"/>
<path d="M 1675.68,695.81 L1807.35,670.19 L1764.07,612.48 Z" style="fill:#5ce52e"/>
<path d="M 1807.35,670.19 L1868.85,692.28 L1836.36,605.74 Z" style="fill:#5de725"/>
<path d="M 1868.85,692.28 L1978.29,684.92 L1950.00,632.47 Z" style="fill:#70fc2f"/>
<path d="M 1978.29,684.92 L2102.03,721.80 L2045.02,587.62 Z" style="fill:#5feb1e"/>
<path d="M 2102.03,721.80 L2184.74,714.61 L2121.21,596.30 Z" style="fill:#6bf72a"/>
<path d="M 2184.74,714.61 L2328.17,687.34 L2232.31,581.87 Z" style="fill:#70fc2f"/>
<path d="M -231.83,774.21 L-168.75,755.43 L-178.76,715.60 Z" style="fill:#228ab4"/>
<path d="M -168.75,755.43 L-40.81,764.12 L-97.17,712.92 Z" style="fill:#248cb6"/>
<path d="M -40.81,764.12 L55.15,765.28 L-16.73,703.69 Z" style="fill:#2d95bf"/>
<path d="M 55.15,765.28 L169.64,773.04 L96.76,666.42 Z" style="fill:#248eab"/>
<path d="M 169.64,773.04 L260.70,790.50 L192.38,666.24 Z" style="fill:#218d9c"/>
<path d="M 260.70,790.50 L351.43,763.04 L313.09,707.88 Z" style="fill:#37a5a8"/>
<path d="M 351.43,763.04 L457.54,796.37 L392.42,701.54 Z" style="fill:#27968d"/>
<path d="M 457.54,796.37 L549.14,763.00 L474.66,706.29 Z" style="fill:#36a792"/>
<path d="M 549.14,763.00 L642.61,793.33 L598.44,670.47 Z" style="fill:#42b592"/>
<path d="M 642.61,793.33 L764.08,794.53 L716.38,713.78 Z" style="fill:#40b584"/>
<path d="M 764.08,794.53 L877.06,790.91 L798.54,678.90 Z" style="fill:#43bb7c"/>
<path d="M 877.06,790.91 L931.45,775.82 L874.66,669.19 Z" style="fill:#49c279"/>
<path d="M 931.45,775.82 L1048.54,800.37 L1006.77,719.99 Z" style="fill:#49c36d"/>
<path d="M 1048.54,800.37 L1157.87,788.81 L1111.18,696.89 Z" style="fill:#4eca66"/>
<path d="M 1157.87,788.81 L1265.07,757.08 L1231.85,693.38 Z" style="fill:#4dcb59"/>
<path d="M 1265.07,757.08 L1333.64,793.15 L1328.20,675.88 Z" style="fill:#59d95b"/>
<path d="M 1333.64,793.15 L1466.98,775.19 L1433.27,688.14 Z" style="fill:#4ed145"/>
<path d="M 1466.98,775.19 L1524.23,790.36 L1531.38,695.57 Z" style="fill:#5ce048"/>
<path d="M 1524.23,790.36 L1656.99,789.05 L1578.12,715.48 Z" style="fill:#60e543"/>
<path d="M 1656.99,789.05 L1737.97,790.64 L1675.68,695.81 Z" style="fill:#68f041"/>
<path d="M 1737.97,790.64 L1825.46,783.31 L1807.35,670.19 Z" style="fill:#6cf539"/>
<path d="M 1825.46,783.31 L1950.00,750.72 L1868.85,692.28 Z" style="fill:#63ee26"/>
<path d="M 1950.00,750.72 L2029.10,752.67 L1978.29,684.92 Z" style="fill:#70fc2f"/>
<path d="M 2029.10,752.67 L2160.04,770.70 L2102.03,721.80 Z" style="fill:#68f427"/>
<path d="M 2160.04,770.70 L2241.00,805.57 L2184.74,714.61 Z" style="fill:#69f528"/>
<path d="M 2241.00,805.57 L2354.26,790.53 L2328.17,687.34 Z" style="fill:#5eea1d"/>
<path d="M -281.83,852.33 L-193.68,857.64 L-231.83,774.21 Z" style="fill:#1f87b1"/>
<path d="M -193.68,857.64 L-89.84,892.49 L-168.75,755.43 Z" style="fill:#268eb8"/>
<path d="M -89.84,892.49 L21.30,864.54 L-40.81,764.12 Z" style="fill:#2890ba"/>
<path d="M 21.30,864.54 L104.76,835.95 L55.15,765.28 Z" style="fill:#2d96b8"/>
<path d="M 104.76,835.95 L214.82,863.41 L169.64,773.04 Z" style="fill:#2792a7"/>
<path d="M 214.82,863.41 L289.02,862.46 L260.70,790.50 Z" style="fill:#2c98a2"/>
<path d="M 289.02,862.46 L428.96,856.62 L351.43,763.04 Z" style="fill:#36a5a1"/>
<path d="M 428.96,856.62 L517.43,851.40 L457.54,796.37 Z" style="fill:#3cad9b"/>
<path d="M 517.43,851.40 L582.68,854.78 L549.14,763.00 Z" style="fill:#34a68a"/>
<path d="M 582.68,854.78 L701.12,833.85 L642.61,793.33 Z" style="fill:#3eb28a"/>
<path d="M 701.12,833.85 L789.71,860.78 L764.08,794.53 Z" style="fill:#40b680"/>
<path d="M 789.71,860.78 L914.35,835.26 L877.06,790.91 Z" style="fill:#43bb76"/>
<path d="M 914.35,835.26 L992.10,887.73 L931.45,775.82 Z" style="fill:#41bb6b"/>
<path d="M 992.10,887.73 L1133.76,869.57 L1048.54,800.37 Z" style="fill:#4bc769"/>
<path d="M 1133.76,869.57 L1230.01,859.10 L1157.87,788.81 Z" style="fill:#4ac85b"/>
<path d="M 1230.01,859.10 L1290.71,872.29 L1265.07,757.08 Z" style="fill:#4ccc54"/>
<path d="M 1290.71,872.29 L1382.95,878.87 L1333.64,793.15 Z" style="fill:#5bdc5a"/>
<path d="M 1382.95,878.87 L1490.27,836.07 L1466.98,775.19 Z" style="fill:#53d646"/>
<path d="M 1490.27,836.07 L1621.67,879.56 L1524.23,790.36 Z" style="fill:#52d73a"/>
<path d="M 1621.67,879.56 L1691.93,885.03 L1656.99,789.05 Z" style="fill:#62e93e"/>
<path d="M 1691.93,885.03 L1816.64,860.62 L1737.97,790.64 Z" style="fill:#69f23b"/>
<path d="M 1816.64,860.62 L1926.33,846.89 L1825.46,783.31 Z" style="fill:#62ed28"/>
<path d="M 1926.33,846.89 L2005.79,845.84 L1950.00,750.72 Z" style="fill:#6ffb2e"/>
<path d="M 2005.79,845.84 L2134.63,864.82 L2029.10,752.67 Z" style="fill:#61ed20"/>
<path d="M 2134.63,864.82 L2181.64,895.41 L2160.04,770.70 Z" style="fill:#64f023"/>
<path d="M 2181.64,895.41 L2328.63,864.02 L2241.00,805.57 Z" style="fill:#70fc2f"/>
<path d="M -265.61,970.59 L-157.30,965.79 L-193.68,857.64 Z" style="fill:#2088b2"/>
<path d="M -157.30,965.79 L-77.63,961.60 L-89.84,892.49 Z" style="fill:#1a82ac"/>
<path d="M -77.63,961.60 L57.12,968.61 L21.30,864.54 Z" style="fill:#248cb5"/>
<path d="M 57.12,968.61 L124.23,957.64 L104.76,835.95 Z" style="fill:#2e98b5"/>
<path d="M 124.23,957.64 L281.44,961.05 L214.82,863.41 Z" style="fill:#2692a1"/>
<path d="M 281.44,961.05 L370.14,975.00 L289.02,862.46 Z" style="fill:#37a4a6"/>
<path d="M 370.14,975.00 L451.31,937.64 L428.96,856.62 Z" style="fill:#2c9c90"/>
<path d="M 451.31,937.64 L530.42,948.82 L517.43,851.40 Z" style="fill:#36a891"/>
<path d="M 530.42,948.82 L648.02,975.29 L582.68,854.78 Z" style="fill:#3fb291"/>
<path d="M 648.02,975.29 L777.58,931.08 L701.12,833.85 Z" style="fill:#37ac7b"/>
<path d="M 777.58,931.08 L848.74,928.51 L789.71,860.78 Z" style="fill:#41b87b"/>
<path d="M 848.74,928.51 L936.90,954.94 L914.35,835.26 Z" style="fill:#42bb71"/>
<path d="M 936.90,954.94 L1043.33,963.73 L992.10,887.73 Z" style="fill:#4ac46f"/>
<path d="M 1043.33,963.73 L1144.70,936.32 L1133.76,869.57 Z" style="fill:#4eca66"/>
<path d="M 1144.70,936.32 L1263.64,978.28 L1230.01,859.10 Z" style="fill:#56d563"/>
<path d="M 1263.64,978.28 L1321.93,958.60 L1290.71,872.29 Z" style="fill:#53d357"/>
<path d="M 1321.93,958.60 L1445.46,929.27 L1382.95,878.87 Z" style="fill:#50d24a"/>
<path d="M 1445.46,929.27 L1556.86,930.20 L1490.27,836.07 Z" style="fill:#5ade47"/>
<path d="M 1556.86,930.20 L1653.34,973.72 L1621.67,879.56 Z" style="fill:#60e641"/>
<path d="M 1653.34,973.72 L1752.18,934.91 L1691.93,885.03 Z" style="fill:#5fe736"/>
<path d="M 1752.18,934.91 L1836.93,929.06 L1816.64,860.62 Z" style="fill:#65ef31"/>
<path d="M 1836.93,929.06 L1959.41,923.67 L1926.33,846.89 Z" style="fill:#5de91d"/>
<path d="M 1959.41,923.67 L2021.04,962.04 L2005.79,845.84 Z" style="fill:#64f023"/>
<path d="M 2021.04,962.04 L2178.69,938.01 L2134.63,864.82 Z" style="fill:#65f124"/>
<path d="M 2178.69,938.01 L2222.43,947.77 L2181.64,895.41 Z" style="fill:#6bf72a"/>
<path d="M 2222.43,947.77 L2368.20,952.31 L2328.63,864.02 Z" style="fill:#71fd30"/>
<path d="M -320.39,1031.81 L-195.73,1066.19 L-265.61,970.59 Z" style="fill:#1e86b0"/>
<path d="M -195.73,1066.19 L-123.71,1041.30 L-157.30,965.79 Z" style="fill:#2890ba"/>
<path d="M -123.71,1041.30 L16.81,1047.07 L-77.63,961.60 Z" style="fill:#1b83ad"/>
<path d="M 16.81,1047.07 L115.84,1057.46 L57.12,968.61 Z" style="fill:#1b84a6"/>
<path d="M 115.84,1057.46 L227.28,1051.95 L124.23,957.64 Z" style="fill:#2994aa"/>
<path d="M 227.28,1051.95 L274.94,1036.60 L281.44,961.05 Z" style="fill:#2c99a1"/>
<path d="M 274.94,1036.60 L388.26,1046.86 L370.14,975.00 Z" style="fill:#2c9a98"/>
<path d="M 388.26,1046.86 L521.23,1043.74 L451.31,937.64 Z" style="fill:#2d9d8d"/>
<path d="M 521.23,1043.74 L608.42,1070.67 L530.42,948.82 Z" style="fill:#32a487"/>
<path d="M 608.42,1070.67 L702.78,1058.99 L648.02,975.29 Z" style="fill:#37ab81"/>
<path d="M 702.78,1058.99 L790.95,1057.79 L777.58,931.08 Z" style="fill:#3fb67e"/>
<path d="M 790.95,1057.79 L922.65,1022.77 L848.74,928.51 Z" style="fill:#38b06c"/>
<path d="M 922.65,1022.77 L1010.83,1048.64 L936.90,954.94 Z" style="fill:#49c372"/>
<path d="M 1010.83,1048.64 L1117.08,1056.31 L1043.33,963.73 Z" style="fill:#40bc5e"/>
<path d="M 1117.08,1056.31 L1204.15,1019.72 L1144.70,936.32 Z" style="fill:#55d368"/>
<path d="M 1204.15,1019.72 L1326.03,1032.26 L1263.64,978.28 Z" style="fill:#56d65d"/>
<path d="M 1326.03,1032.26 L1393.08,1017.93 L1321.93,958.60 Z" style="fill:#59da57"/>
<path d="M 1393.08,1017.93 L1488.81,1034.25 L1445.46,929.27 Z" style="fill:#50d343"/>
<path d="M 1488.81,1034.25 L1593.98,1005.11 L1556.86,930.20 Z" style="fill:#5de245"/>
<path d="M 1593.98,1005.11 L1724.31,1044.40 L1653.34,973.72 Z" style="fill:#5de439"/>
<path d="M 1724.31,1044.40 L1796.36,1022.11 L1752.18,934.91 Z" style="fill:#5de62e"/>
<path d="M 1796.36,1022.11 L1910.57,1052.29 L1836.93,929.06 Z" style="fill:#61ec28"/>
<path d="M 1910.57,1052.29 L2000.40,1027.69 L1959.41,923.67 Z" style="fill:#65f124"/>
<path d="M 2000.40,1027.69 L2085.32,1038.46 L2021.04,962.04 Z" style="fill:#6bf72a"/>
<path d="M 2085.32,1038.46 L2199.08,1028.77 L2178.69,938.01 Z" style="fill:#66f225"/>
<path d="M 2199.08,1028.77 L2284.25,1035.88 L2222.43,947.77 Z" style="fill:#62ee21"/>
<path d="M -235.95,1131.23 L-145.85,1140.30 L-195.73,1066.19 Z" style="fill:#258db7"/>
<path d="M -145.85,1140.30 L-39.04,1101.21 L-123.71,1041.30 Z" style="fill:#2890ba"/>
<path d="M -39.04,1101.21 L67.89,1112.35 L16.81,1047.07 Z" style="fill:#228ab2"/>
<path d="M 67.89,1112.35 L162.01,1109.90 L115.84,1057.46 Z" style="fill:#309ab5"/>
<path d="M 162.01,1109.90 L233.86,1151.66 L227.28,1051.95 Z" style="fill:#329ead"/>
<path d="M 233.86,1151.66 L324.77,1133.07 L274.94,1036.60 Z" style="fill:#2d9ba1"/>
<path d="M 324.77,1133.07 L449.18,1110.10 L388.26,1046.86 Z" style="fill:#309f98"/>
<path d="M 449.18,1110.10 L564.01,1143.76 L521.23,1043.74 Z" style="fill:#3fb098"/>
<path d="M 564.01,1143.76 L663.63,1125.12 L608.42,1070.67 Z" style="fill:#32a681"/>
<path d="M 663.63,1125.12 L772.21,1132.20 L702.78,1058.99 Z" style="fill:#36ab79"/>
<path d="M 772.21,1132.20 L851.74,1145.71 L790.95,1057.79 Z" style="fill:#3cb376"/>
<path d="M 851.74,1145.71 L982.56,1113.98 L922.65,1022.77 Z" style="fill:#44bd71"/>
<path d="M 982.56,1113.98 L1052.78,1157.56 L1010.83,1048.64 Z" style="fill:#43bf66"/>
<path d="M 1052.78,1157.56 L1159.84,1108.08 L1117.08,1056.31 Z" style="fill:#50cd68"/>
<path d="M 1159.84,1108.08 L1281.96,1135.00 L1204.15,1019.72 Z" style="fill:#4bc957"/>
<path d="M 1281.96,1135.00 L1367.46,1129.54 L1326.03,1032.26 Z" style="fill:#47c848"/>
<path d="M 1367.46,1129.54 L1446.01,1137.42 L1393.08,1017.93 Z" style="fill:#4cce44"/>
<path d="M 1446.01,1137.42 L1560.07,1137.02 L1488.81,1034.25 Z" style="fill:#5ade47"/>
<path d="M 1560.07,1137.02 L1646.20,1094.92 L1593.98,1005.11 Z" style="fill:#54da36"/>
<path d="M 1646.20,1094.92 L1734.35,1114.04 L1724.31,1044.40 Z" style="fill:#65ed3c"/>
<path d="M 1734.35,1114.04 L1867.20,1132.78 L1796.36,1022.11 Z" style="fill:#68f234"/>
<path d="M 1867.20,1132.78 L1959.58,1152.14 L1910.57,1052.29 Z" style="fill:#67f327"/>
<path d="M 1959.58,1152.14 L2046.11,1101.29 L2000.40,1027.69 Z" style="fill:#5eea1d"/>
<path d="M 2046.11,1101.29 L2165.81,1130.37 L2085.32,1038.46 Z" style="fill:#62ee21"/>
<path d="M 2165.81,1130.37 L2261.60,1148.60 L2199.08,1028.77 Z" style="fill:#60ec1f"/>
<path d="M 2261.60,1148.60 L2341.81,1115.35 L2284.25,1035.88 Z" style="fill:#67f326"/>
<path d="M -306.85,1201.04 L-186.15,1218.32 L-235.95,1131.23 Z" style="fill:#1a82ac"/>
<path d="M -186.15,1218.32 L-90.94,1200.42 L-145.85,1140.30 Z" style="fill:#2991bb"/>
<path d="M -90.94,1200.42 L-17.69,1188.96 L-39.04,1101.21 Z" style="fill:#228ab4"/>
<path d="M -17.69,1188.96 L97.57,1198.65 L67.89,1112.35 Z" style="fill:#218aae"/>
<path d="M 97.57,1198.65 L189.97,1241.56 L162.01,1109.90 Z" style="fill:#1f8aa0"/>
<path d="M 189.97,1241.56 L314.54,1221.52 L233.86,1151.66 Z" style="fill:#319ea8"/>
<path d="M 314.54,1221.52 L395.43,1232.22 L324.77,1133.07 Z" style="fill:#2d9b99"/>
<path d="M 395.43,1232.22 L495.93,1191.48 L449.18,1110.10 Z" style="fill:#30a191"/>
<path d="M 495.93,1191.48 L586.06,1220.49 L564.01,1143.76 Z" style="fill:#3daf93"/>
<path d="M 586.06,1220.49 L714.60,1208.79 L663.63,1125.12 Z" style="fill:#3baf85"/>
<path d="M 714.60,1208.79 L777.87,1225.21 L772.21,1132.20 Z" style="fill:#39af78"/>
<path d="M 777.87,1225.21 L926.34,1208.73 L851.74,1145.71 Z" style="fill:#40b874"/>
<path d="M 926.34,1208.73 L1017.95,1196.28 L982.56,1113.98 Z" style="fill:#44be6b"/>
<path d="M 1017.95,1196.28 L1099.18,1196.71 L1052.78,1157.56 Z" style="fill:#40bc5e"/>
<path d="M 1099.18,1196.71 L1194.54,1186.76 L1159.84,1108.08 Z" style="fill:#4ac85e"/>
<path d="M 1194.54,1186.76 L1295.16,1223.31 L1281.96,1135.00 Z" style="fill:#59d961"/>
<path d="M 1295.16,1223.31 L1430.33,1209.78 L1367.46,1129.54 Z" style="fill:#58d954"/>
<path d="M 1430.33,1209.78 L1486.28,1196.08 L1446.01,1137.42 Z" style="fill:#52d544"/>
<path d="M 1486.28,1196.08 L1605.60,1202.74 L1560.07,1137.02 Z" style="fill:#57dc3f"/>
<path d="M 1605.60,1202.74 L1726.34,1208.73 L1646.20,1094.92 Z" style="fill:#54db30"/>
<path d="M 1726.34,1208.73 L1807.06,1232.95 L1734.35,1114.04 Z" style="fill:#5ce52d"/>
<path d="M 1807.06,1232.95 L1882.37,1209.64 L1867.20,1132.78 Z" style="fill:#65f02c"/>
<path d="M 1882.37,1209.64 L1989.29,1216.76 L1959.58,1152.14 Z" style="fill:#6af629"/>
<path d="M 1989.29,1216.76 L2097.59,1189.46 L2046.11,1101.29 Z" style="fill:#65f124"/>
<path d="M 2097.59,1189.46 L2166.45,1219.57 L2165.81,1130.37 Z" style="fill:#6efa2d"/>
<path d="M 2166.45,1219.57 L2290.02,1207.35 L2261.60,1148.60 Z" style="fill:#63ef22"/>
<path d="M -264.96,1286.92 L-162.03,1270.69 L-186.15,1218.32 Z" style="fill:#2a92bc"/>
<path d="M -162.03,1270.69 L-42.34,1317.08 L-90.94,1200.42 Z" style="fill:#2991bb"/>
<path d="M -42.34,1317.08 L62.93,1299.72 L-17.69,1188.96 Z" style="fill:#228ab3"/>
<path d="M 62.93,1299.72 L162.61,1319.22 L97.57,1198.65 Z" style="fill:#2a94b0"/>
<path d="M 162.61,1319.22 L261.01,1293.67 L189.97,1241.56 Z" style="fill:#2e9aa9"/>
<path d="M 261.01,1293.67 L344.53,1310.77 L314.54,1221.52 Z" style="fill:#32a0a3"/>
<path d="M 344.53,1310.77 L442.61,1286.74 L395.43,1232.22 Z" style="fill:#31a198"/>
<path d="M 442.61,1286.74 L553.62,1312.56 L495.93,1191.48 Z" style="fill:#32a38d"/>
<path d="M 553.62,1312.56 L654.74,1280.02 L586.06,1220.49 Z" style="fill:#42b592"/>
<path d="M 654.74,1280.02 L784.99,1298.43 L714.60,1208.79 Z" style="fill:#3aaf7d"/>
<path d="M 784.99,1298.43 L838.46,1293.16 L777.87,1225.21 Z" style="fill:#46bd80"/>
<path d="M 838.46,1293.16 L957.28,1264.80 L926.34,1208.73 Z" style="fill:#40b96e"/>
<path d="M 957.28,1264.80 L1049.16,1315.12 L1017.95,1196.28 Z" style="fill:#47c26a"/>
<path d="M 1049.16,1315.12 L1119.50,1286.71 L1099.18,1196.71 Z" style="fill:#53d06d"/>
<path d="M 1119.50,1286.71 L1218.71,1308.01 L1194.54,1186.76 Z" style="fill:#48c659"/>
<path d="M 1218.71,1308.01 L1349.17,1287.17 L1295.16,1223.31 Z" style="fill:#55d55a"/>
<path d="M 1349.17,1287.17 L1445.78,1279.18 L1430.33,1209.78 Z" style="fill:#55d84d"/>
<path d="M 1445.78,1279.18 L1562.43,1324.52 L1486.28,1196.08 Z" style="fill:#4fd33c"/>
<path d="M 1562.43,1324.52 L1665.55,1312.09 L1605.60,1202.74 Z" style="fill:#54da34"/>
<path d="M 1665.55,1312.09 L1772.27,1276.76 L1726.34,1208.73 Z" style="fill:#69f23e"/>
<path d="M 1772.27,1276.76 L1862.22,1310.05 L1807.06,1232.95 Z" style="fill:#67f131"/>
<path d="M 1862.22,1310.05 L1945.81,1310.55 L1882.37,1209.64 Z" style="fill:#6ffa30"/>
<path d="M 1945.81,1310.55 L2043.65,1273.57 L1989.29,1216.76 Z" style="fill:#6bf72a"/>
<path d="M 2043.65,1273.57 L2118.20,1289.32 L2097.59,1189.46 Z" style="fill:#69f528"/>
<path d="M 2118.20,1289.32 L2262.55,1306.00 L2166.45,1219.57 Z" style="fill:#5feb1e"/>
<path d="M 2262.55,1306.00 L2330.36,1318.00 L2290.02,1207.35 Z" style="fill:#66f225"/>
<path d="M -323.45,1385.23 L-181.94,1407.94 L-264.96,1286.92 Z" style="fill:#1f87b1"/>
<path d="M -181.94,1407.94 L-107.79,1351.88 L-162.03,1270.69 Z" style="fill:#2d95bf"/>
<path d="M -107.79,1351.88 L30.71,1373.85 L-42.34,1317.08 Z" style="fill:#1a82ac"/>
<path d="M 30.71,1373.85 L103.85,1358.26 L62.93,1299.72 Z" style="fill:#218aac"/>
<path d="M 103.85,1358.26 L205.98,1359.72 L162.61,1319.22 Z" style="fill:#228da3"/>
<path d="M 205.98,1359.72 L275.06,1368.18 L261.01,1293.67 Z" style="fill:#2d9aa4"/>
<path d="M 275.06,1368.18 L403.95,1396.49 L344.53,1310.77 Z" style="fill:#2f9d9b"/>
<path d="M 403.95,1396.49 L485.58,1361.64 L442.61,1286.74 Z" style="fill:#2e9f8f"/>
<path d="M 485.58,1361.64 L606.91,1418.16 L553.62,1312.56 Z" style="fill:#2c9e82"/>
<path d="M 606.91,1418.16 L710.91,1391.94 L654.74,1280.02 Z" style="fill:#40b48a"/>
<path d="M 710.91,1391.94 L784.36,1390.72 L784.99,1298.43 Z" style="fill:#35ac74"/>
<path d="M 784.36,1390.72 L917.81,1396.77 L838.46,1293.16 Z" style="fill:#42ba77"/>
<path d="M 917.81,1396.77 L1031.29,1394.61 L957.28,1264.80 Z" style="fill:#43bd6a"/>
<path d="M 1031.29,1394.61 L1110.33,1373.75 L1049.16,1315.12 Z" style="fill:#4dc96a"/>
<path d="M 1110.33,1373.75 L1233.13,1376.76 L1119.50,1286.71 Z" style="fill:#41bf55"/>
<path d="M 1233.13,1376.76 L1308.89,1391.86 L1218.71,1308.01 Z" style="fill:#49c851"/>
<path d="M 1308.89,1391.86 L1417.61,1397.08 L1349.17,1287.17 Z" style="fill:#55d651"/>
<path d="M 1417.61,1397.08 L1488.45,1385.64 L1445.78,1279.18 Z" style="fill:#5fe251"/>
<path d="M 1488.45,1385.64 L1609.97,1363.26 L1562.43,1324.52 Z" style="fill:#5fe446"/>
<path d="M 1609.97,1363.26 L1704.80,1358.41 L1665.55,1312.09 Z" style="fill:#5fe63b"/>
<path d="M 1704.80,1358.41 L1823.72,1404.17 L1772.27,1276.76 Z" style="fill:#69f239"/>
<path d="M 1823.72,1404.17 L1888.29,1406.76 L1862.22,1310.05 Z" style="fill:#69f42f"/>
<path d="M 1888.29,1406.76 L2013.60,1384.45 L1945.81,1310.55 Z" style="fill:#67f326"/>
<path d="M 2013.60,1384.45 L2112.24,1381.42 L2043.65,1273.57 Z" style="fill:#60ec1f"/>
<path d="M 2112.24,1381.42 L2168.35,1399.73 L2118.20,1289.32 Z" style="fill:#65f124"/>
<path d="M 2168.35,1399.73 L2311.05,1417.74 L2262.55,1306.00 Z" style="fill:#6cf82b"/>
<path d="M -259.10,1465.13 L-171.96,1458.52 L-181.94,1407.94 Z" style="fill:#2088b2"/>
<path d="M -171.96,1458.52 L-62.98,1476.46 L-107.79,1351.88 Z" style="fill:#2a92bc"/>
<path d="M -62.98,1476.46 L48.85,1494.26 L30.71,1373.85 Z" style="fill:#2890b9"/>
<path d="M 48.85,1494.26 L160.53,1443.30 L103.85,1358.26 Z" style="fill:#1e88a5"/>
<path d="M 160.53,1443.30 L246.59,1447.98 L205.98,1359.72 Z" style="fill:#2591a0"/>
<path d="M 246.59,1447.98 L352.33,1483.20 L275.06,1368.18 Z" style="fill:#2c999e"/>
<path d="M 352.33,1483.20 L440.59,1483.07 L403.95,1396.49 Z" style="fill:#2a9990"/>
<path d="M 440.59,1483.07 L535.01,1455.60 L485.58,1361.64 Z" style="fill:#32a38e"/>
<path d="M 535.01,1455.60 L666.59,1493.48 L606.91,1418.16 Z" style="fill:#40b390"/>
<path d="M 666.59,1493.48 L756.97,1480.55 L710.91,1391.94 Z" style="fill:#33a877"/>
<path d="M 756.97,1480.55 L855.75,1483.06 L784.36,1390.72 Z" style="fill:#46bd80"/>
<path d="M 855.75,1483.06 L935.80,1468.44 L917.81,1396.77 Z" style="fill:#3db66c"/>
<path d="M 935.80,1468.44 L1077.85,1479.19 L1031.29,1394.61 Z" style="fill:#4ec971"/>
<path d="M 1077.85,1479.19 L1166.63,1490.71 L1110.33,1373.75 Z" style="fill:#49c660"/>
<path d="M 1166.63,1490.71 L1227.01,1466.08 L1233.13,1376.76 Z" style="fill:#56d563"/>
<path d="M 1227.01,1466.08 L1330.73,1467.08 L1308.89,1391.86 Z" style="fill:#58d85d"/>
<path d="M 1330.73,1467.08 L1475.06,1469.61 L1417.61,1397.08 Z" style="fill:#50d348"/>
<path d="M 1475.06,1469.61 L1546.34,1437.43 L1488.45,1385.64 Z" style="fill:#57db44"/>
<path d="M 1546.34,1437.43 L1655.08,1498.35 L1609.97,1363.26 Z" style="fill:#52d834"/>
<path d="M 1655.08,1498.35 L1727.70,1479.49 L1704.80,1358.41 Z" style="fill:#59e030"/>
<path d="M 1727.70,1479.49 L1859.27,1467.31 L1823.72,1404.17 Z" style="fill:#61eb2d"/>
<path d="M 1859.27,1467.31 L1935.52,1484.39 L1888.29,1406.76 Z" style="fill:#5ee91f"/>
<path d="M 1935.52,1484.39 L2045.38,1446.05 L2013.60,1384.45 Z" style="fill:#64f023"/>
<path d="M 2045.38,1446.05 L2127.57,1479.10 L2112.24,1381.42 Z" style="fill:#6efa2d"/>
<path d="M 2127.57,1479.10 L2265.38,1473.05 L2168.35,1399.73 Z" style="fill:#61ed20"/>
<path d="M 2265.38,1473.05 L2370.94,1489.20 L2311.05,1417.74 Z" style="fill:#5feb1e"/>
</g>
</svg>
